<?xml version="1.0" encoding="utf-8"?>
<!-- Generator: Adobe Illustrator 22.1.0, SVG Export Plug-In . SVG Version: 6.00 Build 0)  -->
<svg version="1.1" id="Слой_1" xmlns="http://www.w3.org/2000/svg" xmlns:xlink="http://www.w3.org/1999/xlink" x="0px" y="0px"
	 viewBox="0 0 595.3 841.9" style="enable-background:new 0 0 595.3 841.9;" xml:space="preserve">
<style type="text/css">
	.st0{fill:#FFFFFF;}
	.st1{fill:#DA4444;}
	.st2{fill:#FBC96B;}
	.st3{fill:#FF6666;}
	.st4{opacity:0.33;fill:url(#SVGID_1_);}
	.st5{opacity:0.33;fill:url(#SVGID_2_);}
	.st6{opacity:0.2;}
	.st7{fill:#4C37A8;}
	.st8{fill:#552283;}
	.st9{fill:#EB5259;}
	.st10{fill:#C5D7D8;}
	.st11{opacity:0.33;fill:url(#SVGID_3_);}
	.st12{fill:#DDA345;}
	.st13{opacity:0.33;fill:url(#SVGID_4_);}
	.st14{fill:url(#SVGID_5_);}
</style>
<path class="st0" d="M590.6,238.6c0-1.5,1.6-2.7,3.5-2.7l0,0c1.9,0,3.5,1.2,3.5,2.7l0,0c0,1.5-1.6,2.7-3.5,2.7l0,0
	C592.1,241.3,590.6,240.1,590.6,238.6z M590.6,227.7c0-1.5,1.6-2.7,3.5-2.7l0,0c1.9,0,3.5,1.2,3.5,2.7l0,0c0,1.5-1.6,2.7-3.5,2.7
	l0,0C592.1,230.4,590.6,229.2,590.6,227.7z M590.6,216.9c0-1.5,1.6-2.7,3.5-2.7l0,0c1.9,0,3.5,1.2,3.5,2.7l0,0
	c0,1.5-1.6,2.7-3.5,2.7l0,0C592.1,219.6,590.6,218.4,590.6,216.9z M590.6,206.1c0-1.5,1.6-2.7,3.5-2.7l0,0c1.9,0,3.5,1.2,3.5,2.7
	l0,0c0,1.5-1.6,2.7-3.5,2.7l0,0C592.1,208.8,590.6,207.6,590.6,206.1z M590.6,195.2c0-1.5,1.6-2.7,3.5-2.7l0,0
	c1.9,0,3.5,1.2,3.5,2.7l0,0c0,1.5-1.6,2.7-3.5,2.7l0,0C592.1,198,590.6,196.7,590.6,195.2z M590.6,184.4c0-1.5,1.6-2.7,3.5-2.7l0,0
	c1.9,0,3.5,1.2,3.5,2.7l0,0c0,1.5-1.6,2.7-3.5,2.7l0,0C592.1,187.1,590.6,185.9,590.6,184.4z M590.6,173.6c0-1.5,1.6-2.7,3.5-2.7
	l0,0c1.9,0,3.5,1.2,3.5,2.7l0,0c0,1.5-1.6,2.7-3.5,2.7l0,0C592.1,176.3,590.6,175.1,590.6,173.6z M590.6,162.8
	c0-1.5,1.6-2.7,3.5-2.7l0,0c1.9,0,3.5,1.2,3.5,2.7l0,0c0,1.5-1.6,2.7-3.5,2.7l0,0C592.1,165.5,590.6,164.2,590.6,162.8z
	 M590.6,151.9c0-1.5,1.6-2.7,3.5-2.7l0,0c1.9,0,3.5,1.2,3.5,2.7l0,0c0,1.5-1.6,2.7-3.5,2.7l0,0C592.1,154.6,590.6,153.4,590.6,151.9
	z M590.6,141.1c0-1.5,1.6-2.7,3.5-2.7l0,0c1.9,0,3.5,1.2,3.5,2.7l0,0c0,1.5-1.6,2.7-3.5,2.7l0,0
	C592.1,143.8,590.6,142.6,590.6,141.1z M590.6,130.3c0-1.5,1.6-2.7,3.5-2.7l0,0c1.9,0,3.5,1.2,3.5,2.7l0,0c0,1.5-1.6,2.7-3.5,2.7
	l0,0C592.1,133,590.6,131.8,590.6,130.3z M590.6,119.4c0-1.5,1.6-2.7,3.5-2.7l0,0c1.9,0,3.5,1.2,3.5,2.7l0,0c0,1.5-1.6,2.7-3.5,2.7
	l0,0C592.1,122.1,590.6,120.9,590.6,119.4z M590.6,108.6c0-1.5,1.6-2.7,3.5-2.7l0,0c1.9,0,3.5,1.2,3.5,2.7l0,0
	c0,1.5-1.6,2.7-3.5,2.7l0,0C592.1,111.3,590.6,110.1,590.6,108.6z M587,100.5c0-1.5,1.6-2.7,3.5-2.7l0,0c1.9,0,3.5,1.2,3.5,2.7l0,0
	c0,1.5-1.6,2.7-3.5,2.7l0,0C588.6,103.2,587,102,587,100.5z M572.9,100.5c0-1.5,1.6-2.7,3.5-2.7l0,0c1.9,0,3.5,1.2,3.5,2.7l0,0
	c0,1.5-1.6,2.7-3.5,2.7l0,0C574.5,103.2,572.9,102,572.9,100.5z M558.8,100.5c0-1.5,1.6-2.7,3.5-2.7l0,0c1.9,0,3.5,1.2,3.5,2.7l0,0
	c0,1.5-1.6,2.7-3.5,2.7l0,0C560.4,103.2,558.8,102,558.8,100.5z M544.7,100.5c0-1.5,1.6-2.7,3.5-2.7l0,0c1.9,0,3.5,1.2,3.5,2.7l0,0
	c0,1.5-1.6,2.7-3.5,2.7l0,0C546.3,103.2,544.7,102,544.7,100.5z M530.6,100.5c0-1.5,1.6-2.7,3.5-2.7l0,0c1.9,0,3.5,1.2,3.5,2.7l0,0
	c0,1.5-1.6,2.7-3.5,2.7l0,0C532.2,103.2,530.6,102,530.6,100.5z M516.5,100.5c0-1.5,1.6-2.7,3.5-2.7l0,0c1.9,0,3.5,1.2,3.5,2.7l0,0
	c0,1.5-1.6,2.7-3.5,2.7l0,0C518.1,103.2,516.5,102,516.5,100.5z M502.4,100.5c0-1.5,1.6-2.7,3.5-2.7l0,0c1.9,0,3.5,1.2,3.5,2.7l0,0
	c0,1.5-1.6,2.7-3.5,2.7l0,0C504,103.2,502.4,102,502.4,100.5z M488.3,100.5c0-1.5,1.6-2.7,3.5-2.7l0,0c1.9,0,3.5,1.2,3.5,2.7l0,0
	c0,1.5-1.6,2.7-3.5,2.7l0,0C489.9,103.2,488.3,102,488.3,100.5z M474.2,100.5c0-1.5,1.6-2.7,3.5-2.7l0,0c1.9,0,3.5,1.2,3.5,2.7l0,0
	c0,1.5-1.6,2.7-3.5,2.7l0,0C475.8,103.2,474.2,102,474.2,100.5z M460.1,100.5c0-1.5,1.6-2.7,3.5-2.7l0,0c1.9,0,3.5,1.2,3.5,2.7l0,0
	c0,1.5-1.6,2.7-3.5,2.7l0,0C461.7,103.2,460.1,102,460.1,100.5z M446,100.5c0-1.5,1.6-2.7,3.5-2.7l0,0c1.9,0,3.5,1.2,3.5,2.7l0,0
	c0,1.5-1.6,2.7-3.5,2.7l0,0C447.6,103.2,446,102,446,100.5z M431.9,100.5c0-1.5,1.6-2.7,3.5-2.7l0,0c1.9,0,3.5,1.2,3.5,2.7l0,0
	c0,1.5-1.6,2.7-3.5,2.7l0,0C433.5,103.2,431.9,102,431.9,100.5z M417.8,100.5c0-1.5,1.6-2.7,3.5-2.7l0,0c1.9,0,3.5,1.2,3.5,2.7l0,0
	c0,1.5-1.6,2.7-3.5,2.7l0,0C419.4,103.2,417.8,102,417.8,100.5z M403.7,100.5c0-1.5,1.6-2.7,3.5-2.7l0,0c1.9,0,3.5,1.2,3.5,2.7l0,0
	c0,1.5-1.6,2.7-3.5,2.7l0,0C405.3,103.2,403.7,102,403.7,100.5z M389.6,100.5c0-1.5,1.6-2.7,3.5-2.7l0,0c1.9,0,3.5,1.2,3.5,2.7l0,0
	c0,1.5-1.6,2.7-3.5,2.7l0,0C391.2,103.2,389.6,102,389.6,100.5z"/>
<path class="st0" d="M418.9,74.4c-0.8,0-1.5,0.2-2.1,0.5l-13.8-13c0.3-0.6,0.6-1.2,0.6-1.9c0-2.2-1.9-3.9-4.2-3.9
	c-2.3,0-4.2,1.8-4.2,3.9c0,0.7,0.2,1.4,0.6,1.9L382,75c-0.6-0.4-1.4-0.6-2.1-0.6c-0.7,0-1.4,0.2-2,0.5l-13.8-13
	c0.3-0.6,0.6-1.2,0.6-1.9c0-2.2-1.9-3.9-4.2-3.9c-2.3,0-4.2,1.8-4.2,3.9c0,2.2,1.9,3.9,4.2,3.9c0.7,0,1.4-0.2,2-0.5l13.8,13
	c-0.3,0.6-0.6,1.2-0.6,1.9c0,2.2,1.9,3.9,4.2,3.9c2.3,0,4.2-1.8,4.2-3.9c0-0.7-0.2-1.3-0.5-1.8l13.9-13.1c0.6,0.3,1.3,0.5,2,0.5
	c0.7,0,1.4-0.2,2-0.5l13.8,13c-0.3,0.6-0.5,1.2-0.5,1.9c0,2.2,1.9,3.9,4.2,3.9c2.3,0,4.2-1.8,4.2-3.9
	C423.1,76.1,421.2,74.4,418.9,74.4z"/>
<path class="st1" d="M565,153.8v298.6c0,4.9-4.3,9-9.5,9H381.6c-5.2,0-9.5-4-9.5-9V153.8c0-4.9,4.3-9,9.5-9h173.9
	C560.7,144.9,565,148.9,565,153.8z"/>
<path class="st2" d="M547.4,166.3V425c0,2.7-2.3,4.8-5.2,4.8H394.8c-2.9,0-5.2-2.2-5.2-4.8V166.3c0-2.7,2.3-4.8,5.2-4.8h147.4
	C545.1,161.5,547.4,163.7,547.4,166.3z"/>
<g>
	<path class="st3" d="M468.5,453.6L468.5,453.6c-4.9,0-8.9-3.8-8.9-8.4l0,0c0-4.7,4-8.4,8.9-8.4l0,0c4.9,0,8.9,3.8,8.9,8.4l0,0
		C477.5,449.9,473.5,453.6,468.5,453.6z"/>
</g>
<linearGradient id="SVGID_1_" gradientUnits="userSpaceOnUse" x1="468.5306" y1="258.7366" x2="468.5306" y2="184.2411">
	<stop  offset="0" style="stop-color:#4F2280"/>
	<stop  offset="1" style="stop-color:#D4145A"/>
</linearGradient>
<path class="st4" d="M547.4,166.3v78.9H389.7v-78.9c0-2.7,2.3-4.8,5.2-4.8h147.4C545.1,161.5,547.4,163.7,547.4,166.3z"/>
<linearGradient id="SVGID_2_" gradientUnits="userSpaceOnUse" x1="468.5306" y1="258.7366" x2="468.5306" y2="184.2411">
	<stop  offset="0" style="stop-color:#4F2280"/>
	<stop  offset="1" style="stop-color:#D4145A"/>
</linearGradient>
<ellipse class="st5" cx="468.5" cy="245.2" rx="36.4" ry="34.3"/>
<path class="st0" d="M474.4,246.4c1.8-1.5,2.9-3.7,2.9-6.2v-4.1c0-4.6-3.7-8.5-8.6-8.7c-5-0.1-9.1,3.6-9.1,8.3v4.4
	c0,2.5,1.1,4.7,2.9,6.2c-5.9,1.9-10.5,6.5-12.1,12.2c-0.6,2.2,1.3,4.4,3.7,4.4h28.6c2.5,0,4.3-2.2,3.7-4.4
	C485,252.9,480.4,248.2,474.4,246.4z"/>
<path class="st6" d="M565,279.3v92.1c-2.3,0.3-4.6,0.5-7,0.5c-27.2,0-49.3-20.9-49.3-46.5c0-25.7,22.1-46.5,49.3-46.5
	c0.6,0,1.1,0,1.7,0.1C561.5,278.9,563.2,279,565,279.3z"/>
<g>
	<path class="st7" d="M611.2,339.4c5-7.2,7.8-15.9,7.8-25.1c0-19.2-12.3-35.6-29.8-42.7l-19.5,42.7L611.2,339.4z"/>
	<path class="st8" d="M585.5,358.4l-15.8-44.1l1.6-46.5c-0.6,0-1.1,0-1.6,0c-27.2,0-49.3,20.8-49.3,46.5c0,25.7,22.1,46.5,49.3,46.5
		C575.2,360.9,580.6,360,585.5,358.4z"/>
	<path class="st9" d="M585.5,358.4c10.7-3.4,19.7-10.2,25.7-19l-41.5-25.1L585.5,358.4z"/>
	<path class="st10" d="M589.2,271.6c-5.5-2.3-11.5-3.6-17.8-3.7l-1.6,46.5L589.2,271.6z"/>
</g>
<linearGradient id="SVGID_3_" gradientUnits="userSpaceOnUse" x1="569.692" y1="359.7011" x2="569.692" y2="242.2521">
	<stop  offset="0" style="stop-color:#4F2280"/>
	<stop  offset="1" style="stop-color:#D4145A"/>
</linearGradient>
<path class="st11" d="M589.2,271.6c-5.5-2.3-11.5-3.6-17.8-3.7c-0.6,0-1.1,0-1.6,0c-27.2,0-49.3,20.8-49.3,46.5
	c0,25.7,22.1,46.5,49.3,46.5c5.5,0,10.9-0.9,15.8-2.5c10.7-3.4,19.7-10.2,25.7-19c5-7.2,7.8-15.9,7.8-25.1
	C619,295.2,606.7,278.7,589.2,271.6z"/>
<g>
	<path class="st0" d="M468.5,288.7c-0.8,0-1.5-0.3-2.1-0.8c-0.6-0.5-0.8-1.2-0.8-1.9c0-0.4,0.1-0.7,0.2-1.1c0.1-0.3,0.3-0.6,0.6-0.9
		c0.1-0.1,0.3-0.2,0.4-0.3c0.2-0.1,0.3-0.2,0.5-0.3c0.2-0.1,0.3-0.1,0.5-0.1c0.4-0.1,0.8-0.1,1.1,0c0.2,0,0.4,0.1,0.6,0.1
		c0.2,0.1,0.3,0.2,0.5,0.3c0.2,0.1,0.3,0.2,0.5,0.3c0.3,0.2,0.5,0.6,0.6,0.9c0.1,0.4,0.2,0.7,0.2,1.1c0,0.7-0.3,1.4-0.8,1.9
		C470,288.4,469.3,288.7,468.5,288.7z"/>
	<path class="st0" d="M465.6,307c0-1.5,1.3-2.7,2.9-2.7l0,0c1.6,0,2.9,1.2,2.9,2.7l0,0c0,1.5-1.3,2.7-2.9,2.7l0,0
		C466.9,309.8,465.6,308.5,465.6,307z M465.6,296.5c0-1.5,1.3-2.7,2.9-2.7l0,0c1.6,0,2.9,1.2,2.9,2.7l0,0c0,1.5-1.3,2.7-2.9,2.7l0,0
		C466.9,299.3,465.6,298,465.6,296.5z"/>
	<path class="st0" d="M468.5,320.3c-0.8,0-1.5-0.3-2.1-0.8c-0.3-0.2-0.5-0.6-0.6-0.9c-0.1-0.3-0.2-0.7-0.2-1c0-0.7,0.3-1.4,0.8-2
		c0.1-0.1,0.3-0.2,0.4-0.4c0.2-0.1,0.3-0.2,0.5-0.2c0.2-0.1,0.3-0.1,0.5-0.1c0.4-0.1,0.8-0.1,1.1,0c0.2,0,0.4,0.1,0.6,0.1
		c0.2,0.1,0.3,0.2,0.5,0.2c0.2,0.1,0.3,0.2,0.5,0.4c0.3,0.2,0.5,0.5,0.6,0.9c0.1,0.4,0.2,0.7,0.2,1.1c0,0.7-0.3,1.4-0.8,1.9
		C470,320,469.3,320.3,468.5,320.3z"/>
	<path class="st0" d="M497.3,317.6c0-1.5,1.3-2.7,2.9-2.7l0,0c1.6,0,2.9,1.2,2.9,2.7l0,0c0,1.5-1.3,2.7-2.9,2.7l0,0
		C498.6,320.3,497.3,319.1,497.3,317.6z M486.7,317.6c0-1.5,1.3-2.7,2.9-2.7l0,0c1.6,0,2.9,1.2,2.9,2.7l0,0c0,1.5-1.3,2.7-2.9,2.7
		l0,0C488,320.3,486.7,319.1,486.7,317.6z M476.2,317.6c0-1.5,1.3-2.7,2.9-2.7l0,0c1.6,0,2.9,1.2,2.9,2.7l0,0c0,1.5-1.3,2.7-2.9,2.7
		l0,0C477.5,320.3,476.2,319.1,476.2,317.6z"/>
	<path class="st0" d="M510.7,320.3c-0.8,0-1.5-0.3-2.1-0.8c-0.6-0.5-0.8-1.2-0.8-1.9c0-0.7,0.3-1.4,0.8-2c1.1-1,3-1,4.1,0
		c0.5,0.5,0.8,1.2,0.8,2c0,0.7-0.3,1.4-0.8,1.9C512.3,320,511.5,320.3,510.7,320.3z"/>
</g>
<rect x="404" y="336.7" class="st12" width="97.1" height="5.5"/>
<rect x="404" y="353.3" class="st12" width="97.1" height="5.5"/>
<rect x="404" y="369.1" class="st12" width="36.9" height="5.5"/>
<linearGradient id="SVGID_4_" gradientUnits="userSpaceOnUse" x1="439.0507" y1="411.9227" x2="498.0106" y2="411.9227">
	<stop  offset="0" style="stop-color:#4F2280"/>
	<stop  offset="1" style="stop-color:#D4145A"/>
</linearGradient>
<path class="st13" d="M439.1,425.8c0-15.4,13.2-27.8,29.5-27.8c16.3,0,29.5,12.5,29.5,27.8"/>
<linearGradient id="SVGID_5_" gradientUnits="userSpaceOnUse" x1="404.2337" y1="176.5457" x2="532.8275" y2="176.5457">
	<stop  offset="0" style="stop-color:#4F2280"/>
	<stop  offset="1" style="stop-color:#D4145A"/>
</linearGradient>
<rect x="404.2" y="173.8" class="st14" width="128.6" height="5.5"/>
</svg>
