<?xml version="1.0" encoding="utf-8"?>
<!-- Generator: Adobe Illustrator 22.1.0, SVG Export Plug-In . SVG Version: 6.00 Build 0)  -->
<svg version="1.1" id="Слой_1" xmlns="http://www.w3.org/2000/svg" xmlns:xlink="http://www.w3.org/1999/xlink" x="0px" y="0px"
	 viewBox="0 0 595.3 841.9" style="enable-background:new 0 0 595.3 841.9;" xml:space="preserve">
<style type="text/css">
	.st0{opacity:0.32;fill:#D8BDA7;}
	.st1{fill:#E49F98;}
	.st2{fill:#F8B7B0;}
	.st3{fill:#1C1E38;}
	.st4{fill:#F22F5D;}
	.st5{fill:#CC1D4F;}
	.st6{fill:#4C37A8;}
	.st7{fill:#FCBA6B;}
</style>
<g>
	<ellipse class="st0" cx="265" cy="558.5" rx="111.3" ry="9.4"/>
	<path class="st1" d="M443.1,258.7c0.8-0.1,1.3,0.2,0.2,0.7c-2.4,1.1-5.9,4.4-7.3,5.6c-2.1,1.7-5.4,5.5-9.7,7.6
		c-4.2,2-23.7,7.9-26.8,8.1c-2.9,0.3-8.3-0.2-1.7-8.6c3.5-4.4,5.5-5.2,9.6-6.3c3.5-0.9,11.6-3.6,12.9-3.3c1.2,0.3,0.5,1.5-8,5
		c-1.3,1.1,5.9,2.5,8.6,2.2c2.7-0.4,4.4-6.8,6.2-7.9c1.5-1,2.9-1.1,3.8-0.9c0.9,0.2-1,2-2.3,4c-1.3,2-0.5,3.2-0.5,3.2
		s6.9-6.2,9.6-7.6C440.2,259.4,440.4,259.2,443.1,258.7z"/>
	<path class="st2" d="M386,286.1c0,0,5.2-4.4,9.7-9.8c1.9-2.2,11.5-5.2,18.3-4.4c0,0,3.6-8.1,5.7-8.9c2.2-0.8,3.9-0.4,2.6,1.2
		c-1.2,1.6-3.2,6.3-3.2,6.3s5.3,1.5,6.1-1.7c0.8-3.2,4.7-7.6,7.6-8.1c2.9-0.5,3.1,0.1,0.8,2.1c-2.3,1.9-3.3,5.3-2.8,6.3
		c0.6,1-4.8,4-9.4,5.9c-4.6,1.9-17,5.7-20.6,8.3c-3.5,2.6-22.2,20.4-22.2,20.4l-13.4-4.5L386,286.1z"/>
	<path class="st2" d="M270.1,250.9c17.7,1.6,29-5.1,32.5-8.2c3.5-3.1-7.9-6.2-12-9.3c-1.8-1.3-2.5-3.5-2.5-6.2
		c-0.1-3.7,1.1-8.5,2.5-13.8l-35.7-4.3c0,0,1.2,12.3,1.2,16.9c0,0.8-0.1,1.5-0.4,2.1c-1.3,2.9-5.6,4.1-12.4,7.9
		C235,240.5,252.4,249.2,270.1,250.9z"/>
	<path class="st3" d="M248.8,201.3c-3.1-0.2-4.9,0.2-5.9-9.4c-0.4-4.1-0.4-7.7,5.5-12c0,0,7.5-1.1,8.4,5.5
		C257.7,192.1,255.3,200.1,248.8,201.3z"/>
	<path class="st1" d="M256.1,225.9c0,0.3,0,0.6-0.1,0.9c4,2.5,8.5,4.4,12.2,4.4c5.8,0,12.8-2,19.9-6.1c0.3-3.4,1.3-7.4,2.5-11.8
		l-35.7-4.3C254.9,209,256.1,221.3,256.1,225.9z"/>
	<path class="st2" d="M297.2,201.5c-1.5,10.5-2.6,15.6-9.3,19.9c-6.7,4.3-13.6,6.4-19.1,6.4c-6.9,0-17.2-7.5-18.9-11.9
		c-1.8-4.6-4.4-16.5-2.2-28c1.1-5.8,11.6-12.9,22.5-12.9C281,174.9,300.9,175.7,297.2,201.5z"/>
	<path class="st2" d="M244.6,204.3c1.2,3.8,4.6,6.6,7.6,6.1c2.9-0.4,4.3-3.9,3.1-7.8c-1.2-3.8-4.6-6.6-7.6-6.1
		C244.7,197,243.3,200.4,244.6,204.3z"/>
	<path class="st3" d="M298,182.6c0,0-12.4,4.7-32.2,2.8c-18.6-1.8-18.6-4.9-18.6-4.9s3.2-8.5,16-9.1
		C276.1,170.8,294.4,171.4,298,182.6z"/>
	<path class="st3" d="M295,201.3c-3.1-0.2-4.9,0.2-5.9-9.4c-0.4-4.1-0.4-7.7,5.5-12c0,0,7.5-1.1,8.4,5.5
		C303.9,192.1,301.5,200.1,295,201.3z"/>
	<path class="st4" d="M351.8,296.4l36.1-12.5l3.2,15.6l-52.2,19l-22.9-35.2c0,0-0.4,52.5-1.4,59.8c-1,7.1-3.5,7.8-8,7.8
		c-21.6,0-61.8,0-72.3,0c-4.9,0-8.5-3.6-7.6-10.1c0.7-5.2,5.5-48,3.5-67.1c0,0-3.6,16.4-5.8,34.5l45.2,27.3l-6.2,12.4l-64.2-30
		c0,0,0.6-61.1,19.7-73.3c7.4-4.7,25.3-13.2,33.2-14.2l19.9,7.9l1.7,3.1l1-3.2l12.8-6.6c11.8,1.4,28.9,9.5,31.4,12.8
		C325,252.2,351.8,296.4,351.8,296.4z"/>
	<path class="st2" d="M292.6,201.1c-2.2,3.6-1.7,7.2,1.1,8c2.8,0.8,6.8-1.5,9-5.2c2.2-3.6,1.7-7.2-1.1-8
		C298.8,195.1,294.8,197.5,292.6,201.1z"/>
	<path class="st5" d="M254,226.7c0,0-4.1,1.6-5.1,5.8c0,0,4.8,6.7,16,13.7c0,0,2.8-6.7,7.5-8L254,226.7z"/>
	<path class="st5" d="M290.2,226.3c0,0,2,3.2,1.5,6.9c0,0-4.9,8.1-13.7,12.9c0,0,1.1-4.9-3.1-8L290.2,226.3z"/>
	<g>
		<path class="st5" d="M229.7,311.4c-0.6,7.5-1.2,14.5-1.8,19.9l-10.1-4.7c2.3-5.6,7-13.8,8.8-17L229.7,311.4z"/>
	</g>
	<g>
		<path class="st6" d="M220.3,541.9c1.4,3.5,3.8,6.2,2.1,8.2c-1.7,2-0.6,3.4,1.3,6.2c1.9,2.8,7.8,8.4-7.8,8.7
			c-16.6,0.2-25-2.7-22.2-8.9c2.8-6.2,2.5-8.2,2.3-10.3c-0.2-2,0.6-4.1,2.5-5.4C200.5,539.2,217.8,535.7,220.3,541.9z"/>
		<path class="st6" d="M313.9,537.9c1.4,2.2,8.7,7.4,19.1,11.1c10.4,3.7,32.3,7,19.3,9.1c-13,2.2-21.7,1.9-41.4-2.6
			c-8.3-1.6-7.5-1.9-16.4-1.6c-8.9,0.3-15.4,1.9-11.2-9.9C287.5,532.4,309.4,530.9,313.9,537.9z"/>
		<path class="st7" d="M226.9,345.8c0,0,0-2.5,3.2-2.8c3.2-0.3,8-1,43.6-1c35.6,0,41.3,0.6,41.3,2.3c0,0,3.7,82.9,2.7,96.7
			c-0.9,13.8-3.7,82.5-2.7,88.7c0.9,6.2,2.9,10.9,2.9,10.9l-12.9-2.4c0,0-19.9,7.9-22.2,10.5c-2.3,2.7-0.3-5.9-1.5-14.6
			c-1.2-8.9,1.8-81.2,2.3-91.3c0.5-10-8.7-63.2-8.7-63.2h-6.4c0,0-18.5,42-21.2,53.2c-2.7,11.2-5.3,18.6-7.4,24.4
			c-3,8.5-15.4,72.3-16.7,78.1c-1.4,5.9,0,12.1,0,12.1l-7.5-5.1c0,0-17.4,1.2-20.2,5.5c0,0,8.2-90.9,12.7-103.3
			C212.7,432.1,226.9,345.8,226.9,345.8z"/>
	</g>
	<path class="st1" d="M259.9,209c0.3,1.5,2.6,2.8,5.4,2.8c2.2,0,4.1-0.8,4.9-1.8c-1.2,0.6-2.7,0.9-4.4,0.9
		C263.2,210.8,261.1,210.1,259.9,209z"/>
	<path class="st5" d="M391.4,280.5c0,0,3.7,14.5,3.3,19.7l-13.6,5.3l1.4-21.7L391.4,280.5z"/>
</g>
</svg>
