<?xml version="1.0" encoding="utf-8"?>
<!-- Generator: Adobe Illustrator 22.1.0, SVG Export Plug-In . SVG Version: 6.00 Build 0)  -->
<svg version="1.1" id="Слой_1" xmlns="http://www.w3.org/2000/svg" xmlns:xlink="http://www.w3.org/1999/xlink" x="0px" y="0px"
	 viewBox="0 0 595.3 841.9" style="enable-background:new 0 0 595.3 841.9;" xml:space="preserve">
<style type="text/css">
	.st0{fill:#FF6666;}
	.st1{fill:#FBC96B;}
	.st2{fill:#EF5B5B;}
</style>
<path class="st0" d="M287.4,499.3c4.5,4.6,11.1,6.4,17,3.1c4.6-2.5,7.3-7.3,7.9-12.3c-3.7,1.9-8.2,3.8-13,5.5
	C295.2,497.2,291.1,498.4,287.4,499.3z"/>
<path class="st0" d="M311.3,482.4c-0.1-0.2-0.2-0.4-0.3-0.6c-0.2-0.3-0.3-0.7-0.5-1c-4.1-7.3-13.5-9.6-21.1-5.4
	c-6.3,3.5-8.5,10-6.5,16.4c0.1,0.2,0.1,0.4,0.2,0.6c0.3,1,0.8,1.9,1.3,2.9c0.7,1.3,1.6,2.5,2.5,3.5c3.7-0.9,7.9-2.2,12.2-3.7
	c4.9-1.8,9.5-3.7,13.3-5.7C312.5,487,312.2,484.6,311.3,482.4z"/>
<path class="st1" d="M273.3,499.7c0.4,1.1,2.4,1.5,5.8,1.2c0.8-0.1,1.7-0.2,2.7-0.4c1.7-0.3,3.6-0.7,5.6-1.2
	c3.7-0.9,7.7-2.2,11.9-3.7c4.8-1.7,9.3-3.6,13-5.5c1.3-0.6,2.5-1.3,3.6-1.9c4.2-2.5,6.2-4.4,6.1-5.8c0-0.1,0-0.2-0.1-0.3
	c-0.5-1.4-3.4-1.7-8.5-0.8c-0.8,0.1-1.6,0.3-2.4,0.5c0.1,0.2,0.2,0.4,0.3,0.6c0.8-0.2,1.5-0.3,2.3-0.4c1-0.2,1.8-0.3,2.6-0.4
	c1.7-0.2,3-0.2,3.8,0c0.8,0.1,1.3,0.4,1.4,0.7c0.3,0.8-1.1,2.6-5.8,5.3c-1,0.6-2,1.2-3.2,1.7c-3.8,1.9-8.4,3.9-13.3,5.7
	c-4.3,1.5-8.5,2.8-12.2,3.7c-1.9,0.5-3.6,0.8-5.2,1.1c-5.3,0.9-7.5,0.4-7.8-0.4"/>
<path class="st1" d="M273.9,499.5c-0.4-1.2,3-4,9.2-7.1c-0.1-0.2-0.1-0.4-0.2-0.6c-6.1,3.1-10.3,6.1-9.6,8"/>
<path class="st2" d="M288.6,482.3c-0.8,0.3-1.6-0.1-2-0.9c-0.3-0.8-0.1-1.6,0.7-2c0.8-0.3,1.8,0,2.1,0.8
	C289.8,480.9,289.4,482,288.6,482.3z"/>
<path class="st2" d="M285.9,483.8c-0.4,0.2-0.9-0.1-1.1-0.5c-0.2-0.4,0-0.9,0.4-1.1c0.4-0.2,0.9,0,1.1,0.4
	C286.6,483.1,286.4,483.6,285.9,483.8z"/>
<path class="st2" d="M305.3,500.5c-0.4,0.2-0.9-0.1-1.1-0.5c-0.2-0.4,0-0.9,0.4-1.1c0.4-0.2,0.9,0,1.1,0.4
	C305.9,499.8,305.7,500.3,305.3,500.5z"/>
</svg>
