<?xml version="1.0" encoding="utf-8"?>
<!-- Generator: Adobe Illustrator 22.1.0, SVG Export Plug-In . SVG Version: 6.00 Build 0)  -->
<svg version="1.1" id="Слой_1" xmlns="http://www.w3.org/2000/svg" xmlns:xlink="http://www.w3.org/1999/xlink" x="0px" y="0px"
	 viewBox="0 0 283.5 283.5" style="enable-background:new 0 0 283.5 283.5;" xml:space="preserve">
<style type="text/css">
	.st0{fill:#FFFFFF;}
	.st1{fill:#DB4544;}
	.st2{fill:#FBC96D;}
	.st3{fill:#F26767;}
	.st4{opacity:0.33;fill:url(#SVGID_1_);}
	.st5{opacity:0.33;fill:url(#SVGID_2_);}
	.st6{opacity:0.2;fill:#010101;}
	.st7{fill:#50429A;}
	.st8{fill:#552C82;}
	.st9{fill:#EB545A;}
	.st10{fill:#C5D7D9;}
	.st11{opacity:0.33;fill:url(#SVGID_3_);}
	.st12{fill:#DEA447;}
	.st13{opacity:0.33;fill:url(#SVGID_4_);}
	.st14{fill:url(#SVGID_5_);}
</style>
<path class="st0" d="M97.7-77.2c-0.8,0-1.5,0.2-2.1,0.5l-13.8-13c0.3-0.6,0.6-1.2,0.6-1.9c0-2.2-1.9-3.9-4.2-3.9
	c-2.3,0-4.2,1.8-4.2,3.9c0,0.7,0.2,1.4,0.6,1.9l-13.8,13c-0.6-0.4-1.4-0.6-2.1-0.6c-0.7,0-1.4,0.2-2,0.5l-13.8-13
	c0.3-0.6,0.6-1.2,0.6-1.9c0-2.2-1.9-3.9-4.2-3.9c-2.3,0-4.2,1.8-4.2,3.9c0,2.2,1.9,3.9,4.2,3.9c0.7,0,1.4-0.2,2-0.5l13.8,13
	c-0.3,0.6-0.6,1.2-0.6,1.9c0,2.2,1.9,3.9,4.2,3.9c2.3,0,4.2-1.8,4.2-3.9c0-0.7-0.2-1.3-0.5-1.8l13.9-13.1c0.6,0.3,1.3,0.5,2,0.5
	c0.7,0,1.4-0.2,2-0.5l13.8,13c-0.3,0.6-0.5,1.2-0.5,1.9c0,2.2,1.9,3.9,4.2,3.9c2.3,0,4.2-1.8,4.2-3.9C101.9-75.4,100-77.2,97.7-77.2
	z"/>
<path class="st1" d="M243.8,2.3v298.6c0,4.9-4.3,9-9.5,9H60.3c-5.2,0-9.5-4-9.5-9V2.3c0-4.9,4.3-9,9.5-9h173.9
	C239.5-6.7,243.8-2.6,243.8,2.3z"/>
<path class="st2" d="M226.2,14.8v258.7c0,2.7-2.3,4.8-5.2,4.8H73.6c-2.9,0-5.2-2.2-5.2-4.8V14.8c0-2.7,2.3-4.8,5.2-4.8H221
	C223.9,9.9,226.2,12.1,226.2,14.8z"/>
<g>
	<path class="st3" d="M147.3,302.1L147.3,302.1c-4.9,0-8.9-3.8-8.9-8.4l0,0c0-4.7,4-8.4,8.9-8.4l0,0c4.9,0,8.9,3.8,8.9,8.4l0,0
		C156.2,298.3,152.2,302.1,147.3,302.1z"/>
</g>
<linearGradient id="SVGID_1_" gradientUnits="userSpaceOnUse" x1="147.3074" y1="107.1965" x2="147.3074" y2="32.7009">
	<stop  offset="0" style="stop-color:#4F2C7F"/>
	<stop  offset="1" style="stop-color:#D41C5C"/>
</linearGradient>
<path class="st4" d="M226.2,14.8v78.9H68.4V14.8c0-2.7,2.3-4.8,5.2-4.8H221C223.9,9.9,226.2,12.1,226.2,14.8z"/>
<linearGradient id="SVGID_2_" gradientUnits="userSpaceOnUse" x1="147.3074" y1="107.1965" x2="147.3074" y2="32.701">
	<stop  offset="0" style="stop-color:#4F2C7F"/>
	<stop  offset="1" style="stop-color:#D41C5C"/>
</linearGradient>
<ellipse class="st5" cx="147.3" cy="93.7" rx="36.4" ry="34.3"/>
<path class="st0" d="M153.2,94.8c1.8-1.5,2.9-3.7,2.9-6.2v-4.1c0-4.6-3.7-8.5-8.6-8.7c-5-0.1-9.1,3.6-9.1,8.3v4.4
	c0,2.5,1.1,4.7,2.9,6.2c-5.9,1.9-10.5,6.5-12.1,12.2c-0.6,2.2,1.3,4.4,3.7,4.4h28.6c2.5,0,4.3-2.2,3.7-4.4
	C163.7,101.3,159.1,96.7,153.2,94.8z"/>
<path class="st6" d="M243.8,127.7v92.1c-2.3,0.3-4.6,0.5-7,0.5c-27.2,0-49.3-20.9-49.3-46.5c0-25.7,22.1-46.5,49.3-46.5
	c0.6,0,1.1,0,1.7,0.1C240.3,127.4,242,127.5,243.8,127.7z"/>
<g>
	<path class="st7" d="M290,187.9c5-7.2,7.8-15.9,7.8-25.1c0-19.2-12.3-35.6-29.8-42.7l-19.5,42.7L290,187.9z"/>
	<path class="st8" d="M264.3,206.9l-15.8-44.1l1.6-46.5c-0.6,0-1.1,0-1.6,0c-27.2,0-49.3,20.8-49.3,46.5c0,25.7,22.1,46.5,49.3,46.5
		C254,209.3,259.3,208.5,264.3,206.9z"/>
	<path class="st9" d="M264.3,206.9c10.7-3.4,19.7-10.2,25.7-19l-41.5-25.1L264.3,206.9z"/>
	<path class="st10" d="M268,120.1c-5.5-2.3-11.5-3.6-17.8-3.7l-1.6,46.5L268,120.1z"/>
</g>
<linearGradient id="SVGID_3_" gradientUnits="userSpaceOnUse" x1="248.4688" y1="208.161" x2="248.4688" y2="90.7119">
	<stop  offset="0" style="stop-color:#4F2C7F"/>
	<stop  offset="1" style="stop-color:#D41C5C"/>
</linearGradient>
<path class="st11" d="M268,120.1c-5.5-2.3-11.5-3.6-17.8-3.7c-0.6,0-1.1,0-1.6,0c-27.2,0-49.3,20.8-49.3,46.5
	c0,25.7,22.1,46.5,49.3,46.5c5.5,0,10.9-0.9,15.8-2.5c10.7-3.4,19.7-10.2,25.7-19c5-7.2,7.8-15.9,7.8-25.1
	C297.8,143.6,285.5,127.2,268,120.1z"/>
<g>
	<path class="st0" d="M147.3,137.2c-0.8,0-1.5-0.3-2.1-0.8c-0.6-0.5-0.8-1.2-0.8-1.9c0-0.4,0.1-0.7,0.2-1.1c0.1-0.3,0.3-0.6,0.6-0.9
		c0.1-0.1,0.3-0.2,0.4-0.3c0.2-0.1,0.3-0.2,0.5-0.3c0.2-0.1,0.3-0.1,0.5-0.1c0.4-0.1,0.8-0.1,1.1,0c0.2,0,0.4,0.1,0.6,0.1
		c0.2,0.1,0.3,0.2,0.5,0.3c0.2,0.1,0.3,0.2,0.5,0.3c0.3,0.2,0.5,0.6,0.6,0.9c0.1,0.4,0.2,0.7,0.2,1.1c0,0.7-0.3,1.4-0.8,1.9
		C148.8,136.9,148.1,137.2,147.3,137.2z"/>
	<path class="st0" d="M144.4,155.5c0-1.5,1.3-2.7,2.9-2.7l0,0c1.6,0,2.9,1.2,2.9,2.7l0,0c0,1.5-1.3,2.7-2.9,2.7l0,0
		C145.7,158.2,144.4,157,144.4,155.5z M144.4,145c0-1.5,1.3-2.7,2.9-2.7l0,0c1.6,0,2.9,1.2,2.9,2.7l0,0c0,1.5-1.3,2.7-2.9,2.7l0,0
		C145.7,147.7,144.4,146.5,144.4,145z"/>
	<path class="st0" d="M147.3,168.8c-0.8,0-1.5-0.3-2.1-0.8c-0.3-0.2-0.5-0.6-0.6-0.9c-0.1-0.3-0.2-0.7-0.2-1c0-0.7,0.3-1.4,0.8-2
		c0.1-0.1,0.3-0.2,0.4-0.4c0.2-0.1,0.3-0.2,0.5-0.2c0.2-0.1,0.3-0.1,0.5-0.1c0.4-0.1,0.8-0.1,1.1,0c0.2,0,0.4,0.1,0.6,0.1
		c0.2,0.1,0.3,0.2,0.5,0.2c0.2,0.1,0.3,0.2,0.5,0.4c0.3,0.2,0.5,0.6,0.6,0.9c0.1,0.4,0.2,0.7,0.2,1.1c0,0.7-0.3,1.4-0.8,1.9
		C148.8,168.5,148.1,168.8,147.3,168.8z"/>
	<path class="st0" d="M176,166c0-1.5,1.3-2.7,2.9-2.7l0,0c1.6,0,2.9,1.2,2.9,2.7l0,0c0,1.5-1.3,2.7-2.9,2.7l0,0
		C177.4,168.8,176,167.6,176,166z M165.5,166c0-1.5,1.3-2.7,2.9-2.7l0,0c1.6,0,2.9,1.2,2.9,2.7l0,0c0,1.5-1.3,2.7-2.9,2.7l0,0
		C166.8,168.8,165.5,167.6,165.5,166z M155,166c0-1.5,1.3-2.7,2.9-2.7l0,0c1.6,0,2.9,1.2,2.9,2.7l0,0c0,1.5-1.3,2.7-2.9,2.7l0,0
		C156.2,168.8,155,167.6,155,166z"/>
	<path class="st0" d="M189.5,168.8c-0.8,0-1.5-0.3-2.1-0.8c-0.6-0.5-0.8-1.2-0.8-1.9c0-0.7,0.3-1.4,0.8-2c1.1-1,3-1,4.1,0
		c0.5,0.5,0.8,1.2,0.8,2c0,0.7-0.3,1.4-0.8,1.9C191,168.5,190.3,168.8,189.5,168.8z"/>
</g>
<rect x="82.8" y="185.2" class="st12" width="97.1" height="5.5"/>
<rect x="82.8" y="201.8" class="st12" width="97.1" height="5.5"/>
<rect x="82.8" y="217.6" class="st12" width="36.9" height="5.5"/>
<linearGradient id="SVGID_4_" gradientUnits="userSpaceOnUse" x1="117.8275" y1="260.3825" x2="176.7874" y2="260.3825">
	<stop  offset="0" style="stop-color:#4F2C7F"/>
	<stop  offset="1" style="stop-color:#D41C5C"/>
</linearGradient>
<path class="st13" d="M117.8,274.3c0-15.4,13.2-27.8,29.5-27.8c16.3,0,29.5,12.5,29.5,27.8"/>
<linearGradient id="SVGID_5_" gradientUnits="userSpaceOnUse" x1="83.0105" y1="25.0055" x2="211.6043" y2="25.0055">
	<stop  offset="0" style="stop-color:#4F2C7F"/>
	<stop  offset="1" style="stop-color:#D41C5C"/>
</linearGradient>
<rect x="83" y="22.3" class="st14" width="128.6" height="5.5"/>
</svg>
