<svg xmlns="http://www.w3.org/2000/svg" xmlns:xlink="http://www.w3.org/1999/xlink" width="454" height="350" viewBox="0 0 454 350"><defs><path id="83k3a" d="M797 1672v.94l15.07 8.49L886 1723v-10.94L797 1662z"/><path id="83k3b" d="M885.66 1712.8l106.43-61.4s9.4-6.02 23.1-13.35c9.63-5.14 17.14-9.86 29.26-6.72 6.08 1.6 18.96 9.09 18.96 9.09 18.77 10.78 100.38 56.09 100.38 56.09l1.63-.95 85.32-49.6s-143.4-78.72-158.03-87.07c-26.72-15.23-45.92-23.44-77.2-18.47-17.16 2.95-52.46 24.97-52.46 24.97l-33.24 19.14-132.71 76.61v.95z"/><path id="83k3c" d="M888.58 1801.22l.58-80.35-3.5 2.02-73.57-42.12v76.32z"/><path id="83k3d" d="M1160.11 1704.57l3.58 1.95 1.74-.98v-9.99l-1.64.95s-81.61-45.3-100.38-56.1c0 0-12.87-7.47-18.96-9.08-12.12-3.14-19.62 1.58-29.26 6.72a379.8 379.8 0 0 0-23.1 13.35l-106.43 61.4v11.1l3.51-2.03 7.95-4.6 94.97-54.79s9.4-5.99 23.1-13.32c9.64-5.14 17.14-9.89 29.26-6.72 6.09 1.58 18.96 9.06 18.96 9.06 2.83 1.63 7.05 4 12.21 6.87l7.97 4.4c21.48 11.87 52.1 28.53 68.55 37.47 3.3 1.78 6 3.26 7.97 4.34"/><path id="83k3e" d="M889.16 1721.86l-.58 80.36 7.96-4.55.57-80.41z"/><path id="83k3f" d="M1084.1 1734.36l-.17-24.77-.2-26.75-.15-20.07-7.96-4.41.56 80.5 8 4.56z"/><path id="83k3g" d="M1083.59 1662.77l.15 20.07 68.54 39.14-.14-21.75c-16.45-8.94-47.07-25.6-68.55-37.46"/><path id="83k3h" d="M1152.28 1721.98l-68.54-39.14.2 26.74 68.54 39.15z"/><path id="83k3i" d="M1092.26 1738.77l60.36 32.64-.15-22.68-68.54-39.14.17 24.77z"/><path id="83k3j" d="M1084.1 1734.36l.07 9.06 8.1-4.65z"/><path id="83k3k" d="M1160.67 1784.85l-.57-80.28c-1.97-1.08-4.68-2.56-7.97-4.34l.14 21.75.2 26.75.15 22.68.07 8.88z"/><path id="83k3l" d="M1160.11 1704.57l.56 80.29 76.51-44.14v-75.95l-71.75 40.78-1.74.97-3.58-1.95"/><path id="83k3m" d="M1250.73 1657.07v-11.11l-85.31 49.6v9.98l71.76-40.77z"/><path id="83k3n" d="M1164.16 1583.5a5.7 5.7 0 0 1 1.78 1.98 28.72 28.72 0 0 0-1.78-1.98"/><path id="83k3o" d="M1182.13 1598.59l-.26.06c-.3.05-.63.06-.96.12.43-.1.84-.16 1.22-.18"/><path id="83k3p" d="M1173.77 1597.52l.24.68-.06.24c-.05-.29-.1-.6-.18-.92"/><path id="83k3q" d="M1173.75 1597.47c-.29-.87-.53-1.78-.72-2.75.3.98.55 1.91.72 2.75"/><path id="83k3r" d="M1173.17 1608.47c.03.29.07.57.12.86a6.24 6.24 0 0 0-.22-.85l.1-.01"/><path id="83k3s" d="M1173.17 1608.47h-.1a6.6 6.6 0 0 0-.47-1.15l.38-.05c.07.4.12.8.2 1.2"/><path id="83k3t" d="M1173.8 1616.64h-.01c0 .78-.57 1.73-.33 2.34.31.96 2 1.29 2.57.24.21-.51-.04-1.03-.2-1.55-.07-1.4-.2-2.81-.31-4.2 4.83-.05 9.45 1.52 11.79 4.33.27.35.51.68.7 1.02-1.01 2.14-3.38 4.06-6.8 5.2-6.64 2.22-14.74.74-18.1-3.3a6.03 6.03 0 0 1-.7-1.03c1-2.14 3.37-4.04 6.8-5.2 1.46-.48 3-.79 4.53-.92.08 1.02.1 2.06.06 3.07"/><path id="83k3u" d="M1173.29 1609.35c.2 1.4.37 2.81.45 4.22-1.54.13-3.07.44-4.53.93-3.43 1.15-5.8 3.05-6.8 5.19-2.2-3.84.53-8.29 6.62-10.32 1.3-.44 2.67-.74 4.04-.89.09.27.16.56.22.85z"/><path id="83k3v" d="M1187.13 1612.67a5.5 5.5 0 0 1 .88 6.15 7.81 7.81 0 0 0-.7-1.02c-2.34-2.8-6.96-4.38-11.8-4.33-.14-1.72-.3-3.44-.38-5.13 4.9-.1 9.62 1.48 12 4.33"/><path id="83k3w" d="M1187.13 1612.67c-2.38-2.85-7.1-4.42-12-4.33l-.05-1.21c5.8-.15 11.38 1.7 14.18 5.06a6.55 6.55 0 0 1 1.55 5.7c-.68 3.06-3.7 5.94-8.46 7.54-7.76 2.6-17.22.86-21.14-3.86a7.37 7.37 0 0 1-1.6-3.26c-.73-3.91 2.48-7.97 8.52-9.98 1.45-.49 2.95-.82 4.48-1.02.2.37.34.78.47 1.17-1.38.15-2.74.45-4.04.89-6.09 2.03-8.83 6.48-6.63 10.32.19.34.43.69.7 1.02 3.36 4.05 11.46 5.53 18.1 3.31 3.42-1.14 5.8-3.06 6.8-5.2.96-2 .74-4.2-.88-6.15"/><path id="83k3x" d="M1186.79 1636.86c-.5 2.29-2.73 4.41-6.29 5.6-5.74 1.92-12.76.64-15.68-2.87a5.15 5.15 0 0 1-.97-1.65l-4.25-19.62c.22 1.1.74 2.21 1.6 3.26 3.93 4.71 13.4 6.45 21.14 3.85 4.78-1.6 7.78-4.47 8.47-7.54h.01z"/><path id="83k3y" d="M1169.2 1586.37c-.48-.7-1-1.36-1.53-1.92l.04-.05c-1.79-2.3-4.96-4.05-7.35-5.72-2.66-1.91-6.93-3.99-10.6-3.99-.67 0-1.31.08-1.93.22 0 0 2.64.64 2.88.72 1.29.48 2.74.8 4.02 1.37 2.26.96 4.02 2.8 6.03 4.25.77.54 2.2 1.33 3.38 2.24l.01.01a26.15 26.15 0 0 1 5.55 8.12c-2.55-3-5.12-4.59-9.1-5.07-5.14-.64-10.6-.97-14.62-4.65-2.73-2.58-5.47-8.2-.97-10.44 3.54-1.77 9-.16 12.54.64 4.17 1.12 8.35 2.57 10.28 6.74 1.1 2.33 1.25 5 1.37 7.53"/><path id="83k3z" d="M1145.82 1609.18c-2.57-2.56-1.29-7.22 1.12-9.63 4.07-3.88 14.77-4.31 18.64.52-1.2-.28-2.5-.42-3.86-.48v.05c-2.24.08-4.17 0-6.34.8-3.08 1.02-7.87 2.5-9.4 5.7 1.53-1.75 6.51-3.54 8.68-4.02 1.53-.32 3.05-.72 4.58-.96 1.04-.15 2.09.05 3.08-.13h.02c1.31.11 2.67.44 3.98.97-2.8-.22-6.06 1.64-8.13 3.02-3.21 2.24-8.19 8.34-12.37 4.16"/><path id="83k3A" d="M1198.03 1599.88c1.95 4.97-2.07 9.47-7.21 7.7-3.22-1.12-5-5.14-7.89-6.26-1.1-.32-3.07-.79-4.19-.33.72-.42 1.45-.73 2.1-.96l-.01-.02c2.3-.7 5.15-.61 7.46-.3 1.67.23 3.33.7 4.88 1.5.86.48 2.3 1.34 2.88 2.2a5.38 5.38 0 0 0-.95-1.5c-2.36-2.73-6.5-3.32-9.86-3.58-1.08-.1-2.12.07-3.11.26-.38.02-.8.08-1.22.18h-.03c-.14.02-.27.04-.4.09l-.04.01c-.4.1-.8.22-1.18.36 3.44-6.42 15.93-6.45 18.77.65"/><path id="83k3B" d="M1186.27 1584.3c-1.28.64-3.33 2.16-4.45 2.73-1.26.8-2.34 1.74-3.28 2.78.35-.96 1.07-1.55 1.5-2.3.8-1.76.8-3.69 1.46-5.46 1.92-4.97 6.26-7.06 11.24-8.35 3.7-.8 7.39-.96 10.77.97 3.85 2.24 6.9 5.14 3.04 9.15-1.92 2.1-5.45 3.05-8.02 4.02-3.22 1.12-6.75 2.4-9.97 3.04-3.85.61-7.17-.17-10.18 2.24.84-1.2 1.9-2.32 3.18-3.38.01-.01.04-.02.05-.05 1.2-.86 2.28-1.94 3.58-2.66 1.93-1.04 3.78-2.24 5.86-3.06 3.86-1.43 8.52-2.96 11.97-5.36-2.01 0-3.89.9-5.82 1.3-1.85.32-3.33 1.22-5.1 1.87a36.76 36.76 0 0 0-5.83 2.52"/><path id="83k3C" d="M1174.5 1584.1c.18-2.25.58-4.44 1.2-6.53l-.1-.04a29.29 29.29 0 0 0 1.39-10.96c-.17 2.4-1.12 5.13-1.68 7.45-.33 1.25-1.03 2.59-1.28 3.87v.03a33.1 33.1 0 0 0-1.39 7c-1.45-2.3-2.6-3.88-3.04-6.72-.65-4.18-.32-9.79 2.56-13.33 2.58-3.04 8.04-2.56 10.29.97 3.85 5.85-6.53 12.63-7.95 18.26"/><path id="83k3D" d="M1172.6 1607.32c-1.2-2.43-3.6-4.27-6.24-5.31h-.03a13.8 13.8 0 0 0-3.99-.97h-.02c-.99.17-2.03-.02-3.08.12-1.53.24-3.05.65-4.58.97-2.17.48-7.15 2.26-8.67 4.02 1.53-3.2 6.32-4.69 9.4-5.7 2.17-.8 4.1-.73 6.34-.8v-.05c1.36.05 2.65.2 3.85.48 2.84.63 5.22 1.98 7.03 4.68.11.83.25 1.67.38 2.52-.13 0-.25.03-.38.04"/><path id="83k3E" d="M1195.1 1601.91c.37.43.75.96.95 1.5-.58-.86-2.02-1.71-2.88-2.2a14.73 14.73 0 0 0-4.88-1.5c-2.3-.31-5.15-.4-7.46.3l.01.03c-.65.22-1.38.53-2.1.95l-.03.01c-1.48.84-2.94 2.04-3.66 3.48.01-.63.05-1.26.1-1.88v-.01c.65-1.54 2.33-2.7 4.1-3.36.39-.14.79-.26 1.19-.36l.05-.01.39-.09h.03c.33-.05.66-.07.95-.12l.27-.06c.99-.2 2.03-.36 3.11-.26 3.37.26 7.5.85 9.85 3.58"/><path id="83k3F" d="M1175.83 1617.67c.16.53.41 1.04.2 1.56-.57 1.05-2.26.71-2.57-.24-.24-.62.33-1.56.33-2.34.05-1.02.03-2.05-.05-3.07.6-.07 1.2-.1 1.78-.1.12 1.39.24 2.8.31 4.2"/><path id="83k3G" d="M1175.13 1608.35c.09 1.68.24 3.4.39 5.13-.59 0-1.19.03-1.78.1a50.36 50.36 0 0 0-.45-4.23v-.02c-.04-.29-.09-.57-.12-.86.65-.07 1.3-.1 1.96-.12"/><path id="83k3H" d="M1172.98 1607.27c.7-.08 1.4-.12 2.1-.14 0 .4.03.81.05 1.22-.65.01-1.31.04-1.96.12l-.19-1.2"/><path id="83k3I" d="M1203.03 1578.6c-3.46 2.4-8.12 3.93-11.98 5.37-2.08.81-3.93 2.02-5.86 3.06-1.3.71-2.37 1.8-3.58 2.66l-.05.05a17.32 17.32 0 0 0-3.18 3.37c-2.07 2.88-2.95 6.1-3.22 9.47v.02a41.77 41.77 0 0 0-.08 4.53c-.7.02-1.4.06-2.1.14l-.38-2.52c-.16-1.16-.32-2.3-.43-3.43a32.58 32.58 0 0 0-2.47-9.7 26.14 26.14 0 0 0-3.76-6.14c-.3-.7-.98-1.37-1.78-1.98l-.01-.01c-1.19-.92-2.61-1.7-3.38-2.25-2.02-1.44-3.78-3.29-6.03-4.24-1.28-.57-2.73-.9-4.02-1.38-.24-.07-2.88-.71-2.88-.71a8.56 8.56 0 0 1 1.92-.22c3.68 0 7.95 2.08 10.6 3.99 2.4 1.67 5.57 3.42 7.36 5.72l-.04.05c.53.56 1.05 1.22 1.53 1.92a31.78 31.78 0 0 1 3.82 8.34v.01a21.73 21.73 0 0 0 .74 2.8c.07.31.13.62.17.9l.07-.22c.34-1.1.74-2.17 1.19-3.2a19.25 19.25 0 0 1 3.34-5.2 16.54 16.54 0 0 1 3.28-2.77c1.12-.57 3.17-2.1 4.46-2.73a37.1 37.1 0 0 1 5.81-2.53c1.78-.65 3.26-1.55 5.12-1.87 1.92-.4 3.8-1.3 5.82-1.3"/><path id="83k3J" d="M1175.7 1577.57a31.69 31.69 0 0 0-1.2 6.53c-.31 3.63-.07 7.38.7 10.91a29.09 29.09 0 0 0-1.19 3.2c-.09-.23-.16-.46-.24-.7-.02 0-.02-.01-.02-.03-.17-.84-.41-1.77-.72-2.75v-.01c-.6-3.06-.7-6.5-.38-9.8.23-2.49.71-4.9 1.39-7v-.02c.25-1.29.94-2.63 1.27-3.87.56-2.32 1.52-5.05 1.68-7.46.16 3.85-.17 7.45-1.38 10.96z"/><path id="83k3K" d="M939.76 1622c.01 2.05.75 4.41 1.34 6.22l-31.22-15.94c1.07-1.53 1.95-3.2 2.85-4.89l27.04 14.18-.01.43"/><path id="83k3L" d="M940.16 1621.77l46.2-25.98c.62 1.08 1.9 4.01 2.65 5.56l-47.9 26.87c-.6-1.81-1.34-4.17-1.35-6.22z"/><path id="83k3M" d="M965.1 1583.94c6.8 3.7 21.44 11.75 21.44 11.75l-.18.1-46.2 25.98-.38-.2-27.05-14.18.2-.35v-.02c2.85-1.44 19.16-9.78 32.14-16.4a25.75 25.75 0 0 1-8.66 11.6l10.38 5.54.15-.1 12.5-7.53-.08-.1c3.25-4.8 4.93-10.35 5.75-16.09"/><path id="83k3N" d="M945.07 1590.6c1.85-4.82 2.5-10.36 2.58-16.6l5.12-2.88c.85 11.9 1.24 25.96-5.84 36.53l-.14.1-10.38-5.53a25.73 25.73 0 0 0 8.66-11.61"/><path id="83k3O" d="M965.1 1583.94c-.8 5.74-2.49 11.28-5.74 16.1l.07.1-12.49 7.52c7.08-10.57 6.68-24.63 5.83-36.53l12.56-7.06c.43 6.33.7 13.23-.22 19.87"/><path id="83k3P" d="M902.5 1527.42l85.33-48.96 11.6-3.44-90.49 51.55h-.01l-6.43.95z"/><path id="83k3Q" d="M902.5 1527.52l6.43-.95-1.48.85-.4 69.41-4.83-7.45z"/><path id="83k3R" d="M908.94 1526.57l90.49-51.55-.29 70.03-33.82 19.02-12.55 7.05-5.12 2.88-40.6 22.84.4-69.42 1.48-.85zm84.5 17.9l.24-60.75-79.76 45.47-.34 60.2z"/><path id="83k3S" d="M993.7 1483.72l-.25 60.74-79.87 44.92.35-60.2z"/><path id="83k3T" d="M979.63 1644.6l-2.94 1.7-1.95-1.36 2.93-1.7z"/><path id="83k3U" d="M972.08 1646.47l1.95 1.36-2.88 1.67-1.95-1.37z"/><path id="83k3V" d="M1030.51 1625.32l-59.17 34.08-.22-.13-.33-2.56.12.08 59.6-34.25z"/><path id="83k3W" d="M990.85 1641.46l3.25-1.87 3.1-1.78 2.86-1.66 2.66-1.53 2.97-1.72 3.08-1.78 2.9-1.66 2.64-1.53 2.32-1.33 3.08-1.78 2.86-1.67 2.67-1.53 2.13-1.23 3.15 2.15-59.6 34.24-.12-.08-2.85-2.02 2.73-1.57 3.1-1.79 2.88-1.66 2.65-1.53 2.93-1.7 3.08-1.76 2.89-1.68z"/><path id="83k3X" d="M1024.72 1618.56l2.65 1.83-2.14 1.23-2.61-1.84z"/><path id="83k3Y" d="M1022.63 1619.77l2.61 1.84-2.67 1.54-2.61-1.84z"/><path id="83k3Z" d="M1024.71 1618.56l-2.1 1.21-1.94-1.36 2.08-1.2z"/><path id="83k3aa" d="M1022.75 1617.22l-2.08 1.2-2.61-1.84 2.05-1.18z"/><path id="83k3ab" d="M1022.63 1619.77l-2.67 1.54-1.95-1.35 2.67-1.55z"/><path id="83k3ac" d="M1019.96 1621.31l2.61 1.84-2.86 1.67-2.63-1.85z"/><path id="83k3ad" d="M1020.67 1618.41l-2.67 1.55-2.61-1.85 2.67-1.53z"/><path id="83k3ae" d="M1020.1 1615.4l-2.04 1.18-2.05-1.44 2.04-1.16z"/><path id="83k3af" d="M1019.96 1621.3l-2.88 1.67-1.93-1.37 2.86-1.65z"/><path id="83k3ag" d="M1017.07 1622.97l2.63 1.85-3.08 1.78-2.63-1.85z"/><path id="83k3ah" d="M1018.05 1616.58l-2.66 1.53-2.03-1.43 2.65-1.53z"/><path id="83k3ai" d="M1015.4 1612.15l2.65 1.83-2.04 1.17-2.61-1.83z"/><path id="83k3aj" d="M1015.4 1618.11l2.6 1.85-2.86 1.65-2.63-1.84z"/><path id="83k3ak" d="M1017.08 1622.97l-3.08 1.78-1.95-1.35 3.1-1.79z"/><path id="83k3al" d="M1016.63 1626.6l-2.32 1.33-2.63-1.84 2.31-1.34z"/><path id="83k3am" d="M1016.01 1615.14l-2.65 1.53-2.63-1.83 2.67-1.53z"/><path id="83k3an" d="M1015.39 1612.15l-2 1.17-2.03-1.42 1.98-1.15z"/><path id="83k3ao" d="M1015.4 1618.11l-2.89 1.66-2.03-1.43 2.89-1.66z"/><path id="83k3ap" d="M1015.14 1621.6l-3.1 1.8-2.61-1.85 3.08-1.78z"/><path id="83k3aq" d="M1014.31 1627.92l-2.65 1.54-2.63-1.85 2.65-1.53z"/><path id="83k3ar" d="M1014 1624.75l-2.32 1.33-1.93-1.34 2.3-1.34z"/><path id="83k3as" d="M1013.4 1613.32l-2.67 1.53-2.01-1.41 2.65-1.53z"/><path id="83k3at" d="M1013.36 1616.68l-2.88 1.67-2.63-1.84 2.88-1.66z"/><path id="83k3au" d="M1013.35 1610.76l-1.98 1.15-2.62-1.86 1.95-1.11z"/><path id="83k3av" d="M1012.5 1619.77l-3.07 1.78-2.05-1.43 3.1-1.78z"/><path id="83k3aw" d="M1009.43 1621.55l2.62 1.85-2.3 1.33-2.63-1.85z"/><path id="83k3ax" d="M1011.68 1626.09l-2.65 1.52-1.95-1.34 2.67-1.53z"/><path id="83k3ay" d="M1011.66 1629.46l-2.9 1.66-2.61-1.85 2.88-1.66z"/><path id="83k3az" d="M1008.75 1610.05l2.62 1.85-2.65 1.53-2.63-1.85z"/><path id="83k3aA" d="M1010.73 1614.84l-2.88 1.67-2.02-1.42 2.89-1.66z"/><path id="83k3aB" d="M1010.7 1608.94l-1.96 1.11-2.23-1.55 1.93-1.11z"/><path id="83k3aC" d="M1010.48 1618.34l-3.1 1.78-2.61-1.83 3.08-1.78z"/><path id="83k3aD" d="M1009.75 1624.73l-2.67 1.53-2.61-1.85 2.65-1.53z"/><path id="83k3aE" d="M1009.43 1621.55l-2.31 1.33-2.03-1.43 2.3-1.33z"/><path id="83k3aF" d="M1009.03 1627.6l-2.88 1.67-1.95-1.35 2.88-1.66z"/><path id="83k3aG" d="M1006.15 1629.27l2.61 1.85-3.08 1.78-2.63-1.83z"/><path id="83k3aH" d="M1008.75 1610.05l-2.66 1.54-2.22-1.55 2.65-1.53z"/><path id="83k3aI" d="M1008.72 1613.44l-2.89 1.66-2.63-1.85 2.89-1.66z"/><path id="83k3aJ" d="M1008.44 1607.4l-1.93 1.1-2.61-1.84 1.88-1.08z"/><path id="83k3aK" d="M1005.83 1615.1l2.01 1.41-3.08 1.79-2.03-1.42z"/><path id="83k3aL" d="M1007.38 1620.12l-2.3 1.33-2.63-1.83 2.31-1.33z"/><path id="83k3aM" d="M1007.12 1622.88l-2.65 1.53-2.03-1.43 2.65-1.53z"/><path id="83k3aN" d="M1004.47 1624.41l2.62 1.85-2.89 1.66-2.61-1.84z"/><path id="83k3aO" d="M1003.9 1606.66l2.62 1.85-2.65 1.53-2.63-1.85z"/><path id="83k3aP" d="M1006.15 1629.28l-3.1 1.8-1.93-1.37 3.08-1.78z"/><path id="83k3aQ" d="M1006.09 1611.59l-2.88 1.66-2.22-1.55 2.88-1.66z"/><path id="83k3aR" d="M1005.83 1615.1l-3.1 1.78-2.61-1.85 3.08-1.78z"/><path id="83k3aS" d="M995.27 1611.65l-2.29 1.32-2.65 1.53-1.15-.79 15.46-8.93 1.14.8-1.88 1.08-2.66 1.53-2.88 1.66z"/><path id="83k3aT" d="M1005.68 1632.9l-2.96 1.72-2.62-1.85 2.95-1.7z"/><path id="83k3aU" d="M1005.09 1621.45l-2.65 1.53-2.63-1.83 2.64-1.53z"/><path id="83k3aV" d="M1004.77 1618.3l-2.32 1.32-2.01-1.41 2.3-1.33z"/><path id="83k3aW" d="M1004.47 1624.41l-2.88 1.67-2.05-1.43 2.9-1.67z"/><path id="83k3aX" d="M1001.59 1626.08l2.61 1.84-3.08 1.79-2.63-1.85z"/><path id="83k3aY" d="M1003.87 1610.04l-2.88 1.66-2.63-1.85 2.88-1.66z"/><path id="83k3aZ" d="M1003.2 1613.25l-3.08 1.78-2.23-1.55 3.1-1.78z"/><path id="83k3ba" d="M1001.12 1629.71l1.93 1.36-2.95 1.7-1.95-1.35z"/><path id="83k3bb" d="M1000.13 1615.03l2.6 1.84-2.29 1.34-2.63-1.85z"/><path id="83k3bc" d="M1000.1 1632.77l2.62 1.85-2.67 1.53-2.61-1.83z"/><path id="83k3bd" d="M1000.44 1618.21l2 1.41-2.63 1.53-2.02-1.41z"/><path id="83k3be" d="M1002.44 1622.98l-2.9 1.67-2.61-1.83 2.88-1.67z"/><path id="83k3bf" d="M1001.6 1626.08l-3.1 1.78-2.04-1.43 3.09-1.78z"/><path id="83k3bg" d="M1001.11 1629.7l-2.96 1.72-2.63-1.85 2.97-1.71z"/><path id="83k3bh" d="M1000.98 1611.7l-3.1 1.78-2.61-1.83 3.09-1.8z"/><path id="83k3bi" d="M997.8 1616.36l2.64 1.85-2.65 1.53-2.63-1.85z"/><path id="83k3bj" d="M1000.12 1615.03l-2.32 1.33-2.21-1.55 2.3-1.33z"/><path id="83k3bk" d="M1000.1 1632.77l-2.66 1.55-1.95-1.37 2.66-1.53z"/><path id="83k3bl" d="M1000.06 1636.15l-2.87 1.67-2.63-1.85 2.88-1.65z"/><path id="83k3bm" d="M997.79 1619.74l2.02 1.42-2.88 1.66-2.04-1.41z"/><path id="83k3bn" d="M999.54 1624.65l-3.09 1.78-2.63-1.83 3.1-1.78z"/><path id="83k3bo" d="M998.49 1627.86l-2.97 1.72-2.03-1.43 2.96-1.72z"/><path id="83k3bp" d="M995.53 1629.58l2.62 1.84-2.66 1.54-2.61-1.85z"/><path id="83k3bq" d="M995.27 1611.65l2.62 1.83-2.3 1.33-2.61-1.85z"/><path id="83k3br" d="M997.8 1616.36l-2.64 1.54-2.22-1.55 2.65-1.53z"/><path id="83k3bs" d="M997.8 1619.74l-2.9 1.67-2.62-1.85 2.89-1.66z"/><path id="83k3bt" d="M997.44 1634.31l-2.88 1.65-1.93-1.36 2.86-1.65z"/><path id="83k3bu" d="M994.57 1635.97l2.62 1.85-3.1 1.78-2.61-1.85z"/><path id="83k3bv" d="M996.93 1622.82l-3.1 1.78-2.01-1.42 3.08-1.78z"/><path id="83k3bw" d="M996.45 1626.43l-2.96 1.72-2.63-1.83 2.96-1.72z"/><path id="83k3bx" d="M992.98 1612.97l2.62 1.85-2.65 1.53-2.62-1.85z"/><path id="83k3by" d="M995.52 1629.57l-2.64 1.53-2.05-1.41 2.66-1.55z"/><path id="83k3bz" d="M992.88 1631.11l2.62 1.85-2.87 1.65-2.63-1.84z"/><path id="83k3bA" d="M995.16 1617.9l-2.88 1.66-2.22-1.54 2.88-1.67z"/><path id="83k3bB" d="M992.28 1619.56l2.61 1.85-3.07 1.78-2.62-1.85z"/><path id="83k3bC" d="M994.57 1635.97l-3.09 1.77-1.95-1.34 3.1-1.8z"/><path id="83k3bD" d="M991.48 1637.74l2.61 1.85-3.25 1.86-2.61-1.83z"/><path id="83k3bE" d="M991.82 1623.19l2 1.41-2.96 1.72-2.01-1.42z"/><path id="83k3bF" d="M993.5 1628.14l-2.67 1.55-2.61-1.85 2.65-1.53z"/><path id="83k3bG" d="M990.33 1614.5l2.62 1.85-2.88 1.67-2.63-1.86z"/><path id="83k3bH" d="M992.88 1631.1l-2.88 1.67-2.03-1.43 2.86-1.65z"/><path id="83k3bI" d="M992.63 1634.6l-3.1 1.8-2.61-1.85 3.08-1.78z"/><path id="83k3bJ" d="M992.28 1619.55l-3.08 1.79-2.24-1.55 3.1-1.78z"/><path id="83k3bK" d="M989.2 1621.34l2.62 1.85-2.97 1.71-2.63-1.85z"/><path id="83k3bL" d="M991.48 1637.75l-3.25 1.88-1.95-1.37 3.24-1.86z"/><path id="83k3bM" d="M988.85 1624.9l2.01 1.41-2.65 1.54-2.03-1.42z"/><path id="83k3bN" d="M990.85 1641.45l-2.64 1.53-2.62-1.83 2.65-1.53z"/><path id="83k3bO" d="M988.22 1627.85l2.61 1.84-2.86 1.65-2.63-1.83z"/><path id="83k3bP" d="M987.44 1616.16l-3.09 1.8-2.98 1.71-1.11-.8 8.92-5.15 1.15.78z"/><path id="83k3bQ" d="M990.06 1618.01l-3.1 1.78-2.61-1.83 3.09-1.8z"/><path id="83k3bR" d="M990 1632.77l-3.08 1.78-2.05-1.43 3.1-1.78z"/><path id="83k3bS" d="M986.92 1634.55l2.6 1.84-3.24 1.87-2.61-1.83z"/><path id="83k3bT" d="M989.2 1621.34l-2.98 1.71-2.22-1.54 2.96-1.72z"/><path id="83k3bU" d="M988.85 1624.9l-2.66 1.53-2.62-1.85 2.65-1.53z"/><path id="83k3bV" d="M988.23 1639.62l-2.64 1.54-1.95-1.37 2.65-1.53z"/><path id="83k3bW" d="M988.22 1627.85l-2.88 1.66-2.02-1.43 2.87-1.65z"/><path id="83k3bX" d="M988.2 1642.98l-2.88 1.68-2.62-1.84 2.88-1.67z"/><path id="83k3bY" d="M987.97 1631.34l-3.1 1.78-2.63-1.83 3.1-1.78z"/><path id="83k3bZ" d="M984.35 1617.96l2.61 1.83-2.96 1.72-2.63-1.84z"/><path id="83k3ca" d="M986.92 1634.55l-3.25 1.88-2.05-1.43 3.25-1.88z"/><path id="83k3cb" d="M986.28 1638.26l-2.65 1.53-2.61-1.83 2.65-1.53z"/><path id="83k3cc" d="M986.21 1623.05l-2.65 1.54-2.21-1.55 2.65-1.53z"/><path id="83k3cd" d="M983.56 1624.58l2.62 1.85-2.87 1.65-2.63-1.84z"/><path id="83k3ce" d="M985.59 1641.15l-2.88 1.67-1.95-1.37 2.88-1.66z"/><path id="83k3cf" d="M983.31 1628.08l2.02 1.43-3.1 1.78-2.01-1.42z"/><path id="83k3cg" d="M982.7 1642.82l2.62 1.85-3.08 1.76-2.61-1.83z"/><path id="83k3ch" d="M984.87 1633.12l-3.25 1.88-2.61-1.85 3.23-1.86z"/><path id="83k3ci" d="M984 1621.5l-2.65 1.54-2.63-1.84 2.65-1.53z"/><path id="83k3cj" d="M983.66 1636.43l-2.64 1.53-2.05-1.43 2.65-1.53z"/><path id="83k3ck" d="M983.64 1639.8l-2.88 1.66-2.63-1.83 2.9-1.67z"/><path id="83k3cl" d="M983.56 1624.58l-2.88 1.67-2.21-1.55 2.88-1.66z"/><path id="83k3cm" d="M983.32 1628.08l-3.1 1.8-2.63-1.85 3.1-1.78z"/><path id="83k3cn" d="M982.71 1642.82l-3.08 1.78-1.95-1.36 3.08-1.78z"/><path id="83k3co" d="M980.22 1629.87l2.01 1.42-3.23 1.86-2.03-1.41z"/><path id="83k3cp" d="M982.24 1646.43l-2.93 1.7-2.62-1.83 2.94-1.7z"/><path id="83k3cq" d="M979 1633.15l2.62 1.85-2.64 1.53-2.62-1.85z"/><path id="83k3cr" d="M980.26 1618.87l1.1.8-2.64 1.54-1.13-.8z"/><path id="83k3cs" d="M981.36 1623.03l-2.88 1.67-2.62-1.85 2.87-1.65z"/><path id="83k3ct" d="M981.02 1637.96l-2.9 1.67-2.03-1.44 2.88-1.66z"/><path id="83k3cu" d="M980.75 1641.45l-3.08 1.79-2.61-1.84 3.06-1.78z"/><path id="83k3cv" d="M978.47 1624.7l2.2 1.55-3.08 1.78-2.22-1.55z"/><path id="83k3cw" d="M980.23 1629.87l-3.26 1.87-2.61-1.83 3.23-1.88z"/><path id="83k3cx" d="M979.3 1648.13l-2.65 1.53-2.63-1.83 2.66-1.53z"/><path id="83k3cy" d="M979 1633.15l-2.64 1.53-2.04-1.41 2.65-1.53z"/><path id="83k3cz" d="M976.36 1634.68l2.61 1.85-2.88 1.66-2.63-1.85z"/><path id="83k3cA" d="M975.86 1622.86l-3.1 1.8-3.23 1.86-2.67 1.53-2.87 1.66-3.09 1.78-2.92 1.7-2.67 1.53-2.86 1.66-3.1 1.79-2.62 1.5-1.11-.77 31.97-18.49 1.13.8z"/><path id="83k3cB" d="M975.86 1622.85l2.61 1.85-3.1 1.78-2.61-1.83z"/><path id="83k3cC" d="M976.09 1638.2l2.03 1.43-3.06 1.78-2.05-1.43z"/><path id="83k3cD" d="M977.67 1643.24l-2.93 1.69-2.63-1.85 2.95-1.68z"/><path id="83k3cE" d="M977.59 1628.03l-3.23 1.88-2.22-1.55 3.23-1.88z"/><path id="83k3cF" d="M976.98 1631.74l-2.66 1.53-2.61-1.83 2.65-1.53z"/><path id="83k3cG" d="M976.68 1646.3l-2.66 1.53-1.95-1.37 2.67-1.53z"/><path id="83k3cH" d="M976.66 1649.66l-2.88 1.66-2.63-1.82 2.88-1.67z"/><path id="83k3cI" d="M976.35 1634.68l-2.9 1.67-2.01-1.41 2.88-1.67z"/><path id="83k3cJ" d="M976.1 1638.2l-3.08 1.77-2.62-1.84 3.07-1.78z"/><path id="83k3cK" d="M975.37 1626.48l-3.23 1.88-2.61-1.85 3.23-1.86z"/><path id="83k3cL" d="M975.06 1641.4l-2.94 1.69-2.04-1.44 2.93-1.68z"/><path id="83k3cM" d="M974.74 1644.93l-2.67 1.54-2.61-1.83 2.65-1.55z"/><path id="83k3cN" d="M972.15 1628.36l2.21 1.55-2.65 1.53-2.21-1.55z"/><path id="83k3cO" d="M974.33 1633.27l-2.88 1.67-2.63-1.84 2.9-1.66z"/><path id="83k3cP" d="M973.77 1651.32l-3.1 1.78-2.61-1.83 3.08-1.78z"/><path id="83k3cQ" d="M973.46 1636.35l-3.06 1.78-2.03-1.41 3.08-1.78z"/><path id="83k3cR" d="M970.4 1638.13l2.61 1.84-2.93 1.69-2.63-1.83z"/><path id="83k3cS" d="M969.53 1626.51l2.61 1.85-2.65 1.53-2.63-1.85z"/><path id="83k3cT" d="M972.1 1643.1l-2.64 1.54-2.05-1.43 2.66-1.55z"/><path id="83k3cU" d="M969.46 1644.64l2.61 1.83-2.88 1.67-2.61-1.85z"/><path id="83k3cV" d="M971.7 1631.44l-2.89 1.66-2.2-1.55 2.88-1.66z"/><path id="83k3cW" d="M971.45 1634.93l-3.08 1.78-2.62-1.83 3.07-1.78z"/><path id="83k3cX" d="M969.2 1648.13l1.94 1.36-3.08 1.79-1.95-1.37z"/><path id="83k3cY" d="M971.13 1659.27l-5.5-3.25 2.32-1.33 2.84 2.01z"/><path id="83k3cZ" d="M970.67 1653.1l-2.73 1.59-2.61-1.85 2.73-1.56z"/><path id="83k3da" d="M970.4 1638.13l-2.95 1.7-2.02-1.42 2.93-1.7z"/><path id="83k3db" d="M970.08 1641.66l-2.67 1.55-2.61-1.85 2.65-1.53z"/><path id="83k3dc" d="M966.87 1628.04l2.63 1.85-2.88 1.66-2.63-1.85z"/><path id="83k3dd" d="M967.41 1643.21l2.05 1.43-2.88 1.65-2.05-1.43z"/><path id="83k3de" d="M966.58 1646.28l2.61 1.85-3.08 1.78-2.63-1.83z"/><path id="83k3df" d="M966.62 1631.56l2.2 1.54-3.07 1.79-2.21-1.57z"/><path id="83k3dg" d="M968.36 1636.7l-2.93 1.7-2.63-1.84 2.95-1.68z"/><path id="83k3dh" d="M968.06 1651.28l-2.73 1.56-1.93-1.37 2.7-1.56z"/><path id="83k3di" d="M965.33 1652.84l2.61 1.84-2.31 1.34-4.98-2.95 2.75-1.6z"/><path id="83k3dj" d="M965.43 1638.41l2.02 1.42-2.65 1.53-2.03-1.42z"/><path id="83k3dk" d="M964.8 1641.36l2.62 1.85-2.89 1.64-2.61-1.83z"/><path id="83k3dl" d="M963.98 1629.71l2.63 1.85-3.08 1.76-2.63-1.83z"/><path id="83k3dm" d="M966.58 1646.28l-3.1 1.8-2.03-1.43 3.08-1.8z"/><path id="83k3dn" d="M966.1 1649.9l-2.7 1.57-2.6-1.85 2.68-1.54z"/><path id="83k3do" d="M963.54 1633.32l2.2 1.56-2.94 1.69-2.19-1.56z"/><path id="83k3dp" d="M965.43 1638.41l-2.67 1.54-2.61-1.83 2.65-1.55z"/><path id="83k3dq" d="M964.8 1641.35l-2.88 1.67-2.03-1.42 2.88-1.66z"/><path id="83k3dr" d="M964.53 1644.85l-3.08 1.8-2.63-1.85 3.1-1.78z"/><path id="83k3ds" d="M963.53 1633.32l-2.93 1.7-2.63-1.83 2.93-1.7z"/><path id="83k3dt" d="M961.45 1646.65l2.03 1.43-2.68 1.55-2.05-1.43z"/><path id="83k3du" d="M960.8 1649.62l2.6 1.85-2.74 1.6-15.04-8.9v-5.28l1.12.78 2.6 1.85 2.19 1.55 2.62 1.84 2.01 1.43 2.6 1.85z"/><path id="83k3dv" d="M962.8 1636.57l-2.64 1.55-2.22-1.55 2.67-1.55z"/><path id="83k3dw" d="M962.77 1639.95l-2.88 1.66-2.62-1.84 2.88-1.65z"/><path id="83k3dx" d="M961.92 1643.02l-3.1 1.78-2.03-1.41 3.1-1.78z"/><path id="83k3dy" d="M961.45 1646.65l-2.7 1.54-2.59-1.84 2.66-1.55z"/><path id="83k3dz" d="M960.61 1635.02l-2.67 1.55-2.63-1.85 2.67-1.53z"/><path id="83k3dA" d="M960.16 1638.12l-2.88 1.64-2.22-1.55 2.88-1.64z"/><path id="83k3dB" d="M957.27 1639.76l2.61 1.84-3.1 1.79-2.61-1.84z"/><path id="83k3dC" d="M958.82 1644.8l-2.67 1.55-2.01-1.43 2.65-1.53z"/><path id="83k3dD" d="M955.3 1634.72l2.64 1.85-2.89 1.65-2.61-1.84z"/><path id="83k3dE" d="M957.28 1639.76l-3.1 1.8-2.22-1.55 3.1-1.8z"/><path id="83k3dF" d="M954.18 1641.56l2.61 1.83-2.64 1.53-2.62-1.85z"/><path id="83k3dG" d="M955.06 1638.21l-3.1 1.8-2.61-1.85 3.1-1.78z"/><path id="83k3dH" d="M951.96 1640.01l2.22 1.55-2.65 1.5-2.2-1.53z"/><path id="83k3dI" d="M949.35 1638.16l2.61 1.85-2.63 1.51-2.59-1.84z"/><path id="83k3dJ" d="M923.01 1694.44v.98l.86-.49-.09-.08-.04-.02c-.2-.12-.59-.3-.73-.39"/><path id="83k3dK" d="M884.61 1669.48c-.08.14-.17.28-.22.42.1.27.5.52.76.5a3.46 3.46 0 0 1 2.33-1.95 2.22 2.22 0 0 1 1.83.34c.42.3.73.72.94 1.23l1.15.64v-.01a3.94 3.94 0 0 0-1.54-2.86c-1.08-.75-2.45-.68-3.64.05-.6.38-1.16.93-1.6 1.64"/><path id="83k3dL" d="M890.32 1672.58c-.11.17-.22.37-.31.56.04.37.45.48.78.49a3.57 3.57 0 0 1 2.23-2.05c.68-.2 1.4-.12 2 .3.37.27.81.76.94 1.37.38.22.77.44 1.17.65a4 4 0 0 0-1.56-3.02c-1.1-.75-2.47-.68-3.66.08-.6.37-1.15.92-1.59 1.62"/><path id="83k3dM" d="M919.23 1689.95c-.33 0-.71-.2-.77-.54a4.97 4.97 0 0 1 1.96-2.3c-.18-.09-.35-.2-.53-.3-.38-.2-.76-.43-1.18-.66l-2.75-1.56c-.8.17-1.61.74-2.17 1.64-.1.15-.18.3-.26.46v.01c-.25.07-.75-.16-.8-.42a5.03 5.03 0 0 1 2.07-2.35l-.51-.3-1.09-.61-3.14-1.78c-.71.23-1.38.77-1.88 1.56-.12.2-.24.41-.33.64v.01c-.3 0-.7-.16-.81-.43l.02-.01a4.96 4.96 0 0 1 1.92-2.37l-.41-.25c-.39-.2-.76-.42-1.13-.63a487.4 487.4 0 0 0-2.96-1.67c-.76.19-1.5.74-2 1.58-.11.17-.2.33-.28.52v-.01c-.28.08-.76-.16-.77-.48v-.02c.1-.2.2-.41.32-.6.45-.7 1-1.26 1.6-1.63l-.5-.29-1.07-.61-3.18-1.8a3.6 3.6 0 0 0-1.86 1.54l-.3.56c-.29.07-.77-.19-.78-.48l.37-.68c.42-.66.92-1.18 1.5-1.55a4.57 4.57 0 0 1-.41-.24 732.15 732.15 0 0 0-4.11-2.32c-.75.22-1.47.76-1.97 1.58-.1.15-.2.3-.26.47-.32-.01-.74-.13-.77-.5a4.98 4.98 0 0 1 1.9-2.18 9.4 9.4 0 0 1-.5-.29c-.42-.22-.8-.44-1.16-.64l-2.77-1.57a3.44 3.44 0 0 0-2.33 1.95c-.25.02-.66-.23-.76-.5a5.12 5.12 0 0 1 1.84-2.06l-.02-.01-26.88 14.1a.86.86 0 0 0-.19.13l38.18 22.03 26.4-15.07-.1-.1a.73.73 0 0 1-.1-.05l-1.96-1.12c-.77.2-1.51.77-2.04 1.62-.1.16-.21.36-.3.56z"/><path id="83k3dN" d="M904.48 1678.09a2.3 2.3 0 0 1 1.98.3c.45.32.78.8.98 1.37.37.21.74.43 1.13.63a4.06 4.06 0 0 0-1.57-3c-1.08-.76-2.45-.69-3.65.05-.6.38-1.15.93-1.6 1.64-.12.19-.22.4-.32.6v.02c0 .32.49.56.77.48.08-.18.16-.34.27-.51a3.42 3.42 0 0 1 2.01-1.58"/><path id="83k3dO" d="M859.77 1684.9l37.31 21.53.96-.54 24.97-14.25.51-.29s.87-1.63.2-2.33l-26.4 15.07-38.18-22.03c-.94.71-.27 2.32-.27 2.32z"/><path id="83k3dP" d="M923.02 1695.42l-25.42 14.48-.14.09L859.4 1688l-.12-.06c-.94.71-.27 2.33-.27 2.33l38.21 22.05 26.45-15.1s.85-1.6.2-2.3z"/><path id="83k3dQ" d="M859.53 1687.79a1.6 1.6 0 0 1-.13.22l38.05 21.98.15-.09-.09-.16c.96-1.03.84-2.55.53-3.84l-.95.54-37.32-21.53c.2.87.13 2.14-.24 2.88"/><path id="83k3dR" d="M898.6 1674.75c.72-.25 1.5-.2 2.12.26.52.35.87.9 1.05 1.54l1.07.62a4.09 4.09 0 0 0-1.56-3.17c-1.12-.78-2.55-.67-3.75.14a5.04 5.04 0 0 0-1.87 2.23c.01.3.5.55.79.48.09-.19.19-.39.29-.56a3.6 3.6 0 0 1 1.86-1.54"/><path id="83k3dS" d="M897.51 1709.74l.09.16 25.41-14.48V1691.65l-24.97 14.25c.31 1.28.43 2.8-.53 3.84"/><path id="83k3dT" d="M908.98 1680.64a5 5 0 0 0-1.92 2.37l-.02.01c.12.28.52.44.81.44v-.02c.1-.23.2-.44.34-.64a3.53 3.53 0 0 1 1.88-1.55 2.28 2.28 0 0 1 2.1.26c.5.34.86.88 1.03 1.51l1.09.62a4.03 4.03 0 0 0-1.57-3.14c-1.12-.76-2.53-.67-3.74.14"/><path id="83k3dU" d="M914.79 1683.93a5 5 0 0 0-2.07 2.35c.06.27.56.5.8.43v-.01c.09-.16.17-.32.27-.47a3.52 3.52 0 0 1 2.17-1.64 2.32 2.32 0 0 1 1.82.34c.42.3.74.72.93 1.22l1.17.67a3.95 3.95 0 0 0-1.54-2.88c-1.05-.74-2.39-.7-3.55-.01"/><path id="83k3dV" d="M920.42 1687.12a5 5 0 0 0-1.62 1.64c-.13.21-.23.43-.34.65.06.34.44.54.77.54v-.02c.08-.2.18-.4.3-.57a3.57 3.57 0 0 1 2.03-1.6c.68-.2 1.38-.1 1.96.3 1.27.9 1.6 3.02.63 4.79-.3.56-.7 1-1.14 1.33v.26l.73.38.04.02v-.02c.44-.4.82-.88 1.13-1.45 1.27-2.34.85-5.13-.84-6.31-1.08-.75-2.46-.68-3.65.06"/><path id="83k3dW" d="M891.47 1658.68c-1.54.9-1.3 2.44.54 3.47l22.92 12.7c1.85 1.02 4.58 1.12 6.12.22l13.42-7.82c1.53-.9 1.3-2.44-.54-3.46l-22.93-12.7c-1.83-1.03-4.57-1.12-6.1-.22z"/><path id="83k3dX" d="M888.75 1664.83l25.83 14.33c2.08 1.14 5.15 1.26 6.9.24l15.11-8.8c1.2-.7 2.3-4.07 1.66-5.06.32.83 0 1.67-1.03 2.25l-15.11 8.82c-1.74 1-4.81.9-6.89-.25l-25.83-14.32c-1.47-.81-2.04-1.92-1.62-2.86-1.28 1.59-.9 4.62.98 5.65"/><path id="83k3dY" d="M891.47 1658.68c-1.54.9-1.3 2.45.54 3.47l22.92 12.7c1.84 1.02 4.57 1.13 6.1.23l13.43-7.82c1.53-.9 1.29-2.45-.55-3.47L911 1651.1c-1.83-1.03-4.57-1.12-6.1-.22zm45.15 5.22c.85.47 1.4 1.04 1.62 1.63v.02c.32.83 0 1.66-1.02 2.25l-15.12 8.82c-1.74 1-4.81.9-6.89-.25l-25.83-14.32c-1.47-.82-2.03-1.93-1.62-2.87.18-.39.5-.75 1.01-1.04l15.12-8.8c1.73-1.02 4.81-.9 6.89.23z"/><path id="83k3dZ" d="M1122.64 1790.86a5.07 5.07 0 1 1-8.87-3.36c.08-.06.14-.15.2-.2l6.7-.46a5.06 5.06 0 0 1 1.97 4.02"/><path id="83k3ea" d="M1113.38 1787.33c-3.54-1.5-7.44-2.8-10.36-3.12-4.7-.49-13.86-.49-19.05.75a37.79 37.79 0 0 0-4.75-3.22c19.45-5.71 36.5 2.29 41.87 5.06l-.43.04-6.7.45z"/><path id="83k3eb" d="M1026.57 1785.79a5.08 5.08 0 1 1-9.55 2.36c0-1.3.5-2.5 1.32-3.39l8.08.71c.05.1.11.21.15.32"/><path id="83k3ec" d="M1021.92 1783.08c17.02-5.34 35.78-3.3 40.03-2.26a51.33 51.33 0 0 0-6.1 3.7c-5.23-1.27-11.86-.78-17.1-.11-3.53.34-7.34.66-11.06 1.2l-1.27-.14-8.07-.72-.89-.07c.59-.22 1.14-.47 1.7-.65.9-.36 1.83-.66 2.76-.95"/><path id="83k3ed" d="M1031.76 1717.19c.37 1.65.82 3.46 1.54 4.78l10.13 4.8c.39 4.34 1.34 8.64 1.86 12.96a296.08 296.08 0 0 1 .72 6.32l.56 5.01c.38 3.13.46 10 .02 10.12-8.43 2.96-24.77-3.19-25.47-12.42-.03-.54-4.78-49.31-5.45-56.68-.36-3.82.93-9.44 2.25-13.3l.24-.7 2.2.63c-.02.07-.02.13-.02.19-.02.22-.02.43.03.65.02 2.1.37 6.57 2.2 7.36l15.4 6.74 3.49 1.5c.29 2.31.87 4.8 1.65 7.38-2.92-.4-11.03-2.2-13.32-4.3l-1.55.88s-4.06.67-3.74 7.13c.3 6.48 2.96 8.96 2.96 8.96z"/><path id="83k3ee" d="M1021.13 1748.76c.62 8.35 17.85 15.1 25.46 12.42.1.69.23 1.38.36 2.11l-.22.04c-4.88 7.24-33.43-6.3-33.43-6.3-3.28-1.62-6.64-4.03-5.38-7.62l-.15-.18c4.03-3.1 9.35-.47 13.26-2.14.02.62.06 1.19.1 1.67"/><path id="83k3ef" d="M1007.92 1749.41c-1.25 3.6 2.1 6 5.38 7.62 0 0 28.56 13.54 33.43 6.3l.22-.04c.29 1.44.24 4.4.24 4.4-1.72 3.13-5.97 3.33-12.97 1.48-1.4-3.01-6.92-5.3-6.92-2.02-6.07-2.3-14.46-6.12-18.2-8.64-3.2-4.85-1.54-9.1-1.33-9.28z"/><path id="83k3eg" d="M1097.05 1817.52a7.87 7.87 0 0 0-.25-.21c.07 0 .13-.01.18-.04.04.1.06.17.07.25"/><path id="83k3eh" d="M1097.06 1817.52a.99.99 0 0 0-.08-.25 81.83 81.83 0 0 0 6.97-1.89 5.87 5.87 0 0 1-4.76 9.26 5.88 5.88 0 0 1-4.9-9.05c.9.45 1.62 1.04 2.52 1.72l.25.2"/><path id="83k3ei" d="M1069.82 1783.38c8.47 5.45 20.78 17.19 26.03 30.57.42 1.1.82 2.2 1.13 3.32-.04.03-.11.04-.18.04-.9-.68-1.63-1.27-2.52-1.72-.07-.05-.14-.1-.23-.13-2.97-4.6-7.4-11.55-10.92-16.04-3.62-4.66-9.33-8.28-14.16-11.76v-.05c.15-1.27.17-2.68.17-3.95.23-.1.46-.17.68-.28"/><path id="83k3ej" d="M1069.84 1783.32c3.7.28 7.24-.34 9.39-1.58a38.7 38.7 0 0 1 4.75 3.22c9.76 7.66 18.77 21.05 20.17 30.36l-.2.06a80.3 80.3 0 0 1-6.97 1.88 36 36 0 0 0-1.12-3.31c-5.26-13.38-17.56-25.13-26.03-30.57v-.06z"/><path id="83k3ek" d="M1068.2 1783.11c.54.1 1.09.15 1.63.2v.07c-.23.1-.46.17-.69.28-8.8 3.79-18.98 17.3-24.11 27.66a62.86 62.86 0 0 0-1.87 4.22l-.62-.2a66.45 66.45 0 0 1-5.25-1.72l-1.85-.72c4.02-11.72 10.93-21.64 20.42-28.37a51.3 51.3 0 0 1 6.09-3.7h.02c1.39 1.06 3.56 1.89 6.23 2.28"/><path id="83k3el" d="M1045.02 1811.32c5.13-10.36 15.32-23.87 24.12-27.66 0 1.27-.02 2.68-.17 3.95a85.86 85.86 0 0 0-11.42 11.14c-1.87 2.14-8.43 10.47-10.38 13.86-.08.06-.2.12-.3.18a95.84 95.84 0 0 0-3.38 1.93c.44-1.09.97-2.21 1.53-3.4"/><path id="83k3em" d="M1042.54 1815.34l.62.2.33-.83c.98-.6 2.33-1.36 3.38-1.93a5.75 5.75 0 0 1 1.35 3.76c0 .09 0 .17-.02.28a5.85 5.85 0 1 1-10.91-3.2c1.66.62 3.42 1.2 5.25 1.72"/><path id="83k3en" d="M1060.65 1777.03c-.72 1.28-.18 2.66 1.3 3.8-4.26-1.05-23-3.09-40.04 2.25-.9.28-1.85.58-2.74.94-.58.19-1.13.44-1.7.66-.05 0-.1.02-.13.06 0-.04 0-.06.04-.1.3-.42.63-.82.98-1.23 1.05-1.2 2.3-2.34 3.73-3.42a72.35 72.35 0 0 1 18.89-5.27l.87-.12c6.7-.87 13.34-.86 19.67-.27.91.05 1.82.16 2.7.28-1.68.54-2.97 1.37-3.57 2.42"/><path id="83k3eo" d="M1065.15 1774.34c-.3.05-.6.16-.92.28h-.01a35.3 35.3 0 0 0-2.7-.28v-.12c-.06-.17-.22-.44-.34-.69v-4.32c2.06.63 3.3 2.7 3.97 5.13"/><path id="83k3ep" d="M1080.97 1780.13c.85-1.46.06-3.02-1.84-4.2l.08-.14c6.59-1.89 21.05-1.46 31.05 2.75 0 0 .02.04.04.04 4.64 2.43 8.33 5.24 10.82 8.22h-.02c-5.4-2.77-22.43-10.77-41.89-5.06.82-.46 1.4-1 1.76-1.61"/><path id="83k3eq" d="M1060.65 1777.03c.6-1.04 1.88-1.88 3.57-2.41h.02c.3-.12.6-.23.9-.28.06-.02.1-.05.16-.06a16.3 16.3 0 0 1 2.07-.38v1.18c-.83.25-1.53.62-1.94 1.07-.11.12-.19.22-.27.34-.6 1.09.33 2.2 2.21 2.88.57.2 1.23.41 1.99.5 2.24.36 4.54.07 5.93-.64.54-.28.95-.65 1.17-1.03.33-.55.21-1.15-.25-1.67a3.1 3.1 0 0 0-.92-.71v-1.44c.37.08.72.18 1.05.29 1.11.34 2.04.76 2.8 1.27 1.89 1.17 2.68 2.73 1.83 4.19a4.58 4.58 0 0 1-1.76 1.61c-2.14 1.24-5.68 1.86-9.37 1.58-.55-.06-1.1-.12-1.64-.2-2.66-.4-4.85-1.23-6.24-2.3h-.02c-1.47-1.13-2.01-2.5-1.3-3.79"/><path id="83k3er" d="M983.22 1771.16s28.57 13.54 33.42 6.3l.23-.04c.29 1.44.24 4.4.24 4.4-.26.45-.56.85-.92 1.19-2.12 1.95-6.09 1.87-12.05.3-1.4-3.03-6.92-5.3-6.92-2.03-6.07-2.3-14.47-6.12-18.2-8.63-3.21-4.86-1.55-9.12-1.32-9.29l.15.17c-1.26 3.6 2.1 6 5.37 7.63"/><path id="83k3es" d="M1076.46 1778.2c-.22.38-.64.75-1.17 1.03-1.4.71-3.69 1-5.94.64a8.67 8.67 0 0 1-1.98-.5c-1.88-.68-2.8-1.8-2.2-2.87.07-.13.15-.23.26-.35.4-.45 1.1-.82 1.94-1.07v2.29c.57.2 1.23.38 1.98.5 2.25.33 4.54.05 5.94-.66v-1.39c.39.21.7.45.92.71.46.52.58 1.12.25 1.67"/><path id="83k3et" d="M1012.82 1683.1l-.04.13c-.27-.1-.57-.18-.86-.26l-.04-.01a107.6 107.6 0 0 0-5.98-.5c1.58-.07 3.16-.03 4.73.16a32.32 32.32 0 0 0-7.77-1.1c1.18-.23 2.37-.38 3.59-.45 2.26.13 4.46.3 6.57.58l.24.04-.44 1.4"/><path id="83k3eu" d="M1011.38 1709.29c.3 2.3.87 4.78 1.65 7.38-2.92-.4-11.03-2.21-13.3-4.32l.02-.04c-3.67-1.92-4.84-6.79-5.76-10.61l13.9 6.08z"/><path id="83k3ev" d="M1005.9 1682.47a107.87 107.87 0 0 1 6.02.5 45.2 45.2 0 0 1 9.62 3.92 35.79 35.79 0 0 0 6.02 9.1l-.17.83.46-.27c-.02-.09-.02-.17-.02-.24l.35.38.12.13c.4.45.86.86 1.31 1.24 2.71 2.53 5.66 4.4 8.64 5.78l-.28.67-9.7-4.23-1.5-.64-2.47-1.1-22.85-9.97c-1.02-.45-2.32-.6-3.72-.45-1.88.17-3.9.87-5.4 1.98a5.21 5.21 0 0 0-1.72 1.83c-.1.2-.2.44-.25.61l-.02.1a.37.37 0 0 0-.06.2l-2.2-.63c.07-.24.17-.45.25-.67.26-.73.53-1.32.8-1.8l-.09-.07c2.7-4.07 7.93-7.03 13.82-8.15 2.41 0 5.1.42 7.76 1.1a27.87 27.87 0 0 0-4.72-.15"/><path id="83k3ew" d="M991.97 1695.47l21.26 9.29 16.7 7.31c2.45 1.06 6.53.38 9.15-1.53 2.2-1.6 2.67-3.53 1.33-4.75 2.37 1.15 1.81 8.42-.78 10.31a11.3 11.3 0 0 1-5.76 2 7.48 7.48 0 0 1-3.38-.46l-4.13-1.81-14.98-6.55-3.49-1.5-13.9-6.08-1.5-.67c-1.81-.79-2.18-5.26-2.2-7.36.16.73.72 1.37 1.68 1.8"/><path id="83k3ex" d="M1021.1 1684.88c.42.89.85 1.75 1.32 2.55l-.88-.53c-.36-.7-.67-1.44-.98-2.19.16.07.35.12.54.17"/><path id="83k3ey" d="M1029.04 1661.65a96.5 96.5 0 0 1-3.27 3.03c-.05 3.16-.3 6.35-.84 9.37-.72 3.98-1.93 7.71-3.83 10.82.42.9.85 1.76 1.31 2.56l-.87-.53a36.04 36.04 0 0 0 6.02 9.1l-.17.82.46-.27c-.02-.08-.02-.17-.02-.24l.35.38.12.13a15 15 0 0 0 1.31 1.25 32.82 32.82 0 0 0 11.74 7.01c.26-.63.43-1.27.57-1.95.1-.53.2-1.07.27-1.66 1.33-9.03 1.55-18.72 1.55-27.97 0-4.42-.22-8.82-.45-13.22-.22-4.63-1.98-9.05-2.2-13.45l-.14-.01a.33.33 0 0 0 .01-.11 27.13 27.13 0 0 1-3.45 5.95l-.03.02c-2.07 2.77-4.26 4.8-5.27 5.83l-1.72 1.7c-.48.48-.98.95-1.45 1.44m-1.27 33.07l-.06.42a2.87 2.87 0 0 1-.04-.56c0 .05.04.1.1.14"/><path id="83k3ez" d="M1044.72 1726.24c-3.43 1.56-7.35-.41-10.98-2.02-.2-2.15-.18-4.2.13-6.12 1.99-.12 4.16-.83 5.76-2 2.59-1.88 3.14-9.15.78-10.3a3.93 3.93 0 0 0-.98-.64l-1.46-.65.28-.67a36.88 36.88 0 0 0 7.35 2.43z"/><path id="83k3eA" d="M1021.1 1684.88c-.2-.05-.38-.1-.54-.17.3.75.61 1.5.98 2.2a45.16 45.16 0 0 0-8.76-3.68c.01-.04.02-.1.04-.13l.43-1.4-.23-.05c.94-2.9 3.92-9.75 11.91-7.6-.72 3.98-1.92 7.71-3.83 10.82z"/><path id="83k3eB" d="M1011.94 1775.88c-.19-6.07-1.11-12.14-1.5-18.22-.37-6.25-.9-13.15-2.75-19.45l5.66 2.69c.4 4.33 1.34 8.63 1.87 12.95a858.5 858.5 0 0 1 .71 6.32c.18 1.6.39 3.3.57 5.01.37 3.14.46 10 .01 10.12a13.99 13.99 0 0 1-4.57.58"/><path id="83k3eC" d="M990.26 1693.03c-.02.22-.02.43.03.65.02 2.1.38 6.57 2.2 7.36l1.5.66c.92 3.82 2.09 8.69 5.75 10.61l-.02.04-1.54.9s-4.08.65-3.75 7.12c.3 6.48 2.96 8.96 2.96 8.96l4.3 1.99c.37 1.65.81 3.46 1.52 4.78l4.47 2.12c1.85 6.3 2.39 13.2 2.76 19.44.38 6.09 1.3 12.16 1.5 18.23-8.14-.24-19.6-5.71-20.8-12.34a4.19 4.19 0 0 1-.08-.66l-.01-.19-.1-1.48c-.01.02-.03.02-.05.03-.83-8.62-4.7-48.45-5.3-55.04-.37-3.82.92-9.44 2.24-13.3l.24-.7 2.2.63c-.02.07-.02.13-.02.19"/><path id="83k3eD" d="M1003.21 1736.1a19.93 19.93 0 0 1-1.52-4.79l17.73 8.2 6.97 3.2a60.56 60.56 0 0 0 5.8 7.04l-11.75-5.54-7.09-3.32-5.66-2.68z"/><path id="83k3eE" d="M1027.43 1612.7a19.47 19.47 0 0 0-3.19 5.65l-.13-.05c-2.52-.9-5.85-1.08-8.6-1.1-1.11-2.52 4.77-2.3 5.95-2l.06-.04c-.62-.67-1.9-.97-2.82-1.27a78.66 78.66 0 0 1-3.93-1.82l-.03.06c-1.52-.23-7.13-.65-6.42-2.99.91.2 2.1.25 3.22.33-1.47-.69-3.83-1.86-2.76-2.31l3.3.3.01-.06c1.46-.96 3.3-1.16 5.18-.93a7.36 7.36 0 0 1 3.98-.3l.01-.03c2.97 1.22 7.16 2.1 9.36 3.67l.01.02a11.41 11.41 0 0 0-3.2 2.87"/><path id="83k3eF" d="M1026.5 1622.65c-.8-.5-1.82-.85-2.7-1.27-.12-.65-.01-1.5.26-2.43l.18-.6a19.44 19.44 0 0 1 3.2-5.66 11.47 11.47 0 0 1 3.2-2.86 4.44 4.44 0 0 1 1.66-.6c.53.63 1.14 1.25 1.78 1.85-.53.19-1.04.42-1.49.72-3.64 2.2-5.52 6.88-6.08 10.85"/><path id="83k3eG" d="M975.5 1639.18l-1.73-1.08c.13-.6.53-.99 1.16-1.08 1.44-.21 1.1.78 1.54 1.55a45.6 45.6 0 0 0 2.03 2.96c-1-.8-2.12-1.47-3.02-2.3z"/><path id="83k3eH" d="M958.51 1640.65c3.07-.87 5.7 1.1 8.34 2.1a21 21 0 0 0-5.47-3.2c-1.1-.44-3.75-.76-3.2-2.54h.33c3.81-.09 6.43 1.72 9.61 3.3l.09-.2a17.24 17.24 0 0 0-4.96-2.54c-1.43-.44-3.08-.76-3.08-2.64h.1c.8 0 1.7.09 2.63.26l.02-.04c3.69-1.39 7.62.94 10.86 2.95l1.74 1.07-.04.05c.9.84 2.02 1.5 3.02 2.3.31.26.61.52.88.8a11.88 11.88 0 0 0-3.1 2.81 19.58 19.58 0 0 0-3.1 5.37l-.67-.26c-2.63-.96-6.16-3.81-8.2-6.09-1.88-1.01-5-1.28-6.26-3.25z"/><path id="83k3eI" d="M979.37 1642.32c.4-.24.8-.42 1.18-.54.2-.06.41-.1.6-.12.53.65 1.12 1.25 1.79 1.86-.54.17-1.05.42-1.5.73-3.64 2.2-5.52 6.88-6.09 10.84-.8-.5-1.82-.84-2.7-1.28-.13-.64-.01-1.5.26-2.43.07-.28.17-.57.27-.88a19.58 19.58 0 0 1 3.1-5.36c.96-1.2 2.02-2.2 3.1-2.82"/><path id="83k3eJ" d="M981.44 1644.24c.45-.3.96-.55 1.5-.72.35-.16.73-.27 1.16-.33.22.09.5.24.8.42 3.3 1.85 15.28 10.6 19.36 13.33-3.74 5.02-6.96 11.68-4.03 20.35.18.23.38.46.59.66-.98-.66-1.96-1.36-2.98-1.95-8.27-4.94-15.22-11.54-22.67-17.83-.03-.93 0-1.97.18-3.08.57-3.97 2.45-8.65 6.09-10.85"/><path id="83k3eK" d="M991.05 1762.7l.01.19c.01.22.03.43.07.66 1.2 6.62 12.67 12.1 20.8 12.33a13.84 13.84 0 0 0 4.58-.58c.1.7.24 1.39.36 2.11l-.23.04c-4.84 7.25-33.42-6.3-33.42-6.3-3.27-1.62-6.63-4.02-5.37-7.62l-.14-.17c4-3.1 9.27-.5 13.19-2.12.03 0 .04 0 .06-.02.03.54.05 1.04.09 1.48"/><path id="83k3eL" d="M1040.35 1705.75c.02.01.06.02.06.05 1.34 1.22.87 3.15-1.33 4.74-2.62 1.92-6.7 2.6-9.15 1.54l-16.7-7.31-21.26-9.3c-.97-.42-1.52-1.07-1.68-1.8.01-.52.02-.9.05-1.02 0-.06.02-.1.02-.1.05-.18.15-.4.25-.62a5.2 5.2 0 0 1 1.72-1.82 11.11 11.11 0 0 1 5.4-1.99c1.4-.14 2.7 0 3.73.46l22.84 9.96 2.47 1.1 1.5.65 9.7 4.23 1.45.63c.38.17.7.39.93.6"/><path id="83k3eM" d="M1026.4 1742.72l-6.98-3.2-17.73-8.2-4.3-1.99s-2.67-2.49-2.96-8.96c-.33-6.47 3.74-7.13 3.74-7.13l16.32 7.6a99.7 99.7 0 0 0 11.9 21.88"/><path id="83k3eN" d="M1004.26 1656.94c.32-.42.64-.85.96-1.24 0 0 9.05-11.9 11.56-16.5 1.66-3.32 3.13-7.37 5.1-10.78.33-.6.7-1.19 1.06-1.75h.04a4.76 4.76 0 0 1 2.52-1.25c.28-.04.54-.06.8-.06a5.12 5.12 0 0 1 1.02.06c.41.12.83.26 1.25.45l.09.04c.54.22 1.08.49 1.63.78 1.7.91 3.41 2.12 4.85 3.24l.02-.03c.14.14.27.27.46.42h.01a87.26 87.26 0 0 1 6.13 5.97l.03.03a14.77 14.77 0 0 1 .45 5.42c-.1 1.05-.3 2.06-.6 3.04-.19.64-.41 1.3-.68 1.91v.02a27.1 27.1 0 0 1-3.45 5.94l-.02.02c-2.08 2.78-4.26 4.81-5.28 5.83l-1.72 1.7-1.44 1.44a96.5 96.5 0 0 1-3.27 3.04c-6.68 5.94-18.17 15.12-20.98 14.99a5.02 5.02 0 0 1-1.3-.18 6.33 6.33 0 0 1-3.28-2.2c-2.92-8.67.3-15.33 4.04-20.35"/><path id="83k3eO" d="M1003.57 1679.53l-.07-.03h.04c.01.01.01.03.03.03"/><path id="83k3eP" d="M1014.5 1720.85a74.85 74.85 0 0 1-1.47-4.18 47.51 47.51 0 0 1-1.65-7.38l14.98 6.55c.22 3.69.9 7.56 1.97 11.45a73.4 73.4 0 0 0 9.01 20.52 45.8 45.8 0 0 0 5.4 6.93c.48.47.93.93 1.41 1.37l-11.23-5.62a60.2 60.2 0 0 1-6.52-7.76c-4.58-6.32-9.01-14.3-11.9-21.88"/><path id="83k3eQ" d="M1014.5 1720.84l-16.32-7.6 1.54-.89c2.28 2.1 10.4 3.92 13.32 4.31.43 1.38.91 2.77 1.45 4.18"/><path id="83k3eR" d="M1027.67 1694.58c0 .04.05.1.1.13-.03.14-.04.3-.05.43a2.64 2.64 0 0 1-.05-.56"/><path id="83k3eS" d="M1029.82 1626.33c.16.1.3.22.47.36a18.1 18.1 0 0 0-1.64-.78l-.08-.04c.38.1.76.23 1.14.4.02.02.05.05.11.06"/><path id="83k3eT" d="M1044.72 1726.24l-.38 8.44.1.12-9.57-4.46a42.42 42.42 0 0 1-1.13-6.12c3.63 1.61 7.55 3.58 10.98 2.02"/><path id="83k3eU" d="M1036.39 1615.87c-.86.67-1.7 1.39-2.52 2.09-.9.73-1.8 1.5-2.67 2.27a89.1 89.1 0 0 0-2.42 2.13c-.83.75-1.67 1.5-2.46 2.29.01-.64.07-1.3.19-2 .56-3.96 2.44-8.64 6.08-10.84.45-.3.96-.54 1.5-.73.36-.16.74-.25 1.16-.33a109.84 109.84 0 0 1 4.38 2.54l-1.13.9c-.71.55-1.4 1.12-2.11 1.68"/><path id="83k3eV" d="M1035.44 1582.12c.18-2.99.68-3.13-.59-5.35 0 0-.01-1.18.14-2.87l.67.53.14-.03c.36 1.76 1.07 3.15 1.8 5.05.76 2.16 3.31 5.14 3.48 9.9l1.64.85c.11.04.16.1.27.14-.19-2.24-.3-4.84-.21-6.2.84-1.12 4.08-1.03 3.58 1.73-.26 1.45-.09 4.13-.54 5.92-.3 1.19-.89 1.98-2.05 1.76 0 .18 0 .38-.06.54V1594.42a15.1 15.1 0 0 1-.27 1.36v.1c-.04.04-.05.11-.07.15-.18.47-.57.91-1.01 1.29-.86.7-1.97 1.17-2.46.95-.36-.41-.77-1.52-1.18-2.94-.73-2.51-1.49-5.98-2.12-8.06-.55-1.95-1.24-3.32-1.16-5.15"/><path id="83k3eW" d="M1043.54 1750.69l6.56 3 6.63 3.09.45 4.74-7.8-3.68-5.29-2.5-.45-4.5c-.02-.04-.05-.1-.1-.15"/><path id="83k3eX" d="M1037.34 1747.8a73.4 73.4 0 0 1-9-20.52 56.3 56.3 0 0 1-1.98-11.45l4.13 1.8c.92.4 2.14.56 3.38.47-.3 1.92-.33 3.97-.13 6.11.21 2 .6 4.07 1.13 6.12 2.14 8.29 6.47 16.51 8.68 20.36.05.05.08.11.1.16l.45 4.5.05.75c-.47-.44-.93-.9-1.41-1.37a45.8 45.8 0 0 1-5.4-6.93"/><path id="83k3eY" d="M1042.35 1597.32c.45-.37.83-.82 1.02-1.29.01-.03.03-.1.07-.14v-.1c.08-.33.18-.81.26-1.37.24 1.11.55 2.32.83 3.5v.04l.16.62.35 1.5-.04.01c-2.5-.14-4.33-.66-5.1-1.82.49.22 1.6-.24 2.45-.95"/><path id="83k3eZ" d="M1044.97 1609.16h.02c-.02.02-.04.02-.06.02 0-.02.04-.02.04-.02"/><path id="83k3fa" d="M1044.54 1597.96v-.04c-.29-1.19-.6-2.39-.84-3.5l.01-.29v-.04c.05-.16.05-.36.05-.54 1.17.22 1.76-.57 2.05-1.76l.22.05c1.06 1.54 2.31 3.88 3.48 5.74l.37.6a8.63 8.63 0 0 0 5.85.76c.72-.21 1.48-.42 2.2-.6a19.6 19.6 0 0 0 6.1-3.66l.03-.02v.02h.04c.05.59.33 1.34.61 2.12l-.69.13c-.92.19-1.92.4-2.95.64l.01.05c-1.61.37-3.24.85-4.56 1.38-1.52.6-3.51 1.86-5.3 3.13-2.25 1.6-4.23 3.23-4.68 3.6-.22-.93-.39-1.95-.57-2.95v-.03c-.2-.82-.7-1.7-.93-2.67l-.35-1.5c-.06-.2-.1-.4-.15-.62"/><path id="83k3fb" d="M1050.35 1625.69a919.71 919.71 0 0 1-12.68 6.49 81.12 81.12 0 0 0-2.04-1.85c-.2-.16-.33-.3-.48-.42v.03a35.13 35.13 0 0 0-4.86-3.25c-.16-.13-.3-.25-.46-.35-.07-.01-.1-.04-.12-.06-.38-.18-.76-.31-1.14-.4a10.45 10.45 0 0 0-1.37-.48 5.49 5.49 0 0 0-1.7.03c.27-.28.54-.53.82-.79.79-.78 1.63-1.53 2.46-2.28a89.1 89.1 0 0 1 2.42-2.13c.87-.77 1.77-1.54 2.67-2.27.82-.7 1.66-1.42 2.52-2.1.71-.55 1.4-1.12 2.1-1.67l1.14-.9 2.88-2.28c4.53.5 8.38 0 12.39-.92 1.39-.3 2.76-.68 4.2-1.03.88-.24 2.97-1.13 5.23-2.36 1.05-.55 2.1-1.17 3.11-1.83l.82-.6c3.12-2.2 5.42-4.79 3.88-6.86a2.72 2.72 0 0 0-.3-.36c0-.03-.05-.04-.06-.05-.06-.07-.12-.13-.22-.18l1.16-.23c3-.57 7.16-1.35 7.45-1.37 4.72-.37 10.36 2.12 12.77 4.8-5.48 4.43-19.67 13.6-24.39 16.13-3.12 1.66-10.64 5.63-18.2 9.54"/><path id="83k3fc" d="M1063.17 1632.6a82.4 82.4 0 0 0-6.05 4.54l-.02.03a18.41 18.41 0 0 0-5.15 5.2 22.97 22.97 0 0 0-3.5 8.04 18.56 18.56 0 0 0-.44 3.15l-.14 3.24-.25 5.6-.1 2.4v.02l-.81 17.7-.29 6.15-.15 3.1-.41 9.12-.14 3.1-.11 2.28c-1.39-.3-2.82-.69-4.26-1.19a9.9 9.9 0 0 0 .57-1.96c.1-.52.2-1.07.28-1.65 1.32-9.03 1.54-18.72 1.54-27.97 0-4.42-.22-8.82-.44-13.22-.22-4.63-1.99-9.05-2.2-13.45l-.15-.02a.3.3 0 0 0 .01-.1v-.01c.27-.62.5-1.27.68-1.92a15.87 15.87 0 0 0 .62-5.74c-.06-.88-.22-1.8-.47-2.71l-.03-.04c-.82-.9-1.66-1.74-2.51-2.6-.53-.52-1.05-1.02-1.58-1.51a2162.31 2162.31 0 0 0 30.88-16.03c4.72-2.52 18.9-11.7 24.39-16.14.14.16.28.32.4.5a60.7 60.7 0 0 1 2.9 14.96l-.99.26c-9.62 2.57-23.47 10.95-32.08 16.86"/><path id="83k3fd" d="M1071.4 1747.4l-14.67 9.39-.9-9.64 14.67-9.4 7.46-4.83 33.3-21.34.75 9.82-2.62 1.7-30.5 19.5z"/><path id="83k3fe" d="M1056.39 1604.05c.66-.3 1.32-.62 1.95-.95-.68.37-1.38.73-2.07 1.09l.12-.14"/><path id="83k3ff" d="M1056.53 1599a30.66 30.66 0 0 1 4.56-1.39 65.09 65.09 0 0 1 4.74-.91l.05.2c.03 0 .06.03.12 0h.04c.67.12 1.43 1.3 2.16 1.26v.68l-.16.05a28.9 28.9 0 0 0-4.67 1.76c-1.58.72-3.29 1.57-5.03 2.45-.63.33-1.29.65-1.95.95l-.12.14-.58.29a154.37 154.37 0 0 1-6.88 3.32c-1.4.63-2.67 1.1-3.77 1.36h-.05l.15-.15c.18-.22.3-.44.42-.66.43-.8.54-1.63.9-2.56l.09-.07c.45-.37 2.42-1.98 4.67-3.6a28.45 28.45 0 0 1 5.3-3.12"/><path id="83k3fg" d="M1075.3 1769.4v7.81c-1.4.71-3.7 1-5.94.66a10.4 10.4 0 0 1-1.99-.5V1773.9c-.72.1-1.42.21-2.07.39-.06 0-.1.04-.15.05-.66-2.42-1.91-4.5-3.97-5.13v-.1c2.04-.1 4.1-.12 6.2-.1l-.2-13.96 8.13-5.29z"/><path id="83k3fh" d="M1064 1594.7a19.6 19.6 0 0 1-6.07 3.63l-2.2.61c-1.97.37-4.01.25-5.85-.75-.14-.2-.25-.4-.37-.61-1.17-1.86-2.42-4.2-3.48-5.74l-.22-.05c.46-1.79.28-4.47.55-5.93.5-2.75-2.74-2.84-3.59-1.72-.1 1.35.02 3.96.22 6.2-.11-.05-.16-.1-.27-.14-.56-.29-1.11-.57-1.64-.86-.17-4.75-2.73-7.73-3.5-9.89-.7-1.9-1.43-3.3-1.78-5.05l-.15.03c-.22-.19-.46-.36-.66-.53a10.51 10.51 0 0 1-1.9-2.05 13.14 13.14 0 0 1 .33-3.57c2.56-11 19.42-16.74 29.86-11.17l.01-.08c1.58.86 3.11 1.93 4.46 3.14 3.68 3.3 6.12 7.66 5.1 11.81-1.08 4.38-2.52 9.1-4.04 13.35l-.23.6c-.5 1.36-1 2.67-1.5 3.9-.71 1.11-1.7 2.25-1.75 3.26.04.2-.45.82-1.27 1.56l-.04.03-.02.03"/><path id="83k3fi" d="M1045.04 1609.16c1.1-.26 2.37-.72 3.77-1.36a144.06 144.06 0 0 0 6.88-3.32l.58-.29c.7-.36 1.4-.71 2.07-1.08 1.74-.9 3.45-1.74 5.03-2.45a29.23 29.23 0 0 1 4.82-1.81v-.69c-.72.04-1.48-1.14-2.15-1.26.96-.12 1.9-.37 2.81-.6.26-.03.5-.04.74-.04.05-.05.05-.1.05-.15.62.18 1.42.38 1.92.7.1.06.15.12.22.19a2.99 2.99 0 0 1 .36.4c1.54 2.08-.76 4.66-3.88 6.87l-.82.6c-1 .66-2.06 1.28-3.1 1.83a31.87 31.87 0 0 1-5.24 2.36c-1.44.35-2.82.74-4.2 1.03-4.01.9-7.86 1.43-12.39.92a89.8 89.8 0 0 1 2.4-1.81l.02-.02c.03 0 .04 0 .06-.02.01.02.02 0 .03 0z"/><path id="83k3fj" d="M1070.5 1737.75l-14.67 9.4 1.06-33.36 1.81-55.5a19.43 19.43 0 0 1 1.43-6.41c1.32-3.3 9.98-10.03 12.97-11.85.98-.55 3.24-1.93 6.14-3.72 8.85-5.36 23.63-14.33 26.26-14.96a8.25 8.25 0 0 1 7.7 2.68c.18.3.33.63.46.93.17.22.34.45.5.7v.01a10.57 10.57 0 0 1 1.1 5.62l-2.95 79.6-1.04.68-33.3 21.34z"/><path id="83k3fk" d="M1071.4 1747.4l7.5-4.8 30.5-19.51.02.06-.09 4.51-30 19.49-4.02 2.61-8.12 5.3-10 6.47-.45-4.75z"/><path id="83k3fl" d="M1112.35 1623.2a8.25 8.25 0 0 0-6.85-1.85c-2.63.64-17.4 9.6-26.27 14.97-2.89 1.79-5.15 3.16-6.13 3.71-2.99 1.83-11.65 8.55-12.97 11.85a19.64 19.64 0 0 0-1.43 6.41l-1.81 55.5-1.06 33.36.9 9.63-6.63-3.08-6.56-3c-2.2-3.85-6.54-12.07-8.68-20.36l9.58 4.46-.11-.12.39-8.44.88-19.97.1-2.27.15-3.1.42-9.13.15-3.1.28-6.14.81-17.7v-.02l.1-2.42.26-5.59.14-3.24c.06-1.03.2-2.09.44-3.15a22.97 22.97 0 0 1 3.5-8.04 18.46 18.46 0 0 1 5.15-5.2l.02-.03a81.66 81.66 0 0 1 6.05-4.55c8.6-5.91 22.46-14.29 32.07-16.85l1-.27c2.62-.63 4.88-.74 6.57-.22a20.14 20.14 0 0 1 10.38 8.79 7.48 7.48 0 0 0-.84-.84"/><path id="83k3fm" d="M1113.2 1624.04c.42.51.75 1.06.96 1.62a8.48 8.48 0 0 0-.48-.7c-.14-.3-.29-.62-.48-.92"/></defs><g><g transform="translate(-797 -1475)"><use fill="#e0ebef" xlink:href="#83k3a"/></g><g transform="translate(-797 -1475)"><g><use fill="#fff" xlink:href="#83k3b"/></g><g><use fill="#fff" xlink:href="#83k3c"/></g><g><use fill="#e0ebef" xlink:href="#83k3d"/></g><g><use fill="#e9f1f4" xlink:href="#83k3e"/></g><g><use fill="#78909b" xlink:href="#83k3f"/></g><g><use fill="#e0ebef" xlink:href="#83k3g"/></g><g><use fill="#e9f1f4" xlink:href="#83k3h"/></g><g><use fill="#e0ebef" xlink:href="#83k3i"/></g><g><use fill="#36464f" xlink:href="#83k3j"/></g><g><use fill="#e9f1f4" xlink:href="#83k3k"/></g><g><use fill="#fff" xlink:href="#83k3l"/></g><g><use fill="#e9f1f4" xlink:href="#83k3m"/></g><g><use fill="#1e5f30" xlink:href="#83k3n"/></g><g><use fill="#1e5f30" xlink:href="#83k3o"/></g><g><use fill="#1e5f30" xlink:href="#83k3p"/></g><g><use fill="#1e5f30" xlink:href="#83k3q"/></g><g><use fill="#1e5f30" xlink:href="#83k3r"/></g><g><use fill="#1e5f30" xlink:href="#83k3s"/></g><g><use fill="#795549" xlink:href="#83k3t"/></g><g><use fill="#d64527" xlink:href="#83k3u"/></g><g><use fill="#d64527" xlink:href="#83k3v"/></g><g><use fill="#f48967" xlink:href="#83k3w"/></g><g><use fill="#f27048" xlink:href="#83k3x"/></g><g><use fill="#378e43" xlink:href="#83k3y"/></g><g><use fill="#378e43" xlink:href="#83k3z"/></g><g><use fill="#378e43" xlink:href="#83k3A"/></g><g><use fill="#378e43" xlink:href="#83k3B"/></g><g><use fill="#378e43" xlink:href="#83k3C"/></g><g><use fill="#1e5f30" xlink:href="#83k3D"/></g><g><use fill="#1e5f30" xlink:href="#83k3E"/></g><g><use fill="#1e5f30" xlink:href="#83k3F"/></g><g><use fill="#1e5f30" xlink:href="#83k3G"/></g><g><use fill="#1e5f30" xlink:href="#83k3H"/></g><g><use fill="#1e5f30" xlink:href="#83k3I"/></g><g><use fill="#1e5f30" xlink:href="#83k3J"/></g><g><use fill="#250f8a" xlink:href="#83k3K"/></g><g><use fill="#644bd9" xlink:href="#83k3L"/></g><g><use fill="#5740c0" xlink:href="#83k3M"/></g><g><use fill="#250f8a" xlink:href="#83k3N"/></g><g><use fill="#644bd9" xlink:href="#83k3O"/></g><g><use fill="#250f8a" xlink:href="#83k3P"/></g><g><use fill="#250f8a" xlink:href="#83k3Q"/></g><g><use fill="#5740c0" xlink:href="#83k3R"/></g><g><use fill="#fff" xlink:href="#83k3S"/></g><g><use fill="#c1bed4" xlink:href="#83k3T"/></g><g><use fill="#c1bed4" xlink:href="#83k3U"/></g><g><use fill="#cad0e9" xlink:href="#83k3V"/></g><g><use fill="#9096ba" xlink:href="#83k3W"/></g><g><use fill="#9096ba" xlink:href="#83k3X"/></g><g><use fill="#c1bed4" xlink:href="#83k3Y"/></g><g><use fill="#9096ba" xlink:href="#83k3Z"/></g><g><use fill="#9096ba" xlink:href="#83k3aa"/></g><g><use fill="#99afd4" xlink:href="#83k3ab"/></g><g><use fill="#99afd4" xlink:href="#83k3ac"/></g><g><use fill="#c1bed4" xlink:href="#83k3ad"/></g><g><use fill="#9096ba" xlink:href="#83k3ae"/></g><g><use fill="#c1bed4" xlink:href="#83k3af"/></g><g><use fill="#c1bed4" xlink:href="#83k3ag"/></g><g><use fill="#99afd4" xlink:href="#83k3ah"/></g><g><use fill="#9096ba" xlink:href="#83k3ai"/></g><g><use fill="#99afd4" xlink:href="#83k3aj"/></g><g><use fill="#99afd4" xlink:href="#83k3ak"/></g><g><use fill="#9096ba" xlink:href="#83k3al"/></g><g><use fill="#c1bed4" xlink:href="#83k3am"/></g><g><use fill="#9096ba" xlink:href="#83k3an"/></g><g><use fill="#c1bed4" xlink:href="#83k3ao"/></g><g><use fill="#c1bed4" xlink:href="#83k3ap"/></g><g><use fill="#d8d6cc" xlink:href="#83k3aq"/></g><g><use fill="#9096ba" xlink:href="#83k3ar"/></g><g><use fill="#99afd4" xlink:href="#83k3as"/></g><g><use fill="#99afd4" xlink:href="#83k3at"/></g><g><use fill="#9096ba" xlink:href="#83k3au"/></g><g><use fill="#99afd4" xlink:href="#83k3av"/></g><g><use fill="#9096ba" xlink:href="#83k3aw"/></g><g><use fill="#c1bed4" xlink:href="#83k3ax"/></g><g><use fill="#d8d6cc" xlink:href="#83k3ay"/></g><g><use fill="#c1bed4" xlink:href="#83k3az"/></g><g><use fill="#c1bed4" xlink:href="#83k3aA"/></g><g><use fill="#9096ba" xlink:href="#83k3aB"/></g><g><use fill="#c1bed4" xlink:href="#83k3aC"/></g><g><use fill="#c1bed4" xlink:href="#83k3aD"/></g><g><use fill="#9096ba" xlink:href="#83k3aE"/></g><g><use fill="#c1bed4" xlink:href="#83k3aF"/></g><g><use fill="#d8d6cc" xlink:href="#83k3aG"/></g><g><use fill="#9096ba" xlink:href="#83k3aH"/></g><g><use fill="#99afd4" xlink:href="#83k3aI"/></g><g><use fill="#9096ba" xlink:href="#83k3aJ"/></g><g><use fill="#99afd4" xlink:href="#83k3aK"/></g><g><use fill="#9096ba" xlink:href="#83k3aL"/></g><g><use fill="#c1bed4" xlink:href="#83k3aM"/></g><g><use fill="#99afd4" xlink:href="#83k3aN"/></g><g><use fill="#c1bed4" xlink:href="#83k3aO"/></g><g><use fill="#99afd4" xlink:href="#83k3aP"/></g><g><use fill="#9096ba" xlink:href="#83k3aQ"/></g><g><use fill="#c1bed4" xlink:href="#83k3aR"/></g><g><use fill="#9096ba" xlink:href="#83k3aS"/></g><g><use fill="#9096ba" xlink:href="#83k3aT"/></g><g><use fill="#c1bed4" xlink:href="#83k3aU"/></g><g><use fill="#9096ba" xlink:href="#83k3aV"/></g><g><use fill="#c1bed4" xlink:href="#83k3aW"/></g><g><use fill="#c1bed4" xlink:href="#83k3aX"/></g><g><use fill="#9096ba" xlink:href="#83k3aY"/></g><g><use fill="#9096ba" xlink:href="#83k3aZ"/></g><g><use fill="#c1bed4" xlink:href="#83k3ba"/></g><g><use fill="#9096ba" xlink:href="#83k3bb"/></g><g><use fill="#d8d6cc" xlink:href="#83k3bc"/></g><g><use fill="#c1bed4" xlink:href="#83k3bd"/></g><g><use fill="#99afd4" xlink:href="#83k3be"/></g><g><use fill="#99afd4" xlink:href="#83k3bf"/></g><g><use fill="#99afd4" xlink:href="#83k3bg"/></g><g><use fill="#c1bed4" xlink:href="#83k3bh"/></g><g><use fill="#c1bed4" xlink:href="#83k3bi"/></g><g><use fill="#9096ba" xlink:href="#83k3bj"/></g><g><use fill="#99afd4" xlink:href="#83k3bk"/></g><g><use fill="#d8d6cc" xlink:href="#83k3bl"/></g><g><use fill="#c1bed4" xlink:href="#83k3bm"/></g><g><use fill="#c1bed4" xlink:href="#83k3bn"/></g><g><use fill="#c1bed4" xlink:href="#83k3bo"/></g><g><use fill="#c1bed4" xlink:href="#83k3bp"/></g><g><use fill="#d8d6cc" xlink:href="#83k3bq"/></g><g><use fill="#9096ba" xlink:href="#83k3br"/></g><g><use fill="#99afd4" xlink:href="#83k3bs"/></g><g><use fill="#c1bed4" xlink:href="#83k3bt"/></g><g><use fill="#d8d6cc" xlink:href="#83k3bu"/></g><g><use fill="#c1bed4" xlink:href="#83k3bv"/></g><g><use fill="#99afd4" xlink:href="#83k3bw"/></g><g><use fill="#9096ba" xlink:href="#83k3bx"/></g><g><use fill="#99afd4" xlink:href="#83k3by"/></g><g><use fill="#99afd4" xlink:href="#83k3bz"/></g><g><use fill="#9096ba" xlink:href="#83k3bA"/></g><g><use fill="#c1bed4" xlink:href="#83k3bB"/></g><g><use fill="#99afd4" xlink:href="#83k3bC"/></g><g><use fill="#d8d6cc" xlink:href="#83k3bD"/></g><g><use fill="#c1bed4" xlink:href="#83k3bE"/></g><g><use fill="#c1bed4" xlink:href="#83k3bF"/></g><g><use fill="#c1bed4" xlink:href="#83k3bG"/></g><g><use fill="#c1bed4" xlink:href="#83k3bH"/></g><g><use fill="#c1bed4" xlink:href="#83k3bI"/></g><g><use fill="#9096ba" xlink:href="#83k3bJ"/></g><g><use fill="#99afd4" xlink:href="#83k3bK"/></g><g><use fill="#c1bed4" xlink:href="#83k3bL"/></g><g><use fill="#99afd4" xlink:href="#83k3bM"/></g><g><use fill="#d8d6cc" xlink:href="#83k3bN"/></g><g><use fill="#99afd4" xlink:href="#83k3bO"/></g><g><use fill="#9096ba" xlink:href="#83k3bP"/></g><g><use fill="#d8d6cc" xlink:href="#83k3bQ"/></g><g><use fill="#99afd4" xlink:href="#83k3bR"/></g><g><use fill="#99afd4" xlink:href="#83k3bS"/></g><g><use fill="#9096ba" xlink:href="#83k3bT"/></g><g><use fill="#c1bed4" xlink:href="#83k3bU"/></g><g><use fill="#99afd4" xlink:href="#83k3bV"/></g><g><use fill="#c1bed4" xlink:href="#83k3bW"/></g><g><use fill="#d8d6cc" xlink:href="#83k3bX"/></g><g><use fill="#c1bed4" xlink:href="#83k3bY"/></g><g><use fill="#9096ba" xlink:href="#83k3bZ"/></g><g><use fill="#c1bed4" xlink:href="#83k3ca"/></g><g><use fill="#c1bed4" xlink:href="#83k3cb"/></g><g><use fill="#9096ba" xlink:href="#83k3cc"/></g><g><use fill="#99afd4" xlink:href="#83k3cd"/></g><g><use fill="#c1bed4" xlink:href="#83k3ce"/></g><g><use fill="#99afd4" xlink:href="#83k3cf"/></g><g><use fill="#d8d6cc" xlink:href="#83k3cg"/></g><g><use fill="#99afd4" xlink:href="#83k3ch"/></g><g><use fill="#c1bed4" xlink:href="#83k3ci"/></g><g><use fill="#99afd4" xlink:href="#83k3cj"/></g><g><use fill="#99afd4" xlink:href="#83k3ck"/></g><g><use fill="#9096ba" xlink:href="#83k3cl"/></g><g><use fill="#c1bed4" xlink:href="#83k3cm"/></g><g><use fill="#99afd4" xlink:href="#83k3cn"/></g><g><use fill="#c1bed4" xlink:href="#83k3co"/></g><g><use fill="#d8d6cc" xlink:href="#83k3cp"/></g><g><use fill="#c1bed4" xlink:href="#83k3cq"/></g><g><use fill="#9096ba" xlink:href="#83k3cr"/></g><g><use fill="#d8d6cc" xlink:href="#83k3cs"/></g><g><use fill="#c1bed4" xlink:href="#83k3ct"/></g><g><use fill="#c1bed4" xlink:href="#83k3cu"/></g><g><use fill="#9096ba" xlink:href="#83k3cv"/></g><g><use fill="#99afd4" xlink:href="#83k3cw"/></g><g><use fill="#d8d6cc" xlink:href="#83k3cx"/></g><g><use fill="#99afd4" xlink:href="#83k3cy"/></g><g><use fill="#99afd4" xlink:href="#83k3cz"/></g><g><use fill="#9096ba" xlink:href="#83k3cA"/></g><g><use fill="#9096ba" xlink:href="#83k3cB"/></g><g><use fill="#99afd4" xlink:href="#83k3cC"/></g><g><use fill="#99afd4" xlink:href="#83k3cD"/></g><g><use fill="#9096ba" xlink:href="#83k3cE"/></g><g><use fill="#c1bed4" xlink:href="#83k3cF"/></g><g><use fill="#99afd4" xlink:href="#83k3cG"/></g><g><use fill="#d8d6cc" xlink:href="#83k3cH"/></g><g><use fill="#c1bed4" xlink:href="#83k3cI"/></g><g><use fill="#c1bed4" xlink:href="#83k3cJ"/></g><g><use fill="#c1bed4" xlink:href="#83k3cK"/></g><g><use fill="#c1bed4" xlink:href="#83k3cL"/></g><g><use fill="#c1bed4" xlink:href="#83k3cM"/></g><g><use fill="#9096ba" xlink:href="#83k3cN"/></g><g><use fill="#99afd4" xlink:href="#83k3cO"/></g><g><use fill="#d8d6cc" xlink:href="#83k3cP"/></g><g><use fill="#99afd4" xlink:href="#83k3cQ"/></g><g><use fill="#99afd4" xlink:href="#83k3cR"/></g><g><use fill="#d8d6cc" xlink:href="#83k3cS"/></g><g><use fill="#99afd4" xlink:href="#83k3cT"/></g><g><use fill="#99afd4" xlink:href="#83k3cU"/></g><g><use fill="#9096ba" xlink:href="#83k3cV"/></g><g><use fill="#c1bed4" xlink:href="#83k3cW"/></g><g><use fill="#99afd4" xlink:href="#83k3cX"/></g><g><use fill="#a0acd7" xlink:href="#83k3cY"/></g><g><use fill="#9096ba" xlink:href="#83k3cZ"/></g><g><use fill="#c1bed4" xlink:href="#83k3da"/></g><g><use fill="#c1bed4" xlink:href="#83k3db"/></g><g><use fill="#9096ba" xlink:href="#83k3dc"/></g><g><use fill="#c1bed4" xlink:href="#83k3dd"/></g><g><use fill="#c1bed4" xlink:href="#83k3de"/></g><g><use fill="#9096ba" xlink:href="#83k3df"/></g><g><use fill="#99afd4" xlink:href="#83k3dg"/></g><g><use fill="#9096ba" xlink:href="#83k3dh"/></g><g><use fill="#a0acd7" xlink:href="#83k3di"/></g><g><use fill="#99afd4" xlink:href="#83k3dj"/></g><g><use fill="#99afd4" xlink:href="#83k3dk"/></g><g><use fill="#c1bed4" xlink:href="#83k3dl"/></g><g><use fill="#99afd4" xlink:href="#83k3dm"/></g><g><use fill="#9096ba" xlink:href="#83k3dn"/></g><g><use fill="#9096ba" xlink:href="#83k3do"/></g><g><use fill="#c1bed4" xlink:href="#83k3dp"/></g><g><use fill="#c1bed4" xlink:href="#83k3dq"/></g><g><use fill="#c1bed4" xlink:href="#83k3dr"/></g><g><use fill="#d8d6cc" xlink:href="#83k3ds"/></g><g><use fill="#9096ba" xlink:href="#83k3dt"/></g><g><use fill="#a0acd7" xlink:href="#83k3du"/></g><g><use fill="#9096ba" xlink:href="#83k3dv"/></g><g><use fill="#99afd4" xlink:href="#83k3dw"/></g><g><use fill="#99afd4" xlink:href="#83k3dx"/></g><g><use fill="#9096ba" xlink:href="#83k3dy"/></g><g><use fill="#9096ba" xlink:href="#83k3dz"/></g><g><use fill="#9096ba" xlink:href="#83k3dA"/></g><g><use fill="#c1bed4" xlink:href="#83k3dB"/></g><g><use fill="#9096ba" xlink:href="#83k3dC"/></g><g><use fill="#c1bed4" xlink:href="#83k3dD"/></g><g><use fill="#9096ba" xlink:href="#83k3dE"/></g><g><use fill="#9096ba" xlink:href="#83k3dF"/></g><g><use fill="#d8d6cc" xlink:href="#83k3dG"/></g><g><use fill="#9096ba" xlink:href="#83k3dH"/></g><g><use fill="#9096ba" xlink:href="#83k3dI"/></g><g><use fill="#bcbcbc" xlink:href="#83k3dJ"/></g><g><use fill="#bcbcbc" xlink:href="#83k3dK"/></g><g><use fill="#bcbcbc" xlink:href="#83k3dL"/></g><g><use fill="#fa7564" xlink:href="#83k3dM"/></g><g><use fill="#bcbcbc" xlink:href="#83k3dN"/></g><g><use fill="#ec6959" xlink:href="#83k3dO"/></g><g><use fill="#ec6959" xlink:href="#83k3dP"/></g><g><use fill="#e0ebef" xlink:href="#83k3dQ"/></g><g><use fill="#bcbcbc" xlink:href="#83k3dR"/></g><g><use fill="#fff" xlink:href="#83k3dS"/></g><g><use fill="#bcbcbc" xlink:href="#83k3dT"/></g><g><use fill="#bcbcbc" xlink:href="#83k3dU"/></g><g><use fill="#bcbcbc" xlink:href="#83k3dV"/></g><g><use fill="#fff" xlink:href="#83k3dW"/></g><g><use fill="#250f8a" xlink:href="#83k3dX"/></g><g><use fill="#5740c0" xlink:href="#83k3dY"/></g><g><use xlink:href="#83k3dZ"/></g><g><use fill="#e9f1f4" xlink:href="#83k3ea"/></g><g><use xlink:href="#83k3eb"/></g><g><use fill="#e9f1f4" xlink:href="#83k3ec"/></g><g><use fill="#250f8a" xlink:href="#83k3ed"/></g><g><use fill="#061b26" xlink:href="#83k3ee"/></g><g><use fill="#050407" xlink:href="#83k3ef"/></g><g><use fill="#1c2122" xlink:href="#83k3eg"/></g><g><use xlink:href="#83k3eh"/></g><g><use fill="#e9f1f4" xlink:href="#83k3ei"/></g><g><use fill="#fff" xlink:href="#83k3ej"/></g><g><use fill="#fff" xlink:href="#83k3ek"/></g><g><use fill="#e9f1f4" xlink:href="#83k3el"/></g><g><use xlink:href="#83k3em"/></g><g><use fill="#fff" xlink:href="#83k3en"/></g><g><use xlink:href="#83k3eo"/></g><g><use fill="#fff" xlink:href="#83k3ep"/></g><g><use fill="#e9f1f4" xlink:href="#83k3eq"/></g><g><use fill="#050407" xlink:href="#83k3er"/></g><g><use fill="#3d4445" xlink:href="#83k3es"/></g><g><use fill="#361ea2" xlink:href="#83k3et"/></g><g><use fill="#250f8a" xlink:href="#83k3eu"/></g><g><use fill="#250f8a" xlink:href="#83k3ev"/></g><g><use xlink:href="#83k3ew"/></g><g><use fill="#361ea2" xlink:href="#83k3ex"/></g><g><use fill="#250f8a" xlink:href="#83k3ey"/></g><g><use fill="#250f8a" xlink:href="#83k3ez"/></g><g><use fill="#250f8a" xlink:href="#83k3eA"/></g><g><use fill="#250f8a" xlink:href="#83k3eB"/></g><g><use fill="#250f8a" xlink:href="#83k3eC"/></g><g><use fill="#1e1e1e" xlink:href="#83k3eD"/></g><g><use fill="#ffd6bb" xlink:href="#83k3eE"/></g><g><use fill="#e8f6fd" xlink:href="#83k3eF"/></g><g><use fill="#ffd6bb" xlink:href="#83k3eG"/></g><g><use fill="#ffd6bb" xlink:href="#83k3eH"/></g><g><use fill="#e8f6fd" xlink:href="#83k3eI"/></g><g><use fill="#250f8a" xlink:href="#83k3eJ"/></g><g><use fill="#061b26" xlink:href="#83k3eK"/></g><g><use fill="#1e1e1e" xlink:href="#83k3eL"/></g><g><use xlink:href="#83k3eM"/></g><g><use fill="#361ea2" xlink:href="#83k3eN"/></g><g><use fill="#3c1f17" xlink:href="#83k3eO"/></g><g><use fill="#2f2f2f" xlink:href="#83k3eP"/></g><g><use fill="#1e1e1e" xlink:href="#83k3eQ"/></g><g><use fill="#211d50" xlink:href="#83k3eR"/></g><g><use fill="#3c1f17" xlink:href="#83k3eS"/></g><g><use fill="#1e1e1e" xlink:href="#83k3eT"/></g><g><use fill="#250f8a" xlink:href="#83k3eU"/></g><g><use fill="#ffd6bb" xlink:href="#83k3eV"/></g><g><use fill="#1e1e1e" xlink:href="#83k3eW"/></g><g><use fill="#1e1e1e" xlink:href="#83k3eX"/></g><g><use fill="#ffd6bb" xlink:href="#83k3eY"/></g><g><use fill="#e8f6fd" xlink:href="#83k3eZ"/></g><g><use fill="#ffd6bb" xlink:href="#83k3fa"/></g><g><use fill="#361ea2" xlink:href="#83k3fb"/></g><g><use fill="#4229b5" xlink:href="#83k3fc"/></g><g><use fill="#2f2f2f" xlink:href="#83k3fd"/></g><g><use fill="#8d8d8e" xlink:href="#83k3fe"/></g><g><use fill="#e8f6fd" xlink:href="#83k3ff"/></g><g><use fill="#fff" xlink:href="#83k3fg"/></g><g><use xlink:href="#83k3fh"/></g><g><use fill="#250f8a" xlink:href="#83k3fi"/></g><g><use fill="#1e1e1e" xlink:href="#83k3fj"/></g><g><use xlink:href="#83k3fk"/></g><g><use xlink:href="#83k3fl"/></g><g><use fill="#8d8d8e" xlink:href="#83k3fm"/></g></g></g></svg>