<?xml version="1.0" encoding="utf-8"?>
<!-- Generator: Adobe Illustrator 22.1.0, SVG Export Plug-In . SVG Version: 6.00 Build 0)  -->
<svg version="1.1" id="Слой_1" xmlns="http://www.w3.org/2000/svg" xmlns:xlink="http://www.w3.org/1999/xlink" x="0px" y="0px"
	 viewBox="0 0 816 503" style="enable-background:new 0 0 816 503;" xml:space="preserve">
<style type="text/css">
	.st0{fill:none;stroke:#716F82;stroke-width:7;stroke-miterlimit:10;}
	.st1{fill:#072050;}
	.st2{fill:#747282;}
	.st3{fill:#2D2D3A;}
	.st4{fill:#FFFFFF;}
	.st5{fill:#A29FB0;}
	.st6{fill:#6E89C4;}
	.st7{fill:#EA5444;}
	.st8{fill:#FFC543;}
	.st9{fill:#A2CC3B;}
	.st10{fill:#313D6E;}
	.st11{fill:#678C6E;}
	.st12{opacity:0.55;fill:#C5CBED;}
	.st13{fill:#7C4B39;}
	.st14{fill:#FCBBA4;}
	.st15{fill:#FFC7B0;}
	.st16{fill:#081344;}
	.st17{opacity:0.2;fill:#081344;}
	.st18{fill:#716F82;}
	.st19{fill:#B1AEC1;}
	.st20{fill:#585668;}
	.st21{fill:#DDDDDD;}
	.st22{fill:#767684;}
	.st23{fill:#1F3468;}
	.st24{fill:#ABA9C4;}
	.st25{fill:#4A4960;}
	.st26{fill:#E79271;}
	.st27{fill:#A5483C;}
	.st28{fill:#84352F;}
	.st29{fill:#7F3954;}
	.st30{fill:#6E3856;}
	.st31{fill:#DF7D54;}
	.st32{fill:none;stroke:#081344;stroke-width:1.4933;stroke-linecap:round;stroke-miterlimit:10;}
	.st33{fill:#1C1C2D;}
	.st34{fill:#A0523A;}
	.st35{fill:#25253A;}
	.st36{fill:#9F293B;}
	.st37{fill:#F14747;}
	.st38{opacity:0.32;fill:#25253A;}
	.st39{fill:#ECEEF0;}
	.st40{opacity:0.55;fill:#CDD6F9;}
	.st41{fill:#FC4F42;}
	.st42{opacity:0.79;fill:#CE2D29;}
	.st43{fill:#6075B0;}
	.st44{fill:#794061;}
	.st45{fill:#072859;}
	.st46{fill:#F3885E;}
	.st47{fill:#FFBE62;}
	.st48{fill:#FBAF3D;}
	.st49{fill:#FFD72E;}
	.st50{fill:#F38154;}
	.st51{fill:#709B2C;}
	.st52{fill:#4C842F;}
	.st53{fill:none;stroke:#081344;stroke-width:4.5943;stroke-miterlimit:10;}
	.st54{fill:#517F38;}
	.st55{fill:#3B6837;}
	.st56{fill:#65B15B;}
	.st57{fill:#62324A;}
</style>
<line class="st0" x1="8.9" y1="482.8" x2="800" y2="482.8"/>
<g>
	
		<rect x="123.4" y="120.9" transform="matrix(-1 -1.224647e-16 1.224647e-16 -1 313.9226 369.5004)" class="st1" width="67.1" height="127.7"/>
	<g>
		<path class="st2" d="M48.9,203.8h215v-122c0-4.8-3.9-8.7-8.7-8.7H57.6c-4.8,0-8.7,3.9-8.7,8.7V203.8z"/>
		<path class="st2" d="M69.3,222.9h178.4c10.1,0,18.3-8.2,18.3-18.3v-4.4H51v4.4C51,214.7,59.2,222.9,69.3,222.9z"/>
		<path class="st3" d="M271.5,80.9v122.9l-52.8-0.7l-55.2-0.8l-17.4-0.3l-55.8-0.8l-33.8-0.5V80.9c0-4.3,3.9-7.8,8.8-7.8h197.5
			C267.6,73.1,271.5,76.6,271.5,80.9z"/>
		<path class="st4" d="M64.5,84.4v108.4c0,0.4,0.4,0.7,0.8,0.7h197.4c0.4,0,0.8-0.3,0.8-0.7V84.4c0-0.4-0.4-0.7-0.8-0.7H65.3
			C64.9,83.6,64.5,84,64.5,84.4z"/>
		<path class="st5" d="M74.8,222.9h178.4c10.1,0,18.3-8.2,18.3-18.3v-4.4h-215v4.4C56.5,214.7,64.7,222.9,74.8,222.9z"/>
	</g>
	<path class="st5" d="M121.7,249.1h89.9c2.8,0,5-2,5-4.4l0,0c0-2.4-2.2-4.4-5-4.4h-89.9c-2.8,0-5,2-5,4.4l0,0
		C116.7,247.1,119,249.1,121.7,249.1z"/>
	<g>
		<path class="st6" d="M254.1,102.7H77.2c-1.5,0-2.6-1.2-2.6-2.6v-8.6c0-1.5,1.2-2.6,2.6-2.6h176.9c1.5,0,2.6,1.2,2.6,2.6v8.6
			C256.7,101.5,255.5,102.7,254.1,102.7z"/>
		<g>
			<g>
				<path class="st7" d="M88.4,95.6c0,1.7-1.5,3-3.3,3c-1.8,0-3.3-1.4-3.3-3c0-1.7,1.5-3,3.3-3C86.9,92.5,88.4,93.9,88.4,95.6z"/>
			</g>
		</g>
		<g>
			<g>
				<ellipse class="st8" cx="97.2" cy="95.6" rx="3.3" ry="3"/>
			</g>
		</g>
		<g>
			<g>
				<ellipse class="st9" cx="109.4" cy="95.6" rx="3.3" ry="3"/>
			</g>
		</g>
		<path class="st10" d="M134.8,127H75.7c-0.9,0-1.6-0.7-1.6-1.6v-15.6c0-0.9,0.7-1.6,1.6-1.6h59.1c0.9,0,1.6,0.7,1.6,1.6v15.6
			C136.4,126.3,135.7,127,134.8,127z"/>
		<path class="st11" d="M207.4,150.7h-59.1c-0.9,0-1.6-0.7-1.6-1.6v-15.6c0-0.9,0.7-1.6,1.6-1.6h59.1c0.9,0,1.6,0.7,1.6,1.6v15.6
			C208.9,150,208.2,150.7,207.4,150.7z"/>
		<path class="st11" d="M255.1,127h-35.8c-0.9,0-1.6-0.7-1.6-1.6v-15.6c0-0.9,0.7-1.6,1.6-1.6h35.8c0.9,0,1.6,0.7,1.6,1.6v15.6
			C256.7,126.3,256,127,255.1,127z"/>
		<path class="st7" d="M255.1,151.1h-35.8c-0.9,0-1.6-0.7-1.6-1.6v-15.6c0-0.9,0.7-1.6,1.6-1.6h35.8c0.9,0,1.6,0.7,1.6,1.6v15.6
			C256.7,150.4,256,151.1,255.1,151.1z"/>
		<g>
			<rect x="147.1" y="123.3" class="st1" width="62.3" height="1.3"/>
			<rect x="147.1" y="118.5" class="st1" width="62.3" height="1.3"/>
			<rect x="147.1" y="113.7" class="st1" width="62.3" height="1.3"/>
			<rect x="147.1" y="108.9" class="st1" width="62.3" height="1.3"/>
		</g>
		<path class="st7" d="M134.8,174.1H75.7c-0.9,0-1.6-0.7-1.6-1.6v-15.6c0-0.9,0.7-1.6,1.6-1.6h59.1c0.9,0,1.6,0.7,1.6,1.6v15.6
			C136.4,173.4,135.7,174.1,134.8,174.1z"/>
		<g>
			<rect x="147.1" y="170.4" class="st1" width="62.3" height="1.3"/>
			<rect x="147.1" y="165.6" class="st1" width="62.3" height="1.3"/>
			<rect x="147.1" y="160.8" class="st1" width="62.3" height="1.3"/>
			<rect x="147.1" y="156" class="st1" width="62.3" height="1.3"/>
		</g>
		<g>
			<rect x="73.9" y="146.3" class="st1" width="62.3" height="1.3"/>
			<rect x="73.9" y="141.5" class="st1" width="62.3" height="1.3"/>
			<rect x="73.9" y="136.7" class="st1" width="62.3" height="1.3"/>
			<rect x="73.9" y="131.9" class="st1" width="62.3" height="1.3"/>
		</g>
	</g>
	<polygon class="st12" points="230.1,73.1 163.5,200.3 90.2,200.3 156.3,73.1 	"/>
</g>
<g>
	<path class="st13" d="M278.4,9.8l13.8,7.5c10,5.5,13.5,16.8,8.2,26c-1.1,1.8-1.7,3-1.6,2.9c0.5-0.5-21.1-36.3-21.1-36.3"/>
	<path class="st14" d="M242.8,126.3h-7.5c-6.4,0-11.7-5.3-11.7-11.7V87.4c0-6.4,5.3-11.7,11.7-11.7h7.5c6.4,0,11.7,5.3,11.7,11.7
		v27.2C254.5,121.1,249.2,126.3,242.8,126.3z"/>
	<path class="st13" d="M298.6,46.2c0.3,2.4-12.3,6.4-12.5,8.9l2.1,5.1c-15.5-5-1.8,2.6-1.8,2.6c-4.6,12.1-3,18.8-16.2,23.4
		c-6.6,2.3-13.8,3.3-21.3,2.9c-10.1-0.6-19,2.2-26.3-0.9c-1.5-0.6-2.9-1.5-4.3-2.7c-2.6-2.3-4.9-4.8-6.8-7.5
		c-0.7-1.1-1.5-2.1-2.1-3.3c-4-6.8-12.1-26.7-11.4-34.9c1.8-23.1,26.8-38.5,55.6-36.8c0.7,0,1.5,0.1,2.2,0.1
		c15.5,1,28.8,8.2,36.9,18.8c0.4,0.6,0.8,1.1,1.3,1.7c0,0,0,0,0,0c2.3,3.4,3.6,17.8,3.6,17.8C298,43.1,298.4,44.6,298.6,46.2z"/>
	<path class="st15" d="M297.4,53.6L297,60l-0.6,10.5l-1,3.7c-0.1,1.7-1,10.4-1.4,11.9c-3.3,14.9-14.3,18-31.4,19.9
		c-0.5,0.1-1,0.1-1.5,0.1c-1.8,0.2-3.7,0.2-5.6,0.1c-1.8-0.1-3.6-0.3-5.4-0.6c-3.4-0.5-6.7-1.5-9.7-2.8c0,0,0,0,0,0
		c-7.6-3.2-13.8-8.3-17.8-14.7c-3.1-4.8-4.9-10.2-5.1-16c0-0.4,0-0.8,0-1.2c0-0.5,0-0.9,0-1.4v-0.2l0-1.1l0.2-3l0.6-10.3l0-0.1v0
		l0.1-1.9l0.1-1.5l0.1-1.4l0-0.4c0.2-2.4,0.7-4.7,1.5-6.9c0.5-1.6,1.2-3.1,1.9-4.5c0.1-0.2,0.2-0.4,0.3-0.7c0.6-1.2,1.3-2.4,2.1-3.5
		c0,0,0,0,0,0c2.9-4.3,6.8-7.9,11.3-10.8c0.9-0.6,1.9-1.1,2.8-1.6c6.7-3.5,14.5-5.3,22.8-4.9c6.9,0.3,12,2.1,17.5,5.1
		c3.4,1.8,6.4,4,9,6.5c3.7,3.6,6.1,7.8,7.9,12.4c0.1,0.3,0.2,0.5,0.3,0.8c0.5,1.5,0.9,3.1,1.1,4.7C297.5,48.6,297.6,51.1,297.4,53.6
		z"/>
	<path class="st13" d="M283,22.2c8.4,20.5-13.7,18.8-14.7,28.2c-0.1,1.1-0.5,2.6-0.9,10.3l-1.7,4.8c-0.5,1.5-2.1,2.5-3.8,2.5
		c-2.2,0-4-1.6-4-3.5v-0.1l0.2-7.7l-4.3,10.1c-3.1,7.3-7.8,13.9-13.8,19.4c-4.9,4.6-10.7,8.5-17.2,11.5c0,0-27-14.2-27-46.6
		c0-2.6,0.2-5.3,0.5-8.1c0.3-2.5,0.8-4.9,1.4-7.1c11.2-40.3,67-26.5,72.4-24.7C275.9,13.3,283,22.2,283,22.2z"/>
	<path class="st15" d="M302.2,75.3c0,0.1,0,0.5,0,0.5c-0.1,2.2-2.2,4-7.6,3.8l0.8-17.3C299.7,68.3,301.8,71.7,302.2,75.3z"/>
	<path class="st13" d="M299.2,54.4h-11.9c-1.4,0-2.5-1-2.5-2.2l0,0c0-1.2,1.1-2.2,2.5-2.2h11.9c1.4,0,2.5,1,2.5,2.2v0
		C301.8,53.4,300.6,54.4,299.2,54.4z"/>
	<path class="st16" d="M292.5,62.4L292.5,62.4c-1,0-1.8-0.7-1.8-1.6v-2.3c0-0.9,0.8-1.6,1.8-1.6l0,0c1,0,1.8,0.7,1.8,1.6v2.3
		C294.3,61.6,293.5,62.4,292.5,62.4z"/>
	<path class="st17" d="M240,86.4c-4.9,4.6-10.7,8.5-17.2,11.5c0,0-27-14.2-27-46.6c0-2.6,0.2-5.3,0.5-8.1c0.3-2.5,0.8-4.9,1.4-7.1
		c1.2,6.2,4.3,15.5,12.4,27C222.4,80.7,235.6,85.3,240,86.4z"/>
	<path class="st13" d="M294.4,85l-0.4,12.1c0,10.3-13.8,14.5-24,13.5l-16.3-1.6l1.6-12.5l4.5-24l-7.2-17.9l14.8,5.4l0,0
		c-1.1,14.2,10.4,25.7,26.5,25.1L294.4,85z"/>
	<path class="st14" d="M256.9,54.2c1.6,0,3,1.2,3,2.7l-0.1,9l-0.1,7.9l-3.5,0c-0.3,0-0.5,0-0.8,0c-5.8-0.4-10.4-4.9-10.4-10.1
		c0-2.7,1.3-5,3.3-6.7c1.8-1.6,4.3-2.5,7-2.6l0,0c0.3,0,0.6-0.1,0.9,0L256.9,54.2z"/>
	<g>
		
			<rect x="152" y="317.5" transform="matrix(-1 -1.224647e-16 1.224647e-16 -1 397.9734 650.3073)" class="st16" width="93.9" height="15.3"/>
		<line class="st10" x1="120" y1="460.5" x2="120" y2="466.4"/>
		
			<rect x="511.2" y="318.8" transform="matrix(-1 -1.224647e-16 1.224647e-16 -1 1108.3549 652.8967)" class="st18" width="86" height="15.3"/>
		<rect x="583.3" y="266.7" class="st18" width="19.6" height="215.9"/>
		<rect x="504.8" y="265.4" class="st19" width="19.6" height="217.2"/>
		<rect x="504.8" y="256.6" class="st18" width="19.6" height="92.7"/>
		
			<rect x="41.9" y="318.8" transform="matrix(-1 -1.224647e-16 1.224647e-16 -1 169.8055 652.8967)" class="st18" width="86" height="15.3"/>
		<rect x="114.1" y="266.7" class="st18" width="19.6" height="215.9"/>
		<rect x="35.5" y="265.4" class="st18" width="19.6" height="217.2"/>
		<g>
			<rect x="397.5" y="121.7" class="st20" width="64.6" height="122.9"/>
			<g>
				<g>
					<path class="st21" d="M530.8,204.2H318.5V90.3c0-4.6,3.7-8.4,8.4-8.4h195.6c4.6,0,8.4,3.7,8.4,8.4V204.2z"/>
					<path class="st21" d="M511.1,222.6h-177c-9.7,0-17.6-7.9-17.6-17.6v-4.3h212.2v4.3C528.8,214.7,520.9,222.6,511.1,222.6z"/>
					<path class="st22" d="M523.5,89.4v114.8H311.2V89.4c0-4.1,3.8-7.5,8.5-7.5H515C519.7,82,523.5,85.3,523.5,89.4z"/>
					<path class="st23" d="M515.8,89.2v104.4c0,0.4-0.4,0.7-0.8,0.7H319.7c-0.4,0-0.8-0.3-0.8-0.7V89.2c0-0.4,0.4-0.7,0.8-0.7H515
						C515.4,88.5,515.8,88.8,515.8,89.2z"/>
					<path class="st24" d="M523.5,200.7v6.1c0,6.4-4.2,11.8-10.3,14.4c-2.3,1-4.9,1.5-7.6,1.5H329.1c-9.9,0-17.9-7.1-17.9-15.8v-6.1
						H523.5z"/>
				</g>
				<g>
					<g>
						<rect x="330.3" y="101.4" class="st6" width="66" height="2"/>
						<rect x="424.9" y="101.4" class="st21" width="31.2" height="2"/>
						<rect x="470" y="101.4" class="st8" width="31.2" height="2"/>
						<rect x="458.9" y="101.4" class="st6" width="7.4" height="2"/>
						<rect x="399.4" y="101.4" class="st7" width="21.9" height="2"/>
					</g>
					<g>
						<rect x="330.3" y="153.2" class="st6" width="66" height="2"/>
						<rect x="424.9" y="153.2" class="st21" width="31.2" height="2"/>
						<rect x="470" y="153.2" class="st8" width="31.2" height="2"/>
						<rect x="458.9" y="153.2" class="st6" width="7.4" height="2"/>
						<rect x="399.4" y="153.2" class="st5" width="21.9" height="2"/>
					</g>
					<g>
						
							<rect x="435.2" y="135.9" transform="matrix(-1 -1.224647e-16 1.224647e-16 -1 936.43 273.8392)" class="st6" width="66" height="2"/>
						
							<rect x="375.4" y="135.9" transform="matrix(-1 -1.224647e-16 1.224647e-16 -1 782.049 273.8392)" class="st21" width="31.2" height="2"/>
						
							<rect x="330.3" y="135.9" transform="matrix(-1 -1.224647e-16 1.224647e-16 -1 691.8748 273.8392)" class="st8" width="31.2" height="2"/>
						
							<rect x="365.2" y="135.9" transform="matrix(-1 -1.224647e-16 1.224647e-16 -1 737.8737 273.8392)" class="st6" width="7.4" height="2"/>
						
							<rect x="410.3" y="135.9" transform="matrix(-1 -1.224647e-16 1.224647e-16 -1 842.4011 273.8392)" class="st5" width="21.9" height="2"/>
					</g>
					<g>
						<rect x="330.3" y="110" class="st7" width="24.7" height="2"/>
						<rect x="404.3" y="110" class="st6" width="10.6" height="2"/>
						<rect x="449.4" y="110" class="st21" width="51.8" height="2"/>
						<rect x="417.7" y="110" class="st6" width="28" height="2"/>
						<rect x="358.1" y="110" class="st6" width="42.5" height="2"/>
					</g>
					<g>
						<rect x="330.3" y="161.8" class="st6" width="24.7" height="2"/>
						<rect x="404.3" y="161.8" class="st6" width="10.6" height="2"/>
						<rect x="449.4" y="161.8" class="st6" width="51.8" height="2"/>
						<rect x="417.7" y="161.8" class="st6" width="28" height="2"/>
						<rect x="358.1" y="161.8" class="st6" width="42.5" height="2"/>
					</g>
					<g>
						<rect x="330.3" y="144.5" class="st7" width="24.7" height="2"/>
						<rect x="404.3" y="144.5" class="st6" width="10.6" height="2"/>
						<rect x="449.4" y="144.5" class="st21" width="51.8" height="2"/>
						<rect x="417.7" y="144.5" class="st6" width="28" height="2"/>
						<rect x="358.1" y="144.5" class="st6" width="42.5" height="2"/>
					</g>
					<g>
						<rect x="330.3" y="118.7" class="st21" width="24.7" height="2"/>
						<rect x="358.1" y="118.7" class="st6" width="42.5" height="2"/>
					</g>
					<g>
						
							<rect x="375.9" y="127.3" transform="matrix(-1 -1.224647e-16 1.224647e-16 -1 776.5643 256.5954)" class="st21" width="24.7" height="2"/>
						
							<rect x="330.3" y="127.3" transform="matrix(-1 -1.224647e-16 1.224647e-16 -1 703.1466 256.5954)" class="st6" width="42.5" height="2"/>
					</g>
				</g>
			</g>
			<path class="st25" d="M461.3,247.8h-87.8c-2.3,0-4.2-1.9-4.2-4.2v-0.2c0-2.3,1.9-4.2,4.2-4.2h87.8c2.3,0,4.2,1.9,4.2,4.2v0.2
				C465.4,246,463.6,247.8,461.3,247.8z"/>
		</g>
		<path class="st26" d="M619.6,266.5h-273v-11.7c0-4.2,3.4-7.6,7.6-7.6H612c4.2,0,7.6,3.4,7.6,7.6V266.5z"/>
		<g>
			<path class="st27" d="M540.1,254v12.5H14.6V254c0-3.8,3.5-6.8,7.7-6.8h510.1C536.6,247.2,540.1,250.2,540.1,254z"/>
			<path class="st28" d="M388,247.2c-4.2,6-9.1,13.2-13.4,19.3H246.1l1.8-19.3H388z"/>
		</g>
		<g>
			
				<rect x="647" y="332.7" transform="matrix(-1 -6.647714e-07 6.647714e-07 -1 1428.9551 815.2774)" class="st29" width="135" height="149.8"/>
			
				<rect x="599.1" y="332.7" transform="matrix(-1 -6.764425e-07 6.764425e-07 -1 1330.9131 815.2778)" class="st30" width="132.7" height="149.8"/>
			<g>
				
					<rect x="597.6" y="344" transform="matrix(-1 -1.224647e-16 1.224647e-16 -1 1321.0682 728.4486)" class="st31" width="125.9" height="40.5"/>
				
					<rect x="597.6" y="391.5" transform="matrix(-1 -1.224647e-16 1.224647e-16 -1 1321.0682 823.5443)" class="st31" width="125.9" height="40.5"/>
				
					<rect x="597.6" y="439.1" transform="matrix(-1 -1.224647e-16 1.224647e-16 -1 1321.0682 921.5878)" class="st31" width="125.9" height="43.5"/>
			</g>
			<g>
				<path class="st4" d="M637.6,366.4h31.5c1.3,0,2.5-1,2.5-2.2l0,0c0-1.2-1.1-2.2-2.5-2.2h-31.5c-1.3,0-2.5,1-2.5,2.2l0,0
					C635.2,365.4,636.3,366.4,637.6,366.4z"/>
				<path class="st4" d="M636.4,413.6h31.5c1.3,0,2.5-1,2.5-2.2l0,0c0-1.2-1.1-2.2-2.5-2.2h-31.5c-1.3,0-2.5,1-2.5,2.2l0,0
					C634,412.6,635.1,413.6,636.4,413.6z"/>
				<path class="st4" d="M636.4,460.8h31.5c1.3,0,2.5-1,2.5-2.2v0c0-1.2-1.1-2.2-2.5-2.2h-31.5c-1.3,0-2.5,1-2.5,2.2l0,0
					C634,459.8,635.1,460.8,636.4,460.8z"/>
			</g>
		</g>
		<g>
			<g>
				<path class="st29" d="M291.2,491.7l63.1,0.6c3.8,0,6.8-2.6,6.9-6l0,0c0-2.6-1.8-4.9-4.5-5.7l-31.1-9.9l-34.1,0.4L291.2,491.7z"
					/>
				<path class="st16" d="M355.5,493.8l-63.9-0.2l0-4.1l68.4,0.2l0,0C360.1,492,358,493.8,355.5,493.8z"/>
			</g>
			<g>
				<line class="st32" x1="324.8" y1="478.8" x2="332.2" y2="471.8"/>
				<line class="st32" x1="330.2" y1="480.9" x2="337.6" y2="473.9"/>
				<line class="st32" x1="335.4" y1="483.6" x2="343.7" y2="475.7"/>
			</g>
			<g>
				<path class="st33" d="M289,473.3c3.7-54.5,2.7-104.8-2.1-115c-4.9-6.3-43.2-20.1-81.5-21.5l17.9-34.6
					c50.2,2.2,86.1,18.9,98.7,38c5.3,8,9.9,24.3,7.4,79.8c-1.3,29.1-2.9,51.9-2.9,51.9L289,473.3z"/>
			</g>
			<g>
				<path class="st34" d="M347.4,493.1l63.1,0.4c3.8,0,6.8-2.7,6.9-6l0,0c0-2.6-1.8-4.9-4.5-5.7l-31.1-9.8l-34.1,0.5L347.4,493.1z"
					/>
				<path class="st16" d="M411.7,495l-64.9,0l0-4.1l69.5,0l0,0C416.3,493.2,414.2,495,411.7,495z"/>
			</g>
			<g>
				<line class="st32" x1="380.9" y1="480.1" x2="388.3" y2="473.1"/>
				<line class="st32" x1="386.3" y1="482.1" x2="393.7" y2="475.1"/>
				<line class="st32" x1="391.5" y1="484.8" x2="399.8" y2="476.9"/>
			</g>
			<g>
				<path class="st33" d="M345.1,473.3c3.7-54.5,2.7-104.8-2.1-115c-4.9-6.3-43.2-20.1-81.5-21.5l17.9-34.6
					c50.2,2.2,86.1,18.9,98.7,38c5.3,8,9.9,24.3,7.4,79.8c-1.3,29.1-2.9,51.9-2.9,51.9L345.1,473.3z"/>
			</g>
			<path class="st33" d="M291.1,312.1c0,6.1-2.5,11.7-6.5,16c-5.2,5.6-13.1,9.2-22,9.2h-47.9c-1.4,0-2.8-0.1-4.2-0.3
				c-3.5-0.4-6.8-1.5-9.8-3c-0.5-0.3-1-0.5-1.5-0.8c-7.8-4.5-13-12.3-13-21.1l0.9-13.4l103.1-0.8L291.1,312.1z"/>
			<g>
				<g>
					<g>
						<path class="st14" d="M324,240.3l24.7-3.5c1.8-0.3,3-1.8,2.8-3.4l0,0c-0.3-1.6-2-2.7-3.8-2.4l-24.7,3.5
							c-1.8,0.3-3,1.8-2.8,3.4l0,0C320.5,239.5,322.2,240.6,324,240.3z"/>
						<path class="st14" d="M331.8,246.2l19.8-2.8c1.8-0.3,3-1.8,2.8-3.4l0,0c-0.3-1.6-2-2.7-3.8-2.4l-19.8,2.8
							c-1.8,0.3-3,1.8-2.8,3.4l0,0C328.3,245.4,330,246.5,331.8,246.2z"/>
						<path class="st14" d="M327.3,253.9l23.5-3.3c1.8-0.3,3-1.8,2.8-3.4l0,0c-0.3-1.6-2-2.7-3.8-2.4l-23.5,3.3
							c-1.8,0.3-3,1.8-2.8,3.4l0,0C323.7,253,325.5,254.1,327.3,253.9z"/>
					</g>
					<path class="st14" d="M334.6,234.7c-0.3,0-3.3,0-6.6-0.1c-5.7-0.1-11.3,1-16.4,3.2l-9.7,4.2c0,0,5.6,14.6,6.3,14.8
						c18.8,3,25.2-4.5,25.2-4.5L334.6,234.7z"/>
				</g>
				<rect x="311.8" y="234.6" class="st4" width="8.3" height="24"/>
			</g>
			<g>
				<path class="st33" d="M257.2,261.2c-19.6,0-37.6-10.1-45.8-26l-0.4-0.8L185.2,165l31.7-9.2l25.1,67.7c3,5.1,9,8.2,15.4,8.2
					l54.6-0.5l0.3,29.5l-54.6,0.5C257.5,261.2,257.4,261.2,257.2,261.2z"/>
			</g>
			<g>
				<g>
					<path class="st14" d="M435.4,232.5c-2-3.2-5.1-5.9-8.9-7.5c0,0-0.1,0-0.1,0c-5.1-2.2-10.7-3.3-16.4-3.2l-10.8,0.2
						c0,0-2.7,20.8-2.6,20.1c0.3-1.4,26.5-1,38.5-0.8c2.6,0,4.3-2.4,3-4.4L435.4,232.5z"/>
				</g>
				<rect x="392.7" y="220.4" class="st4" width="10.4" height="24.5"/>
			</g>
			<g>
				<path class="st35" d="M342,247.8c-19.6,0-37.6-10.1-45.8-25.9l-37-70.9l30.2-12.4l37,70.9c2.8,5.4,9,8.9,15.8,8.8l54.6-0.5
					l0.3,29.5l-54.6,0.5C342.3,247.8,342.2,247.8,342,247.8z"/>
			</g>
			<path class="st35" d="M299.9,164.8l-0.6,61.9l-0.8,78.8c0,0-1.9,1.9-7.6,4.6c-5,2.3-12.8,5.2-24.7,7.9
				c-13.9,3.2-33.4,3.7-50.1,3.3c-18.4-0.4-33.3-1.8-33.3-1.8l0.4-154.7c0-21.8,17.8-39.9,41.2-43.5c2.8-0.4,5.7-0.7,8.7-0.7H250
				C277.6,120.6,299.9,140.4,299.9,164.8z"/>
			<g>
				<g>
					<rect x="222.1" y="367.9" class="st19" width="16.9" height="85.6"/>
					<path class="st18" d="M222.1,372.8v18.7l16.9-5.4v-12.7C234.7,373.2,226.6,372.9,222.1,372.8z"/>
				</g>
				<path class="st3" d="M282.3,375.3H181.4c-5.2,0-9.4-3.7-9.4-8.3l0,0c0-4.6,4.2-8.3,9.4-8.3h100.9c5.2,0,9.4,3.7,9.4,8.3l0,0
					C291.7,371.6,287.5,375.3,282.3,375.3z"/>
				<g>
					<g>
						<path class="st3" d="M301.9,481.2h-10.5c0-10.5-10.2-19.1-22.8-19.1h-76.8c-12.6,0-22.8,8.5-22.8,19.1h-10.5
							c0-15.4,15-27.8,33.4-27.8h76.8C286.9,453.3,301.9,465.8,301.9,481.2z"/>
					</g>
					<rect x="218.1" y="440.1" class="st3" width="24.6" height="13.4"/>
				</g>
				<g>
					<ellipse class="st16" cx="163.2" cy="489.7" rx="8.8" ry="7.3"/>
					<path class="st1" d="M175.8,489h-24v-0.8c0-6.1,4.9-11,11-11h1.9c6.1,0,11,4.9,11,11V489z"/>
					<ellipse class="st16" cx="297.1" cy="489.7" rx="8.8" ry="7.3"/>
					<path class="st1" d="M309.7,489h-24v-0.8c0-6.1,4.9-11,11-11h1.9c6.1,0,11,4.9,11,11V489z"/>
				</g>
				<rect x="223.9" y="456.1" class="st3" width="14" height="26.4"/>
				<g>
					<ellipse class="st16" cx="231.2" cy="489.7" rx="8.8" ry="7.3"/>
					<path class="st1" d="M243.8,489h-24v-0.8c0-6.1,4.9-11,11-11h1.9c6.1,0,11,4.9,11,11V489z"/>
				</g>
			</g>
			<path class="st36" d="M96.3,206.8L118.9,351c1.4,8.8,9.7,15.4,19.7,15.7l82.4,0.8l-45.8-181.3l-58.5,0
				C104.2,186.2,94.6,195.9,96.3,206.8z"/>
			<path class="st37" d="M320.5,367.5H201.3c-8.5,0-15.4-6.9-15.4-15.4v-0.6c0-8.5,6.9-15.4,15.4-15.4h119.2
				c8.5,0,15.4,6.9,15.4,15.4v0.6C335.9,360.6,329,367.5,320.5,367.5z"/>
			<path class="st33" d="M210.2,160.1c-2.2,28.4,4,130.9,6,161.2c-18.4-0.4-33.3-1.8-33.3-1.8l0.4-154.7c0-21.8,17.8-39.9,41.2-43.5
				C224.4,121.3,212.8,126.6,210.2,160.1z"/>
			<polygon class="st4" points="267.6,123.3 216.1,123.3 216.1,110.5 267.6,115.9 			"/>
			<path class="st37" d="M184.4,347.7l-23.9-147.9c-1.1-6.6,4.5-12.7,12.4-13.6l0,0c7.9-0.9,15.2,3.8,16.3,10.4l23.9,147.9
				c1.1,6.6-4.5,12.7-12.4,13.6l0,0C192.8,358.9,188.8,363.9,184.4,347.7z"/>
			<path class="st33" d="M299.3,226.7l-0.8,78.8c0,0-1.9,1.9-7.6,4.6L279,191.3C279,191.3,289.9,215.3,299.3,226.7z"/>
		</g>
	</g>
	<path class="st38" d="M523.2,171.6l-5.9,29.1l-4.1,20.4c-2.3,1-4.9,1.5-7.6,1.5h-55.8c5.3-4.8,14.2-13,23.7-21.9
		c14.9-13.9,31.5-29.6,38.8-37.5L523.2,171.6z"/>
</g>
<g>
	<path class="st21" d="M492.5,246.9h110.4c0.6-0.8,1.1-1.7,1.4-2.6l24.7-78.9c1.2-3.8-2-7.5-6.4-7.5h-97.1c-3,0-5.6,1.8-6.4,4.3
		L492.5,246.9z"/>
	<path class="st5" d="M623.7,162.6l-24.7,78.9c-1.1,3.7-4.9,6.2-9.2,6.2H486.2l27.6-88.2c0.8-2.5,3.4-4.3,6.4-4.3h97.1
		C621.7,155.1,624.9,158.8,623.7,162.6z"/>
	<path class="st23" d="M618.3,166.1l-20.2,64.3l-4.2,13.5H491.1l4.2-13.5l21.1-67.2c0.7-2.4,3.2-4,5.9-4h90
		C616.4,159.1,619.4,162.6,618.3,166.1z"/>
	<g>
		<g>
			<polygon class="st39" points="557.8,167.9 526.1,167.9 526.8,165.9 558.5,165.9 			"/>
			<polygon class="st7" points="586.4,167.9 571.5,167.9 572.2,165.9 587.1,165.9 			"/>
			<polygon class="st5" points="608.1,167.9 593.1,167.9 593.8,165.9 608.8,165.9 			"/>
			<polygon class="st6" points="591.3,167.9 587.8,167.9 588.5,165.9 592,165.9 			"/>
			<polygon class="st5" points="569.7,167.9 559.2,167.9 559.9,165.9 570.4,165.9 			"/>
		</g>
		<g>
			<polygon class="st21" points="535.7,201.5 550.7,201.5 551.4,199.5 536.4,199.5 			"/>
			<polygon class="st8" points="514.1,201.5 529.1,201.5 529.8,199.5 514.8,199.5 			"/>
			<polygon class="st6" points="530.8,201.5 534.4,201.5 535.1,199.5 531.6,199.5 			"/>
		</g>
		<g>
			<polygon class="st7" points="535,176.3 523.1,176.3 523.8,174.3 535.7,174.3 			"/>
			<polygon class="st6" points="563.7,176.3 558.6,176.3 559.3,174.3 564.4,174.3 			"/>
			<polygon class="st7" points="605.1,176.3 580.2,176.3 580.9,174.3 605.8,174.3 			"/>
			<polygon class="st6" points="578.4,176.3 565,176.3 565.7,174.3 579.1,174.3 			"/>
			<polygon class="st6" points="556.8,176.3 536.5,176.3 537.2,174.3 557.5,174.3 			"/>
		</g>
		<g>
			<polygon class="st10" points="516.9,226.7 505.1,226.7 505.8,224.7 517.7,224.7 			"/>
		</g>
		<g>
			<polygon class="st21" points="532,184.7 520.1,184.7 520.8,182.7 532.7,182.7 			"/>
			<polygon class="st21" points="551.3,184.7 539.5,184.7 540.2,182.7 552,182.7 			"/>
			<polygon class="st6" points="598.8,184.7 578.4,184.7 579.1,182.7 599.5,182.7 			"/>
		</g>
		<g>
			<polygon class="st6" points="517.1,193.1 537.5,193.1 538.2,191.1 517.8,191.1 			"/>
		</g>
	</g>
	<polygon class="st5" points="599.5,230.4 595.1,243.8 489.8,243.8 494.1,230.4 	"/>
	<g>
		<path class="st5" d="M542.7,247.9H416.5c-3,0-5.4-2.1-5.4-4.7l0,0c0-2.6,2.4-4.7,5.4-4.7h126.2c3,0,5.4,2.1,5.4,4.7l0,0
			C548.1,245.7,545.7,247.9,542.7,247.9z"/>
	</g>
	<polygon class="st40" points="592.3,155.1 590.3,159.1 553.5,230.3 549.7,237.7 510,237.7 513.8,230.3 550.6,159.1 552.7,155.1 	
		"/>
	<polygon class="st40" points="475.6,88.5 421,194.3 362.6,194.3 417.2,88.5 	"/>
	<g>
		<g>
			<path class="st21" d="M590.6,247.6h-73c-3,0-5.4-2.1-5.4-4.7l0,0c0-2.6,2.4-4.7,5.4-4.7h73c3,0,5.4,2.1,5.4,4.7l0,0
				C595.9,245.4,593.5,247.6,590.6,247.6z"/>
		</g>
		<g>
			<rect x="553.9" y="241.2" class="st16" width="10.4" height="2.8"/>
			<rect x="543.2" y="241.2" class="st16" width="7.6" height="2.8"/>
		</g>
	</g>
</g>
<g>
	<g>
		<path class="st41" d="M487.8,209.1v38.7h-36.5v-38.7c0-1.7,1.6-3.1,3.5-3.1h29.5C486.2,206,487.8,207.4,487.8,209.1z"/>
		<g>
			<path class="st7" d="M451.7,241.2c-0.5-0.2-11.7-6.1-12.7-16.2c-0.4-3.9,1.3-6.3,2.7-7.6c4-3.7,10.7-3.5,11.4-3.4l-0.3,4.7
				c-1.4-0.1-5.3,0.2-7.3,2c-1,0.9-1.4,2.2-1.2,3.9c0.8,7.7,9.9,12.5,10,12.5L451.7,241.2z"/>
		</g>
	</g>
	<path class="st7" d="M470.7,247.8h-19.4v-38.7c0-1.7,1.6-3.1,3.5-3.1h1.2c0.1,2,0.7,17.4,5.6,28.6
		C465.8,244.3,469.6,247.1,470.7,247.8z"/>
	<path class="st42" d="M439,224.9c0.9,9.2,10.1,14.8,12.2,16v6.9h19.4c-1.2-0.7-5-3.5-9.2-13.2c-4.9-11.1-5.5-26.5-5.6-28.6h-1.2
		c-1.9,0-3.5,1.4-3.5,3.1v4.8c-2.5,0.2-6.6,0.8-9.5,3.4C440.3,218.7,438.7,221.1,439,224.9z M445.6,220.6c1.4-1.3,3.9-1.8,5.7-1.9
		V235c-2.8-2.1-6.4-5.7-6.9-10.5C444.2,222.8,444.6,221.6,445.6,220.6z"/>
</g>
<g>
	<g>
		<polygon class="st43" points="65.2,226.5 61,225.8 71.1,175.3 75.3,176 		"/>
		<polygon class="st43" points="73.7,190.1 67.3,189 70.4,173.9 76.8,174.9 		"/>
	</g>
	<g>
		<polygon class="st44" points="58.3,232.9 54.1,232.6 58.9,181.5 61.5,178.2 63.1,181.8 		"/>
	</g>
	<g>
		<polygon class="st45" points="52.5,235.5 48.3,236.2 37.3,185.9 38.7,182.1 41.4,185.2 		"/>
	</g>
	<g>
		<polygon class="st46" points="61.7,247.2 43.8,247.2 37.9,205.2 67.6,205.2 		"/>
		<polygon class="st47" points="68.5,247.2 50.6,247.2 47.9,205.2 74.4,205.2 		"/>
	</g>
</g>
<g>
	<g>
		<path class="st37" d="M622.6,310.6v23.1h91.3c5.7,0,10.5-3.2,12.3-7.7c0.5-1.2,0.8-2.5,0.8-3.9c0-3.2-1.5-6.1-3.8-8.2
			c-2.4-2.1-5.6-3.4-9.3-3.4H622.6z"/>
		<path class="st42" d="M643,326.1v7.7h70.9c5.7,0,10.5-3.2,12.3-7.7H643z"/>
		<path class="st36" d="M603.1,310.6l0,23.2l59.9,0c7.2,0,13.1-5.2,13.1-11.6c0-3.2-1.5-6.1-3.8-8.2c-2.4-2.1-5.6-3.4-9.3-3.4
			L603.1,310.6z"/>
		<path class="st4" d="M603.1,314.6l0,14.8l56.3,0c4.6,0,8.4-3.3,8.4-7.4c0-2.1-0.9-3.9-2.5-5.3c-1.5-1.3-3.6-2.2-5.9-2.2
			L603.1,314.6z"/>
	</g>
	<g>
		<path class="st48" d="M620.8,264.6v23.2l91.3,0c7.2,0,13.1-5.2,13.1-11.6c0-3.2-1.5-6.1-3.8-8.2c-2.4-2.1-5.6-3.4-9.3-3.4
			L620.8,264.6z"/>
		<path class="st49" d="M641.5,272.3v-7.7h70.9c5.7,0,10.5,3.2,12.3,7.7H641.5z"/>
		<path class="st50" d="M603.1,264.6v23.2l59.9,0c7.2,0,13.1-5.2,13.1-11.6c0-3.2-1.5-6.1-3.8-8.2c-2.4-2.1-5.6-3.4-9.3-3.4
			L603.1,264.6z"/>
		<path class="st4" d="M603.1,268.6v14.8l56.3,0c4.6,0,8.4-3.3,8.4-7.4c0-2.1-0.9-3.9-2.5-5.3c-1.5-1.3-3.6-2.2-5.9-2.2L603.1,268.6
			z"/>
	</g>
	<g>
		<path class="st9" d="M616.1,287.9V311h91.3c7.2,0,13.1-5.2,13.1-11.6c0-2-0.6-3.8-1.5-5.4c-0.6-1-1.4-1.9-2.3-2.8
			c-2.4-2.1-5.6-3.4-9.2-3.4H616.1z"/>
		<path class="st51" d="M618.5,287.9v6.1H719c-0.6-1-1.4-1.9-2.3-2.8c-2.4-2.1-5.6-3.4-9.2-3.4H618.5z"/>
		<path class="st51" d="M618.5,311v-6.1l100.4,0c-0.6,1-1.4,1.9-2.3,2.8c-2.4,2.1-5.6,3.4-9.2,3.4L618.5,311z"/>
		<path class="st52" d="M592.2,287.9V311l54.8,0c7.2,0,13.1-5.2,13.1-11.6c0-3.2-1.5-6.1-3.8-8.2c-2.4-2.1-5.6-3.4-9.3-3.4
			L592.2,287.9z"/>
		<path class="st4" d="M592.2,291.9v14.8l51.3,0c4.6,0,8.4-3.3,8.4-7.4c0-2.1-0.9-3.9-2.5-5.3c-1.5-1.3-3.6-2.2-5.9-2.2L592.2,291.9
			z"/>
	</g>
</g>
<g>
	<g>
		<g>
			<path class="st16" d="M630.2,152L630.2,152c-4.4-4.1-4-10.5,0.8-14.2l0.5-0.4c4.8-3.7,12.3-3.4,16.7,0.7v0
				c4.4,4.1,4,10.5-0.8,14.2l-0.5,0.4C642,156.4,634.6,156.1,630.2,152z"/>
			<path class="st31" d="M639.5,172l-11.5,8.9L595.4,150l11.5-8.9c8-6.1,19.4-7,28.2-2.7c2.2,1.1,4.3,2.5,6.1,4.2
				c4.5,4.2,6.6,9.7,6.3,15C647.2,162.9,644.5,168.1,639.5,172z"/>
			<path class="st8" d="M629.1,162.2l-11.5,8.9l-22.3-21l11.5-8.9c8-6.1,19.4-7,28.2-2.7c1.5,3,2.2,6.2,2,9.3
				C636.8,153.1,634.1,158.3,629.1,162.2z"/>
		</g>
		<path class="st5" d="M628.6,180.7c-3.5,2.7-13.7-1.8-22.9-10.2c-9.2-8.4-13.8-17.4-10.3-20.2c2.7-2.2,9.7,0.2,17.1,5.5
			c1.9,1.4,3.9,3,5.8,4.7c2.2,2.1,4.2,4.1,5.9,6.2C629.2,173,631.2,178.6,628.6,180.7z"/>
		<path class="st4" d="M624.1,166.7c-2.7,2.6-7.2,3.3-10.8,1.6c-4.2-2-5.7-6.6-3.3-10.1c0.6-1,1.5-1.7,2.5-2.3
			c1.9,1.4,3.9,3,5.8,4.7C620.5,162.6,622.4,164.7,624.1,166.7z"/>
	</g>
	<polyline class="st53" points="688.2,251.6 718,166.5 657.7,130.9 645,140.4 	"/>
	<g>
		<path class="st16" d="M664.3,131.4c0,3.5-3.3,6.3-7.4,6.3c-4.1,0-7.4-2.8-7.4-6.3c0-3.5,3.3-6.3,7.4-6.3
			C661,125.1,664.3,127.9,664.3,131.4z"/>
		<path class="st10" d="M660.6,131.4c0,1.7-1.7,3.2-3.7,3.2s-3.7-1.4-3.7-3.2c0-1.7,1.7-3.2,3.7-3.2S660.6,129.6,660.6,131.4z"/>
	</g>
	<path class="st10" d="M718.2,264.9h-76.7l0,0c0-7.5,6.8-13.5,15.2-13.5H703C711.4,251.4,718.2,257.4,718.2,264.9L718.2,264.9z"/>
	<rect x="657.3" y="248" class="st16" width="13.8" height="3.7"/>
	<g>
		<ellipse class="st16" cx="717.4" cy="167.3" rx="10.4" ry="8.9"/>
		<ellipse class="st10" cx="717.4" cy="167.3" rx="5.2" ry="4.4"/>
	</g>
</g>
<g>
	<g>
		<path class="st54" d="M784.1,269.9c-11.3,13.6-33.8,15.8-33.8,15.8s-4.3-19.7,6.9-33.3c11.3-13.6,33.8-15.8,33.8-15.8
			S795.3,256.3,784.1,269.9z"/>
		<path class="st55" d="M736.8,261.8c10.3,9,9.8,24.3,9.8,24.3s-17.3,0.7-27.6-8.3c-10.3-9-9.8-24.3-9.8-24.3
			S726.5,252.8,736.8,261.8z"/>
		<path class="st56" d="M762.4,255c2.1,16.7-12.8,31.9-12.8,31.9s-18.3-11.9-20.4-28.7c-2.1-16.7,12.8-31.9,12.8-31.9
			S760.3,238.3,762.4,255z"/>
	</g>
	<g>
		<polygon class="st57" points="761,333.1 721.8,333.1 709,282.5 773.8,282.5 		"/>
		<polygon class="st34" points="775.8,333.1 736.6,333.1 730.8,282.5 788.6,282.5 		"/>
	</g>
</g>
</svg>
