<svg width="514" height="290" viewBox="0 0 514 290" fill="none" xmlns="http://www.w3.org/2000/svg">
<g clip-path="url(#clip0)">
<path d="M498.707 21.0197V250.673C498.707 253.467 498.245 256.232 497.346 258.813C496.447 261.393 495.129 263.738 493.468 265.713C491.806 267.688 489.834 269.255 487.664 270.324C485.494 271.393 483.167 271.943 480.818 271.943H72.955C68.2105 271.943 63.6603 269.702 60.3054 265.713C56.9505 261.724 55.0657 256.314 55.0657 250.673V21.0197C55.1238 15.4232 57.0339 10.0791 60.3822 6.14492C63.7305 2.2107 68.2475 0.00302837 72.955 0H480.818C485.526 0.00302837 490.043 2.2107 493.391 6.14492C496.739 10.0791 498.649 15.4232 498.707 21.0197V21.0197Z" fill="white"/>
<path opacity="0.3" d="M158.7 49.9219H88.999C86.9603 49.9236 85.0056 50.8877 83.5646 52.6023C82.1235 54.3169 81.314 56.6416 81.314 59.0655V171.501C81.3155 173.925 82.1264 176.249 83.5685 177.963C85.0106 179.676 86.9659 180.638 89.0046 180.638H158.7C159.71 180.639 160.71 180.404 161.643 179.945C162.577 179.486 163.425 178.813 164.14 177.965C164.854 177.116 165.421 176.109 165.808 175C166.196 173.891 166.395 172.702 166.396 171.501V59.0655C166.396 57.8642 166.197 56.6746 165.81 55.5648C165.423 54.4551 164.856 53.4468 164.142 52.5977C163.427 51.7485 162.578 51.0751 161.645 50.616C160.711 50.1569 159.71 49.921 158.7 49.9219Z" fill="#6C63FF"/>
<path d="M498.707 21.0197H55.0657C55.1238 15.4232 57.0339 10.0791 60.3822 6.14492C63.7305 2.2107 68.2475 0.00302837 72.955 0H480.818C485.526 0.00302837 490.043 2.2107 493.391 6.14492C496.739 10.0791 498.649 15.4232 498.707 21.0197V21.0197Z" fill="#484848"/>
<path d="M72.1926 15.1079C74.3285 15.1079 76.06 13.0493 76.06 10.5099C76.06 7.97043 74.3285 5.9118 72.1926 5.9118C70.0567 5.9118 68.3253 7.97043 68.3253 10.5099C68.3253 13.0493 70.0567 15.1079 72.1926 15.1079Z" fill="#F2F2F2"/>
<path d="M83.7947 15.1079C85.9306 15.1079 87.6621 13.0493 87.6621 10.5099C87.6621 7.97043 85.9306 5.9118 83.7947 5.9118C81.6588 5.9118 79.9273 7.97043 79.9273 10.5099C79.9273 13.0493 81.6588 15.1079 83.7947 15.1079Z" fill="#F2F2F2"/>
<path d="M95.3968 15.1079C97.5327 15.1079 99.2641 13.0493 99.2641 10.5099C99.2641 7.97043 97.5327 5.9118 95.3968 5.9118C93.2609 5.9118 91.5294 7.97043 91.5294 10.5099C91.5294 13.0493 93.2609 15.1079 95.3968 15.1079Z" fill="#F2F2F2"/>
<path d="M285.87 42.6964H200.501C198.902 42.6964 197.606 44.2374 197.606 46.1383V60.931C197.606 62.8319 198.902 64.3729 200.501 64.3729H285.87C287.469 64.3729 288.765 62.8319 288.765 60.931V46.1383C288.765 44.2374 287.469 42.6964 285.87 42.6964Z" fill="#E6E6E6"/>
<path d="M468.188 42.6964H382.819C381.22 42.6964 379.924 44.2374 379.924 46.1383V60.931C379.924 62.8319 381.22 64.3729 382.819 64.3729H468.188C469.787 64.3729 471.083 62.8319 471.083 60.931V46.1383C471.083 44.2374 469.787 42.6964 468.188 42.6964Z" fill="#E6E6E6"/>
<path d="M467.21 86.0495H201.478C199.34 86.0495 197.606 88.1111 197.606 90.6541V222.014C197.606 224.557 199.34 226.619 201.478 226.619H467.21C469.349 226.619 471.083 224.557 471.083 222.014V90.6541C471.083 88.1111 469.349 86.0495 467.21 86.0495Z" fill="#E6E6E6"/>
<path d="M447.868 102.471H220.821C220.357 102.471 219.981 102.918 219.981 103.47V108.041C219.981 108.593 220.357 109.04 220.821 109.04H447.868C448.332 109.04 448.708 108.593 448.708 108.041V103.47C448.708 102.918 448.332 102.471 447.868 102.471Z" fill="#F2F2F2"/>
<path d="M447.868 120.863H220.821C220.357 120.863 219.981 121.31 219.981 121.862V126.434C219.981 126.985 220.357 127.432 220.821 127.432H447.868C448.332 127.432 448.708 126.985 448.708 126.434V121.862C448.708 121.31 448.332 120.863 447.868 120.863Z" fill="#F2F2F2"/>
<path d="M447.868 139.256H220.821C220.357 139.256 219.981 139.703 219.981 140.254V144.826C219.981 145.377 220.357 145.824 220.821 145.824H447.868C448.332 145.824 448.708 145.377 448.708 144.826V140.254C448.708 139.703 448.332 139.256 447.868 139.256Z" fill="#F2F2F2"/>
<path d="M447.868 157.648H220.821C220.357 157.648 219.981 158.095 219.981 158.646V163.218C219.981 163.77 220.357 164.217 220.821 164.217H447.868C448.332 164.217 448.708 163.77 448.708 163.218V158.646C448.708 158.095 448.332 157.648 447.868 157.648Z" fill="#F2F2F2"/>
<path d="M447.868 176.04H220.821C220.357 176.04 219.981 176.487 219.981 177.039V181.61C219.981 182.162 220.357 182.609 220.821 182.609H447.868C448.332 182.609 448.708 182.162 448.708 181.61V177.039C448.708 176.487 448.332 176.04 447.868 176.04Z" fill="#F2F2F2"/>
<path d="M447.868 194.432H220.821C220.357 194.432 219.981 194.88 219.981 195.431V200.003C219.981 200.554 220.357 201.001 220.821 201.001H447.868C448.332 201.001 448.708 200.554 448.708 200.003V195.431C448.708 194.88 448.332 194.432 447.868 194.432Z" fill="#F2F2F2"/>
<path d="M86.7283 134.263C83.9052 135.538 77.3362 135.682 74.4025 135.676C73.5185 135.676 72.9661 135.676 72.9661 135.676L71.0931 131.143L72.9661 127.36C72.9661 127.36 74.6843 126.801 76.966 126.309C80.3361 125.586 84.9438 124.995 87.1427 126.644C90.8277 129.35 90.4134 132.602 86.7283 134.263Z" fill="#FEC2BE"/>
<path opacity="0.1" d="M74.4025 135.676C73.5185 135.676 72.9661 135.676 72.9661 135.676L71.0931 131.143L72.9661 127.36C72.9661 127.36 74.6843 126.801 76.966 126.309C75.1152 127.925 70.6622 131.432 74.4025 135.676Z" fill="black"/>
<path d="M43.3807 80.0064L44.2095 78.87C44.2095 78.87 48.4636 86.8838 48.9111 89.9053C49.3586 92.9269 49.9276 96.4018 49.9276 96.4018C49.9276 96.4018 51.0326 100.343 51.7066 102.071C52.3806 103.798 53.0436 105.473 53.1044 106.228C53.1652 106.984 52.8503 108.646 54.2094 109.703C55.5685 110.761 55.8668 113.645 55.8668 113.645C55.8668 113.645 60.6955 119.241 63.2369 119.392C65.7783 119.543 73.0931 121.054 72.839 122.565C72.5848 124.076 75.8887 124.982 77.2201 125.356C78.5516 125.731 68.6401 130.27 74.4246 136.09C74.4246 136.09 70.7396 136.996 70.3584 138.06C69.9771 139.124 66.0987 137.456 66.0987 137.456C66.0987 137.456 65.2755 135.117 62.4137 134.966C59.5518 134.815 58.0933 133.298 58.0933 133.075C58.0933 132.851 55.2314 130.96 53.6403 130.447C52.0492 129.935 49.9553 129.692 49.889 129.166C49.8227 128.641 40.3587 80.0458 40.3587 80.0458L43.3807 80.0064Z" fill="#4C4981"/>
<path d="M43.3807 80.0064L44.2095 78.87C44.2095 78.87 48.4636 86.8838 48.9111 89.9053C49.3586 92.9269 49.9276 96.4018 49.9276 96.4018C49.9276 96.4018 51.0326 100.343 51.7066 102.071C52.3806 103.798 53.0436 105.473 53.1044 106.228C53.1652 106.984 52.8503 108.646 54.2094 109.703C55.5685 110.761 55.8668 113.645 55.8668 113.645C55.8668 113.645 60.6955 119.241 63.2369 119.392C65.7783 119.543 73.0931 121.054 72.839 122.565C72.5848 124.076 75.8887 124.982 77.2201 125.356C78.5516 125.731 68.6401 130.27 74.4246 136.09C74.4246 136.09 70.7396 136.996 70.3584 138.06C69.9771 139.124 66.0987 137.456 66.0987 137.456C66.0987 137.456 65.2755 135.117 62.4137 134.966C59.5518 134.815 58.0933 133.298 58.0933 133.075C58.0933 132.851 55.2314 130.96 53.6403 130.447C52.0492 129.935 49.9553 129.692 49.889 129.166C49.8227 128.641 40.3587 80.0458 40.3587 80.0458L43.3807 80.0064Z" fill="#192534"/>
<path d="M33.4803 289.711C25.0936 291.583 23.5633 283.931 23.5633 283.931C23.5633 283.931 22.5191 277.125 22.1379 276.62C22.0888 276.522 22.0575 276.413 22.0461 276.3C22.0347 276.186 22.0434 276.072 22.0716 275.963V275.963C22.2977 274.809 22.7167 273.721 23.3036 272.764C23.8285 272.028 23.3975 268.967 23.3975 268.967L33.1212 266.018C33.5351 267.111 33.8553 268.251 34.077 269.42C34.1709 270.498 35.6018 275.372 35.4582 276.048C35.3145 276.725 36.077 278.827 36.1709 279.904C36.2648 280.981 37.4582 282.571 37.5576 283.136C37.7161 283.646 37.9006 284.144 38.1101 284.627C38.3671 285.375 38.574 286.146 38.7289 286.932C39.1543 289.31 33.4803 289.711 33.4803 289.711Z" fill="#3F3D56"/>
<path opacity="0.1" d="M33.4803 289.711C25.0936 291.583 23.5633 283.931 23.5633 283.931C23.5633 283.931 22.5191 277.125 22.1379 276.62C22.0888 276.522 22.0575 276.413 22.0461 276.3C22.0347 276.186 22.0434 276.072 22.0716 275.963L24.0881 282.847C24.0881 282.847 25.7456 286.985 31.9555 286.361C35.4803 286.006 37.2206 285.231 38.0604 284.62C38.3174 285.368 38.5243 286.139 38.6791 286.926C39.1543 289.31 33.4803 289.711 33.4803 289.711Z" fill="black"/>
<path opacity="0.1" d="M26.95 278.938C26.95 278.938 29.0494 278.998 29.1931 276.968L26.95 278.938Z" fill="black"/>
<path d="M63.4192 211.951C62.3695 213.817 61.1762 221.981 61.1762 221.981C60.72 223.056 60.4602 224.234 60.4137 225.437C60.4635 227.026 59.6513 229.916 59.6513 229.916L57.0049 241.648C57.0049 241.648 57.2922 244.768 56.2922 246.975C55.2923 249.182 55.3862 248.506 55.8613 252.362C56.3364 256.217 55.3088 259.784 53.574 260.901C51.8392 262.017 54.3365 264.697 54.3365 264.697C54.3365 264.697 43.3697 268.212 41.0769 266.057C38.7841 263.903 42.2703 253.248 42.2703 253.248C42.2703 253.248 41.7178 244.289 42.0769 242.988C42.436 241.687 44.0824 230.573 44.0824 230.573C44.0824 230.573 45.0824 225.529 44.7012 224.661C44.32 223.794 44.9388 221.377 44.9388 221.377C44.9388 221.377 46.5575 218.651 46.4139 217.804C46.2702 216.956 46.8945 215.426 46.8945 215.426C46.8945 215.426 42.0327 206.584 42.4747 204.916C42.9167 203.248 42.2869 200.614 42.2869 200.614C42.2869 200.614 41.6736 199.359 40.9333 197.861C40.0272 196.022 38.9333 193.815 38.5687 193.132C38.0991 192.252 36.972 188.534 36.3587 186.392C36.0936 185.479 35.9168 184.855 35.9168 184.855C35.9168 184.855 35.1488 201.52 34.4858 203.248C33.8229 204.975 32.8284 218.356 32.8284 218.356C32.4577 219.552 32.2942 220.826 32.3477 222.1C32.4472 224.195 30.8229 233.319 30.8229 233.319C30.8229 233.319 30.1102 239.783 30.5853 241.484C31.0605 243.185 30.6793 255.705 30.6793 255.705C30.6793 255.705 33.3035 258.142 33.9941 260.014C34.6847 261.886 33.9002 266.983 33.9002 266.983C33.9002 266.983 26.2705 271.522 22.8838 270.333C19.497 269.144 20.8838 262.28 20.8838 262.28C20.8838 262.28 18.5965 257.748 18.5965 255.994C18.4275 253.597 18.1565 251.212 17.7844 248.847C14.8783 242.502 16.0219 227.085 15.5468 225.857C15.0717 224.629 16.5468 219.945 17.7567 217.869C18.9667 215.794 18.475 210.105 17.7567 208.457C17.0385 206.808 18.475 201.146 18.475 201.146C18.475 201.146 17.0938 190.15 17.138 188.448C17.1822 186.747 15.9501 181.709 15.9501 181.709C15.9501 181.709 14.707 179.081 14.9943 178.306C15.2816 177.531 14.0385 175.475 14.3756 174.569C14.7126 173.662 14.0883 170.884 13.4695 169.235C13.0076 167.534 12.6676 165.789 12.4529 164.02C12.1601 162.049 11.9446 160.341 11.9446 160.341L19.812 152.8L39.3256 146.711L46.7178 143.88L53.9 157.365C53.9 157.365 54.6403 158.778 55.2978 160.407C55.8503 161.806 56.3696 163.369 56.2812 164.348C56.1622 165.576 56.3979 166.815 56.9497 167.862C56.9497 167.862 61.2425 184.015 61.143 188.659C61.0436 193.303 62.6679 203.51 62.6679 203.51C62.6679 203.51 64.4689 210.079 63.4192 211.951Z" fill="#192534"/>
<path d="M34.3808 80.5713C34.077 80.4202 13.3369 70.2387 16.1932 68.2156C17.8893 67.0135 19.9777 61.9228 21.4031 57.9356C22.4031 55.1571 23.0605 52.9106 23.0605 52.9106C23.0605 52.9106 39.7068 49.3964 33.751 61.5287C32.8111 63.3873 32.1039 65.3987 31.6516 67.4996C29.9665 75.763 34.2372 80.4202 34.3808 80.5713Z" fill="#FEC2BE"/>
<path opacity="0.1" d="M33.7676 61.5287C32.8277 63.3873 32.1204 65.3987 31.6682 67.4996C29.5557 67.3276 27.523 66.4716 25.7905 65.0243C24.058 63.5769 22.6917 61.5934 21.8395 59.2888C21.6736 58.8474 21.5279 58.3957 21.4031 57.9356C22.4031 55.1571 23.0605 52.9106 23.0605 52.9106C23.0605 52.9106 39.7233 49.3964 33.7676 61.5287Z" fill="black"/>
<path d="M44.11 53.2522C44.1107 56.4245 43.1939 59.5007 41.5133 61.9648C39.8328 64.4288 37.4907 66.1308 34.8799 66.7854C32.269 67.4399 29.5483 67.0072 27.174 65.5597C24.7997 64.1123 22.9163 61.7381 21.8395 58.8355C21.1832 57.0779 20.8462 55.1753 20.8506 53.2522C20.849 49.9187 21.8604 46.6967 23.6985 44.1794C25.5366 41.6622 28.0778 40.0193 30.854 39.5531C33.6302 39.087 36.4546 39.829 38.8072 41.6425C41.1597 43.456 42.882 46.219 43.657 49.4226C43.96 50.6671 44.1126 51.9566 44.11 53.2522V53.2522Z" fill="#FEC2BE"/>
<path opacity="0.1" d="M55.3475 160.407C54.132 161.72 53.6624 164.23 53.6624 164.23C53.6624 164.23 47.9442 168.874 48.3255 165.924C48.7067 162.975 45.3697 151.079 45.3697 151.079L45.7509 167.284C45.7509 167.284 27.4417 166.266 26.1102 164.657C24.7787 163.047 16.9556 160.006 16.9556 160.006C16.9556 160.006 14.5634 162.292 12.3645 164.026C12.0717 162.055 11.8562 160.348 11.8562 160.348L19.7236 152.807L39.3256 146.711L46.7177 143.88L53.9 157.365C53.9 157.365 54.6735 158.797 55.3475 160.407Z" fill="black"/>
<path d="M55.9331 159.126C54.4083 160.262 53.8337 163.317 53.8337 163.317C53.8337 163.317 48.1155 167.967 48.4967 165.018C48.8779 162.069 45.541 150.173 45.541 150.173L45.9222 166.378C45.9222 166.378 27.6185 165.36 26.2815 163.75C24.9445 162.141 17.1324 159.106 17.1324 159.106C17.1324 159.106 10.359 165.57 9.12146 165.018C7.8839 164.466 11.3314 153.457 11.3314 153.457L14.8562 89.0842C14.8562 89.0842 13.9059 69.93 15.3369 69.2469C15.5566 69.1416 15.7587 68.9903 15.9335 68.8002C16.8783 67.7952 17.16 65.7523 17.2429 64.0314C17.3368 61.9951 19.6241 63.0132 19.6241 63.0132L18.2926 65.0561L30.1047 73.5953L30.2096 73.6676C30.6702 73.3813 31.1443 73.1269 31.6295 72.9056C32.6737 72.4261 34.0659 71.9729 34.9775 72.4195C35.4828 72.7208 35.9132 73.1737 36.2261 73.7333C36.9002 74.9374 37.4406 76.24 37.8339 77.6088L42.088 86.24C42.088 86.24 44.2979 97.6892 44.2979 98.1424C44.2979 98.5957 44.9664 109.02 45.7288 110.157C46.4912 111.293 47.2536 116.955 46.9664 118.656C46.6791 120.358 47.4415 126.71 47.4415 126.71C50.5906 129.764 52.2094 140.195 52.2094 140.195C52.2094 140.195 57.1817 151.874 57.5463 153.234C57.911 154.594 57.4579 157.99 55.9331 159.126Z" fill="white"/>
<path opacity="0.1" d="M30.0881 74.0617C28.9279 76.1045 25.5854 78.975 25.5854 78.975L15.917 69.2665C16.8617 68.2615 17.1435 66.2187 17.2263 64.5043C17.3203 62.4614 19.6075 63.4795 19.6075 63.4795L19.3313 63.9065C19.1985 64.1097 19.1034 64.3439 19.0521 64.5939C19.0008 64.8438 18.9945 65.1038 19.0337 65.3568C19.0728 65.6099 19.1564 65.8502 19.2791 66.0621C19.4018 66.274 19.5608 66.4527 19.7456 66.5865L30.0881 74.0617Z" fill="black"/>
<path d="M30.0881 73.5822C28.9279 75.6251 25.5854 78.489 25.5854 78.489L15.917 68.8068C16.8617 67.8018 17.1435 65.7589 17.2263 64.0379C17.3203 62.0016 19.6075 63.0198 19.6075 63.0198L19.3313 63.4468C19.1985 63.6499 19.1034 63.8842 19.0521 64.1341C19.0008 64.3841 18.9945 64.6441 19.0337 64.8971C19.0728 65.1501 19.1564 65.3905 19.2791 65.6024C19.4018 65.8143 19.5608 65.993 19.7456 66.1268L30.0881 73.5822Z" fill="white"/>
<path opacity="0.1" d="M34.5576 75.1127C33.309 76.8863 31.5411 78.8963 31.624 77.8912C31.7068 76.8862 30.5687 74.6529 29.8394 73.6545C30.9722 73.2275 32.1932 73.2692 33.3035 73.7727C33.8165 74.075 34.2502 74.5384 34.5576 75.1127V75.1127Z" fill="black"/>
<path d="M34.7455 74.4295C33.4969 76.2031 31.729 78.2197 31.8118 77.2081C31.8947 76.1965 30.8726 74.5806 30.1544 73.5691C31.1986 73.0895 32.5908 72.6429 33.5024 73.0895C34.0094 73.3973 34.4384 73.8597 34.7455 74.4295V74.4295Z" fill="white"/>
<path d="M31.6184 83.8556C32.0395 83.8556 32.3809 83.4497 32.3809 82.9491C32.3809 82.4484 32.0395 82.0426 31.6184 82.0426C31.1974 82.0426 30.856 82.4484 30.856 82.9491C30.856 83.4497 31.1974 83.8556 31.6184 83.8556Z" fill="#192534"/>
<path d="M37.4029 108.344C37.824 108.344 38.1653 107.938 38.1653 107.437C38.1653 106.936 37.824 106.531 37.4029 106.531C36.9818 106.531 36.6405 106.936 36.6405 107.437C36.6405 107.938 36.9818 108.344 37.4029 108.344Z" fill="#192534"/>
<path d="M43.9498 133.127C44.3709 133.127 44.7122 132.721 44.7122 132.221C44.7122 131.72 44.3709 131.314 43.9498 131.314C43.5287 131.314 43.1874 131.72 43.1874 132.221C43.1874 132.721 43.5287 133.127 43.9498 133.127Z" fill="#192534"/>
<path d="M44.1432 160.105C44.5643 160.105 44.9056 159.699 44.9056 159.198C44.9056 158.698 44.5643 158.292 44.1432 158.292C43.7221 158.292 43.3808 158.698 43.3808 159.198C43.3808 159.699 43.7221 160.105 44.1432 160.105Z" fill="#192534"/>
<path d="M34.9886 95.4164C35.4096 95.4164 35.751 95.0106 35.751 94.5099C35.751 94.0093 35.4096 93.6035 34.9886 93.6035C34.5675 93.6035 34.2261 94.0093 34.2261 94.5099C34.2261 95.0106 34.5675 95.4164 34.9886 95.4164Z" fill="#192534"/>
<path d="M40.1377 120.581C40.5588 120.581 40.9001 120.175 40.9001 119.675C40.9001 119.174 40.5588 118.768 40.1377 118.768C39.7166 118.768 39.3753 119.174 39.3753 119.675C39.3753 120.175 39.7166 120.581 40.1377 120.581Z" fill="#192534"/>
<path d="M45.1598 145.292C45.5808 145.292 45.9222 144.886 45.9222 144.386C45.9222 143.885 45.5808 143.479 45.1598 143.479C44.7387 143.479 44.3973 143.885 44.3973 144.386C44.3973 144.886 44.7387 145.292 45.1598 145.292Z" fill="#192534"/>
<path d="M44.0161 163.126C44.4372 163.126 44.7785 162.72 44.7785 162.22C44.7785 161.719 44.4372 161.313 44.0161 161.313C43.595 161.313 43.2537 161.719 43.2537 162.22C43.2537 162.72 43.595 163.126 44.0161 163.126Z" fill="#192534"/>
<path opacity="0.1" d="M15.9225 69.352C15.9225 69.352 16.0495 67.9857 14.3976 70.3307C12.7457 72.6758 9.62972 74.712 9.62972 74.712C9.62972 74.712 2.57454 80.6238 2.19333 83.3301C1.81212 86.0364 -0.475144 97.8403 0.729263 101.768C1.93367 105.696 11.149 124.516 11.149 124.516C11.149 124.516 8.7347 127.918 9.30928 131.919C9.88386 135.919 10.58 141.443 10.2595 142.652C9.93911 143.86 10.6408 146.882 9.56343 147.94C8.48609 148.997 7.3535 150.81 10.7071 153.234C10.7071 153.234 11.3424 155.27 10.7678 155.723C10.1933 156.177 19.2208 160.867 22.7788 158.351C26.3367 155.835 32.7621 135.906 32.8891 131.419C33.0162 126.933 30.9168 112.226 29.7732 108.751C28.6295 105.276 25.1986 91.7446 23.7345 88.723C22.2705 85.7014 15.9225 69.352 15.9225 69.352Z" fill="black"/>
<path d="M15.5689 69.352C15.5689 69.352 15.696 67.9857 14.0441 70.3307C12.3921 72.6758 9.27614 74.712 9.27614 74.712C9.27614 74.712 2.22097 80.6238 1.83976 83.3301C1.45854 86.0364 -0.828721 97.8403 0.375686 101.768C1.58009 105.696 10.801 124.516 10.801 124.516C10.801 124.516 8.38665 127.925 8.93913 131.919C9.49161 135.912 10.2154 141.443 9.89492 142.652C9.57448 143.86 10.2761 146.882 9.1988 147.94C8.12146 148.997 6.98887 150.81 10.3424 153.234C10.3424 153.234 10.9778 155.27 10.4032 155.723C9.82862 156.177 18.8562 160.867 22.4141 158.351C25.9721 155.835 32.3974 135.906 32.5245 131.419C32.6516 126.933 30.5522 112.226 29.4085 108.751C28.2649 105.276 24.8229 91.7971 23.3589 88.769C21.8948 85.7408 15.5689 69.352 15.5689 69.352Z" fill="#192534"/>
<path opacity="0.1" d="M12.9999 82.1937C12.9999 82.1937 18.4639 89.3733 18.2761 94.1355C18.2761 94.1355 18.3313 86.4305 12.9999 82.1937Z" fill="black"/>
<path opacity="0.1" d="M20.5412 93.9844C20.5412 94.2143 24.2263 110.537 24.0384 112.574C23.8506 114.61 25.1158 120.66 25.1158 120.66L26.834 120.134C26.834 120.134 25.497 111.746 25.2428 108.646C24.9887 105.545 20.5412 93.9844 20.5412 93.9844Z" fill="black"/>
<path opacity="0.1" d="M22.0219 140.537C21.8948 140.76 13.3148 152.327 15.7291 153.155C18.1434 153.983 22.0219 140.537 22.0219 140.537Z" fill="black"/>
<path opacity="0.1" d="M14.9667 137.587C14.7788 137.738 11.5358 145.903 11.1546 143.709C10.7733 141.515 13.9501 149.68 14.4694 143.637L14.9667 137.587Z" fill="black"/>
<path opacity="0.1" d="M31.4472 71.9203C31.4472 71.9203 34.9886 69.352 39.4416 75.9206C39.4416 75.9206 42.6791 78.1146 43.6349 78.6466C44.5907 79.1787 45.668 93.2291 45.668 93.2291C45.668 93.2291 47.7674 99.2722 47.1929 102.754C46.6183 106.235 48.8503 118.164 48.8503 118.164C48.8503 118.164 52.5409 139.63 52.4138 140.234C52.2867 140.839 48.6569 133.508 48.7177 129.895C48.7785 126.283 45.668 114.932 45.226 114.249C44.784 113.566 41.7288 94.1487 41.7288 94.1487C41.7288 94.1487 39.2482 85.8853 37.6681 83.179C36.088 80.4727 34.1046 75.2966 33.2814 74.4098C32.6867 73.799 32.0227 73.2904 31.3091 72.8991L31.4472 71.9203Z" fill="black"/>
<path d="M31.3974 71.9203C31.3974 71.9203 35.3698 69.352 39.8228 75.9206C39.8228 75.9206 43.0603 78.1146 44.0161 78.6466C44.9719 79.1787 46.0492 93.2291 46.0492 93.2291C46.0492 93.2291 48.1486 99.2722 47.5741 102.754C46.9995 106.235 49.2315 118.164 49.2315 118.164C49.2315 118.164 52.9221 139.63 52.795 140.234C52.6679 140.839 49.0437 133.508 49.1044 129.882C49.1652 126.256 46.0547 114.919 45.6128 114.236C45.1708 113.553 42.1156 94.1355 42.1156 94.1355C42.1156 94.1355 39.6349 85.8984 38.0493 83.179C36.4637 80.4596 34.4858 75.2966 33.6626 74.4098C32.9564 73.7501 32.1604 73.2391 31.3091 72.8991L31.3974 71.9203Z" fill="#192534"/>
<path opacity="0.1" d="M43.5852 176.014C42.4802 178.891 41.5355 193.336 40.9001 197.92C39.9941 196.081 38.9002 193.874 38.5355 193.191C38.0659 192.311 36.9388 188.593 36.3256 186.452C37.0438 184.376 39.0272 178.425 39.0272 176.244C39.0272 173.577 42.6515 170.234 42.6515 170.234C43.3015 170.956 43.742 171.904 43.9098 172.943C44.0776 173.982 43.9639 175.057 43.5852 176.014V176.014Z" fill="black"/>
<path opacity="0.1" d="M19.276 220.392C19.276 220.392 27.6627 216.142 30.1433 219.144C32.624 222.146 19.276 220.392 19.276 220.392Z" fill="black"/>
<path opacity="0.1" d="M23.9942 222.093C23.9942 222.093 15.5081 227.762 18.4197 228.728C21.3313 229.693 23.9942 222.093 23.9942 222.093Z" fill="black"/>
<path opacity="0.1" d="M49.3531 217.16C49.3531 217.16 45.7343 217.449 47.1155 218.296C48.4967 219.144 49.3531 217.16 49.3531 217.16Z" fill="black"/>
<path opacity="0.1" d="M53.8834 218.467C53.8337 218.75 43.3476 222.776 45.3973 224.589C47.447 226.402 53.8834 218.467 53.8834 218.467Z" fill="black"/>
<path opacity="0.1" d="M20.5412 253.156C22.1158 252.867 30.8892 248.052 27.4528 251.508C26.5355 252.503 25.4073 253.183 24.1896 253.473C22.9718 253.764 21.7105 253.654 20.5412 253.156V253.156Z" fill="black"/>
<path opacity="0.1" d="M24.8506 256.953C24.8506 256.953 25.613 260.467 28.5245 260.014C31.4361 259.561 24.8506 256.953 24.8506 256.953Z" fill="black"/>
<path opacity="0.1" d="M22.4196 264.093C22.9445 263.922 29.1931 260.52 29.3312 262.123C29.4693 263.725 23.3754 266.484 22.9003 265.637C22.6235 265.185 22.4572 264.651 22.4196 264.093Z" fill="black"/>
<path opacity="0.1" d="M42.6404 260.014C43.4029 259.955 50.552 257.235 51.9829 259.673L42.6404 260.014Z" fill="black"/>
<path opacity="0.1" d="M49.1155 261.597C49.1155 261.597 50.3586 260.283 51.5961 260.94C52.8337 261.597 49.1155 261.597 49.1155 261.597Z" fill="black"/>
<path opacity="0.1" d="M33.2924 275.654C33.3739 276.133 33.5699 276.574 33.8571 276.923C34.1443 277.273 34.5104 277.517 34.9112 277.625L33.2924 275.654Z" fill="black"/>
<path d="M69.6622 280.975C69.1871 283.3 62.5131 283.523 59.3198 282.899C56.1264 282.275 49.4967 280.009 49.4967 280.009C49.4967 280.009 42.541 279.221 40.4913 278.196C38.4416 277.171 40.0603 274.57 40.0603 274.57V274.327C40.0106 273.381 39.8725 269.939 40.3642 269.013C40.9167 267.942 40.6018 264.415 40.6018 264.415C40.6018 264.415 50.469 266.681 50.6569 265.604C50.8447 264.527 52.3751 262.976 53.0878 262.655C53.8005 262.333 54.3309 265.492 54.3309 265.492C54.3309 265.492 58.8115 270.025 59.0988 271.667C59.3861 273.309 62.5297 274.163 62.5297 274.163C62.5297 274.163 67.2976 275.746 68.5352 276.541C68.8948 276.742 69.2048 277.051 69.4351 277.436C69.6654 277.822 69.8083 278.271 69.8501 278.741C69.9037 279.493 69.8401 280.25 69.6622 280.975V280.975Z" fill="#3F3D56"/>
<path opacity="0.1" d="M69.6622 280.975C69.1871 283.3 62.5131 283.523 59.3198 282.899C56.1265 282.275 49.4967 280.009 49.4967 280.009C49.4967 280.009 42.541 279.221 40.4913 278.196C38.4416 277.171 40.0603 274.57 40.0603 274.57V274.327L50.0381 276.955C50.0381 276.955 54.9497 279.451 58.0933 279.451C60.8557 279.451 66.9937 280.764 69.8501 278.794C69.8983 279.528 69.8347 280.267 69.6622 280.975V280.975Z" fill="black"/>
<path opacity="0.1" d="M56.1707 272.028C56.1707 272.028 55.6955 275.766 53.7895 277.014L56.1707 272.028Z" fill="black"/>
<path opacity="0.1" d="M43.657 49.4226C43.4803 49.5361 43.2954 49.6307 43.1045 49.7051C42.2095 49.9875 41.3366 49.2716 40.541 48.7001C39.7454 48.1286 38.6515 47.7016 37.9609 48.4439C37.0659 49.4095 37.7178 51.4852 36.7952 52.4179C36.2095 53.0091 35.2814 52.8055 34.6295 53.2916C33.9775 53.7776 33.7842 54.8418 33.6184 55.7614C33.4527 56.681 33.1267 57.732 32.3698 58.0013C31.6129 58.2706 30.9057 57.6794 30.1599 57.7123C30.0052 57.7123 29.8284 57.7451 29.7234 57.6072C29.6887 57.5487 29.6639 57.4826 29.6507 57.4127C29.6374 57.3428 29.6358 57.2705 29.6461 57.1999C29.7434 56.0971 29.6628 54.9824 29.4085 53.9156C29.2738 53.3843 29.0236 52.9048 28.6831 52.5253C28.3426 52.1459 27.9239 51.88 27.4693 51.7545C26.1323 51.5115 25.0052 52.904 24.2152 54.2177C23.3885 55.5987 22.6356 57.04 21.9611 58.5333C21.9194 58.6292 21.8825 58.7279 21.8506 58.8289C21.1943 57.0713 20.8573 55.1687 20.8616 53.2456C20.8601 49.9121 21.8714 46.6901 23.7096 44.1729C25.5477 41.6557 28.0888 40.0127 30.865 39.5465C33.6413 39.0804 36.4657 39.8224 38.8182 41.6359C41.1708 43.4494 42.8931 46.2124 43.668 49.4161L43.657 49.4226Z" fill="black"/>
<path d="M24.2042 53.9945C24.9942 52.6807 26.1158 51.2947 27.4583 51.5378C27.9113 51.6626 28.3281 51.9286 28.666 52.3084C29.0039 52.6882 29.2507 53.1681 29.3809 53.6989C29.6395 54.7647 29.7221 55.88 29.624 56.9832C29.603 57.1279 29.6308 57.2765 29.7013 57.397C29.8063 57.5284 29.9831 57.5087 30.1378 57.5021C30.8837 57.5021 31.6295 58.0473 32.3477 57.7911C33.066 57.535 33.4527 56.4774 33.6019 55.5512C33.751 54.625 33.9389 53.5806 34.6129 53.0814C35.2869 52.5822 36.1875 52.7989 36.7786 52.2012C37.6957 51.2684 37.0493 49.1993 37.9444 48.2272C38.635 47.4915 39.7344 47.9119 40.5244 48.4833C41.3145 49.0548 42.1819 49.7971 43.0879 49.4883C43.3837 49.3608 43.6733 49.2139 43.9553 49.0482C45.3697 48.3914 47.2039 49.4949 48.3752 48.3454C48.7985 47.8448 49.1018 47.219 49.2536 46.5324C49.5749 45.607 49.7923 44.6352 49.9 43.6422C49.9998 42.6409 49.768 41.6326 49.2536 40.8308C48.4967 39.7667 47.2205 39.5171 46.2537 38.7223C45.468 37.9906 44.8158 37.0765 44.3366 36.0357C43.8577 34.9946 43.2273 34.0628 42.4747 33.2835C42.0926 32.9002 41.6292 32.6492 41.1353 32.5577C40.6413 32.4662 40.1357 32.5377 39.6736 32.7645C39.3943 32.9955 39.0843 33.1687 38.7565 33.2769C38.4001 33.284 38.0493 33.1701 37.7455 32.9484C34.4306 31.0961 30.5908 31.4245 26.9666 31.9763C25.5056 32.1187 24.0722 32.5309 22.718 33.1981C22.0435 33.5389 21.4387 34.0486 20.9448 34.6925C20.451 35.3363 20.0796 36.0992 19.8561 36.9291C19.5578 38.2428 19.7843 39.7076 19.4307 41.0148C19.1877 41.9081 18.6904 42.6701 18.4086 43.5437C17.6407 45.9347 18.5633 48.5622 18.9611 51.078C19.3865 53.8302 19.1711 56.8058 20.1545 59.407C20.3479 59.9194 20.5633 60.8127 21.0495 60.4777C21.4086 60.2281 21.7567 58.7764 21.9611 58.3232C22.6329 56.8266 23.382 55.3809 24.2042 53.9945V53.9945Z" fill="#192534"/>
<path opacity="0.1" d="M3.2762 98.2935L1.55798 104.113C1.55798 104.113 5.62424 122.098 7.53029 125.875C9.43635 129.652 12.254 134.493 12.254 134.493C15.4384 136.198 18.9797 136.726 22.4196 136.011C27.8892 134.697 43.8393 131.321 43.8393 131.321C44.2163 131.402 44.6047 131.361 44.9635 131.201C45.3224 131.041 45.6383 130.77 45.878 130.414C46.5741 129.206 50.1983 128.601 50.1983 128.601C50.1983 128.601 54.3917 121.376 49.2426 118.328C49.2426 118.328 48.6072 119.99 45.878 118.853C43.1487 117.717 42.3145 119.76 42.3145 119.76C42.3145 119.76 37.8946 120.817 35.3864 120.417C32.8781 120.016 26.7456 119.885 26.1102 119.28C26.0291 119.197 25.935 119.134 25.8332 119.094C25.7314 119.054 25.624 119.039 25.5172 119.049C25.4104 119.058 25.3063 119.093 25.2108 119.151C25.1154 119.209 25.0305 119.289 24.9611 119.386C24.2219 119.069 23.5327 118.607 22.9224 118.019C22.4141 117.362 21.718 118.781 21.718 118.781C21.718 118.781 20.8285 118.17 21.0826 117.415C21.3368 116.66 20.2539 113.789 20.2539 113.789C19.9673 112.69 19.9029 111.527 20.0661 110.393C20.381 108.876 18.4749 103.437 18.4749 103.437C18.4507 102.521 18.5363 101.605 18.7291 100.717C19.0495 99.3576 16.3147 96.6382 16.3147 96.6382C16.3147 96.6382 13.6463 81.2215 7.98885 86.286C2.33146 91.3504 3.2762 98.2935 3.2762 98.2935Z" fill="black"/>
<path opacity="0.1" d="M44.2095 122.624C44.1432 123.156 42.7454 125.251 43.2537 125.645C43.762 126.04 44.5907 125.797 43.8062 127.012C43.0216 128.227 43.11 130.033 43.6183 129.803C44.1266 129.573 44.9553 126.861 44.9553 125.797C44.8318 124.703 44.5808 123.635 44.2095 122.624V122.624Z" fill="black"/>
<g opacity="0.1">
<path opacity="0.1" d="M29.3809 52.3851C29.2468 51.8553 28.9974 51.3769 28.6578 50.9986C28.3182 50.6202 27.9006 50.3553 27.4472 50.2306C26.1047 49.9875 24.9832 51.3801 24.1931 52.6938C23.3664 54.0747 22.6135 55.5161 21.939 57.0094C21.7346 57.4627 21.3865 58.9078 21.0274 59.1574C20.5412 59.499 20.3257 58.599 20.1324 58.0867C19.149 55.4921 19.3644 52.5099 18.939 49.7576C18.5949 48.1577 18.322 46.5374 18.1213 44.9034C17.9722 46.874 18.6241 48.9563 18.939 50.9663C19.3644 53.7185 19.149 56.7007 20.1324 59.3019C20.3257 59.8077 20.5412 60.7076 21.0274 60.366C21.3865 60.1164 21.7346 58.6713 21.939 58.2181C22.6135 56.7248 23.3664 55.2834 24.1931 53.9025C24.9832 52.5887 26.1047 51.1962 27.4472 51.4392C27.9006 51.5639 28.3182 51.8289 28.6578 52.2072C28.9974 52.5856 29.2468 53.0639 29.3809 53.5937C29.5358 54.143 29.6233 54.716 29.6406 55.295C29.7075 54.3143 29.6195 53.3273 29.3809 52.3851V52.3851Z" fill="black"/>
<path opacity="0.1" d="M49.2702 45.2318C49.1183 45.9183 48.8151 46.5442 48.3917 47.0447C47.2315 48.2008 45.3973 47.1104 43.9719 47.7542C43.6897 47.9177 43.4002 48.0624 43.1045 48.1877C42.2095 48.4767 41.3366 47.7607 40.541 47.1893C39.7454 46.6178 38.6515 46.1908 37.9609 46.9331C37.0659 47.8987 37.7178 49.9678 36.7952 50.9071C36.204 51.4983 35.2814 51.2947 34.6295 51.7808C33.9775 52.2668 33.7842 53.331 33.6184 54.2506C33.4527 55.1702 33.1267 56.2212 32.3643 56.4905C31.6019 56.7598 30.9057 56.1686 30.1544 56.2015C29.9997 56.2015 29.8229 56.2343 29.7179 56.0964C29.6943 56.0631 29.6757 56.0254 29.6627 55.9847C29.6627 56.2869 29.6627 56.5956 29.6627 56.8977C29.6524 56.9683 29.654 57.0407 29.6672 57.1105C29.6805 57.1804 29.7052 57.2465 29.74 57.305C29.845 57.4429 30.0218 57.4167 30.1765 57.4101C30.9223 57.4101 31.6682 57.9553 32.3864 57.6991C33.1046 57.4429 33.4913 56.3854 33.6405 55.4658C33.7897 54.5462 33.9775 53.4952 34.6515 52.9894C35.3256 52.4836 36.2261 52.7069 36.8173 52.1158C37.7399 51.183 37.088 49.1073 37.983 48.1746C38.6736 47.4323 39.773 47.8593 40.5631 48.4307C41.3531 49.0022 42.2205 49.7445 43.1266 49.4358C43.4305 49.3372 43.6791 49.127 43.994 48.9956C45.4083 48.3388 47.2426 49.4423 48.4138 48.2862C48.8291 47.7826 49.1246 47.157 49.2702 46.4733C49.5908 45.5498 49.8081 44.5803 49.9166 43.5896C49.9469 43.2534 49.9469 42.9143 49.9166 42.5781C49.7896 43.4898 49.5727 44.3805 49.2702 45.2318V45.2318Z" fill="black"/>
</g>
<path d="M136.324 40.7257H66.6236C62.3762 40.7257 58.9331 44.8194 58.9331 49.8693V162.299C58.9331 167.348 62.3762 171.442 66.6236 171.442H136.324C140.572 171.442 144.015 167.348 144.015 162.299V49.8693C144.015 44.8194 140.572 40.7257 136.324 40.7257Z" fill="#6C63FF"/>
<path d="M101.469 143.197C112.758 143.197 121.91 132.316 121.91 118.893C121.91 105.47 112.758 94.5888 101.469 94.5888C90.1789 94.5888 81.0268 105.47 81.0268 118.893C81.0268 132.316 90.1789 143.197 101.469 143.197Z" fill="#F2F2F2"/>
<path d="M131.844 171.442H71.1042C71.3104 165.96 73.2869 160.784 76.6222 156.991C79.9575 153.198 84.3947 151.081 89.0101 151.079H113.938C118.553 151.081 122.991 153.198 126.326 156.991C129.661 160.784 131.638 165.96 131.844 171.442V171.442Z" fill="#F2F2F2"/>
<path d="M48.8448 119.149C48.8448 119.149 56.4082 113.237 60.0657 116.167C63.7231 119.096 69.6954 123.195 63.817 126.177C57.9386 129.16 49.8227 128.582 49.8227 128.582L48.8448 119.149Z" fill="#FEC2BE"/>
<path d="M2.895 98.2935L1.20441 104.113C1.20441 104.113 5.27066 122.098 7.17672 125.875C9.08277 129.652 11.8562 134.493 11.8562 134.493C15.0406 136.198 18.582 136.726 22.0219 136.011C27.4914 134.697 43.4415 131.321 43.4415 131.321C43.8185 131.402 44.2069 131.361 44.5658 131.201C44.9246 131.042 45.2405 130.77 45.4802 130.414C46.1763 129.199 49.8227 128.582 49.8227 128.582C49.8227 128.582 54.016 121.356 48.8669 118.308C48.8669 118.308 48.2315 119.97 45.5023 118.834C42.773 117.697 41.9388 119.74 41.9388 119.74C41.9388 119.74 37.4913 120.798 35.0107 120.397C32.53 119.996 26.3699 119.865 25.7345 119.261C25.5738 119.091 25.3633 119.005 25.149 119.02C24.9347 119.034 24.7341 119.149 24.5909 119.34C23.8517 119.023 23.1626 118.561 22.5522 117.973C22.044 117.316 21.3478 118.735 21.3478 118.735C21.3478 118.735 20.4583 118.124 20.7125 117.369C20.9666 116.614 19.8838 113.743 19.8838 113.743C19.5971 112.644 19.5328 111.481 19.6959 110.347C20.0108 108.83 18.1048 103.391 18.1048 103.391C18.0806 102.475 18.1661 101.559 18.3589 100.671C18.6794 99.3117 15.9446 96.5922 15.9446 96.5922C15.9446 96.5922 13.2761 81.1756 7.6187 86.24C1.96131 91.3045 2.895 98.2935 2.895 98.2935Z" fill="#192534"/>
<path d="M483.945 276.304C485.603 272.685 483.724 268.245 481.58 265.019C479.437 261.794 476.824 258.451 476.879 254.319C476.956 248.407 482.238 244.919 486.453 241.786C489.58 239.457 492.465 236.699 495.05 233.569C496.13 232.359 497.024 230.934 497.691 229.358C498.564 227.052 498.536 224.418 498.481 221.889C498.3 213.455 497.95 205.028 497.431 196.607" stroke="#3F3D56" stroke-width="4" stroke-miterlimit="10"/>
<path d="M505.448 196.147C505.389 194.603 505.004 193.101 504.328 191.781C503.652 190.461 502.707 189.364 501.58 188.593L499.845 192.679L499.895 187.732C499.068 187.442 498.205 187.32 497.343 187.371C495.817 187.461 494.347 188.087 493.119 189.169C491.892 190.251 490.961 191.741 490.446 193.451C489.93 195.161 489.851 197.015 490.221 198.778C490.59 200.541 491.39 202.134 492.52 203.357C493.65 204.58 495.06 205.378 496.571 205.649C498.082 205.92 499.626 205.654 501.01 204.882C502.393 204.111 503.554 202.87 504.345 201.315C505.135 199.76 505.521 197.962 505.453 196.147H505.448Z" fill="#57B894"/>
<path d="M491.619 258.543C490.849 260.366 489.591 261.832 488.042 262.712C486.494 263.592 484.744 263.834 483.067 263.402C481.39 262.969 479.882 261.886 478.78 260.322C477.678 258.759 477.044 256.804 476.978 254.766C476.923 253.489 477.094 252.214 477.481 251.022C478.037 249.261 479.033 247.745 480.336 246.679C481.639 245.612 483.185 245.046 484.767 245.057C486.348 245.067 487.889 245.654 489.182 246.739C490.474 247.823 491.456 249.352 491.995 251.12L487.149 255.81L492.475 254.339C492.479 255.802 492.185 257.244 491.619 258.543Z" fill="#57B894"/>
<path d="M487.79 240.643C485.863 240.807 483.954 240.108 482.439 238.682C480.923 237.257 479.912 235.209 479.603 232.941C479.294 230.673 479.71 228.35 480.769 226.429C481.828 224.508 483.454 223.127 485.326 222.56L485.288 226.356L487.045 222.225C489.096 222.11 491.101 222.97 492.62 224.614C494.138 226.258 495.045 228.551 495.141 230.99C495.237 233.429 494.514 235.814 493.132 237.619C491.749 239.424 489.82 240.503 487.768 240.617L487.79 240.643Z" fill="#57B894"/>
<path d="M506.613 225.752C505.598 225.809 504.582 225.627 503.626 225.218C502.669 224.808 501.789 224.179 501.037 223.365C500.285 222.551 499.675 221.569 499.242 220.475C498.809 219.382 498.562 218.197 498.514 216.989C498.466 215.782 498.619 214.575 498.963 213.437C499.308 212.3 499.837 211.254 500.522 210.36C501.206 209.465 502.032 208.74 502.952 208.225C503.872 207.711 504.868 207.417 505.884 207.36C507.334 207.274 508.775 207.679 510.039 208.529L508.669 212.989L511.492 209.77C513.002 211.414 513.902 213.703 513.994 216.135C514.032 216.99 513.965 217.846 513.796 218.677C513.409 220.625 512.498 222.37 511.202 223.647C509.906 224.923 508.295 225.662 506.613 225.752V225.752Z" fill="#57B894"/>
<path opacity="0.1" d="M504.403 198.604C502.613 198.84 500.873 199.497 499.078 199.635C497.282 199.773 495.31 199.254 494.171 197.592C493.558 196.699 493.254 195.569 492.741 194.59C492.248 193.684 491.577 192.936 490.785 192.409C490.316 193.572 490.058 194.84 490.028 196.129C489.998 197.418 490.196 198.701 490.61 199.893C491.024 201.085 491.644 202.16 492.43 203.049C493.216 203.938 494.151 204.62 495.173 205.051C496.196 205.483 497.283 205.653 498.364 205.552C499.446 205.452 500.497 205.081 501.451 204.466C502.404 203.85 503.238 203.003 503.898 201.98C504.558 200.956 505.029 199.779 505.282 198.525C504.989 198.544 504.696 198.564 504.403 198.604Z" fill="black"/>
<path opacity="0.1" d="M506.613 225.752C505.276 225.833 503.944 225.499 502.748 224.784C501.551 224.069 500.532 222.997 499.788 221.673C499.045 220.349 498.603 218.818 498.507 217.23C498.41 215.642 498.662 214.052 499.238 212.615C499.854 213.107 500.384 213.739 500.796 214.474C501.348 215.459 501.68 216.608 502.332 217.515C503.542 219.203 505.602 219.761 507.475 219.656C509.348 219.551 511.149 218.921 513 218.717C513.26 218.717 513.519 218.671 513.779 218.664C513.395 220.611 512.488 222.357 511.195 223.636C509.902 224.915 508.294 225.658 506.613 225.752Z" fill="black"/>
<path opacity="0.1" d="M487.79 240.643C486.465 240.724 485.145 240.398 483.956 239.697C482.767 238.996 481.75 237.942 481.003 236.639C480.255 235.335 479.802 233.825 479.688 232.253C479.573 230.681 479.801 229.1 480.348 227.663C480.994 228.162 481.556 228.799 482.006 229.542C482.608 230.547 482.984 231.716 483.663 232.649C484.967 234.376 487.166 234.987 489.149 234.935C491.133 234.882 492.917 234.324 494.829 234.147C494.362 235.96 493.436 237.558 492.176 238.721C490.916 239.884 489.384 240.555 487.79 240.643Z" fill="black"/>
<path opacity="0.1" d="M491.619 258.543C490.849 260.366 489.591 261.832 488.042 262.712C486.494 263.592 484.744 263.834 483.067 263.402C481.39 262.969 479.882 261.886 478.78 260.322C477.678 258.759 477.044 256.804 476.978 254.766C476.923 253.49 477.094 252.214 477.481 251.022C478.12 251.521 478.693 252.13 479.183 252.828C479.917 253.899 480.404 255.107 481.26 256.112C482.846 257.958 485.404 258.74 487.68 258.792C488.996 258.802 490.311 258.719 491.619 258.543V258.543Z" fill="black"/>
<path d="M472.255 272.133C472.255 272.133 478.376 271.91 480.216 270.353C482.056 268.796 489.608 266.924 490.089 269.427C490.569 271.93 499.288 281.907 492.376 281.947C485.464 281.986 476.321 280.673 474.481 279.319C472.641 277.966 472.255 272.133 472.255 272.133Z" fill="#656380"/>
<path opacity="0.2" d="M492.503 281.08C485.591 281.145 476.448 279.799 474.603 278.452C473.205 277.434 472.647 273.795 472.459 272.114H472.255C472.255 272.114 472.641 277.986 474.465 279.339C476.288 280.692 485.453 282.019 492.359 281.967C494.354 281.967 495.044 281.106 495.006 279.858C494.746 280.594 493.984 281.067 492.503 281.08Z" fill="black"/>
</g>
<defs>
<clipPath id="clip0">
<rect width="514" height="290" fill="white"/>
</clipPath>
</defs>
</svg>
