<?xml version="1.0" encoding="utf-8"?>
<!-- Generator: Adobe Illustrator 22.1.0, SVG Export Plug-In . SVG Version: 6.00 Build 0)  -->
<svg version="1.1" id="Слой_1" xmlns="http://www.w3.org/2000/svg" xmlns:xlink="http://www.w3.org/1999/xlink" x="0px" y="0px"
	 viewBox="0 0 312 287.4" style="enable-background:new 0 0 312 287.4;" xml:space="preserve">
<style type="text/css">
	.st0{fill:url(#SVGID_1_);}
	.st1{fill:url(#SVGID_2_);}
	.st2{fill:url(#SVGID_3_);}
	.st3{fill:url(#SVGID_4_);}
	.st4{fill:url(#SVGID_5_);}
	.st5{fill:url(#SVGID_6_);}
	.st6{fill:url(#SVGID_7_);}
</style>
<linearGradient id="SVGID_1_" gradientUnits="userSpaceOnUse" x1="143.4396" y1="789.1125" x2="182.7025" y2="483.2405" gradientTransform="matrix(1 0 0 -1 0 779.8903)">
	<stop  offset="0" style="stop-color:#009294"/>
	<stop  offset="1" style="stop-color:#53C6D6"/>
</linearGradient>
<path class="st0" d="M60,2.9c-4-2.2-7.4-0.5-7.5,3.9v0.1v154.2c0,4.4,3.3,9.9,7.4,12l206.3,111.3c4.1,2.3,7.5,0.4,7.5-4V126.2
	c0-4.4-3.3-9.9-7.4-12L60,2.9"/>
<linearGradient id="SVGID_2_" gradientUnits="userSpaceOnUse" x1="69.9359" y1="74.2888" x2="142.974" y2="154.2172">
	<stop  offset="0" style="stop-color:#FFFFFF"/>
	<stop  offset="0.3077" style="stop-color:#F1F4FB"/>
	<stop  offset="0.835" style="stop-color:#D4E1F3"/>
	<stop  offset="1" style="stop-color:#CADAF0"/>
</linearGradient>
<path class="st1" d="M128.9,89l-22.6,25c-0.2,0.3-0.6,0.3-1.3,0.1c-0.4-0.2-0.7-0.4-1-0.8L69.8,71.5c-5.9,4.2-9.6,11.2-9.6,20.7
	c-0.1,22.5,19.9,50,44.6,61.3c24.7,11.3,44.9,2.3,44.9-20.3C149.9,118.6,141.5,102,128.9,89z"/>
<linearGradient id="SVGID_3_" gradientUnits="userSpaceOnUse" x1="72.6814" y1="90.1501" x2="127.3576" y2="90.1501">
	<stop  offset="0" style="stop-color:#5365AE"/>
	<stop  offset="1" style="stop-color:#5A499E"/>
</linearGradient>
<path class="st2" d="M127.4,87.8c-6.3-6-13.5-11.1-21.2-14.5c-13.3-6.1-25.2-6.2-33.5-1.7l32.9,40.2L127.4,87.8z"/>
<linearGradient id="SVGID_4_" gradientUnits="userSpaceOnUse" x1="242.4456" y1="107.1237" x2="268.2231" y2="143.6609">
	<stop  offset="0" style="stop-color:#FFFFFF"/>
	<stop  offset="0.2734" style="stop-color:#F1F1F6"/>
	<stop  offset="0.7419" style="stop-color:#D5D9E5"/>
	<stop  offset="1" style="stop-color:#C4CADB"/>
</linearGradient>
<path class="st3" d="M255,123l3.1-1.4c0.6-0.3,0.6-1.2,0-2c-0.3-0.4-0.7-0.7-1.1-0.9s-0.8-0.2-1.1-0.1l-3,1.4l-3-4
	c-0.3-0.4-0.7-0.7-1.1-0.9s-0.8-0.2-1.1-0.1c-0.6,0.3-0.6,1.2,0,2l3,4.1l-3,1.4c-0.6,0.3-0.6,1.2,0,2c0.3,0.4,0.7,0.7,1.1,0.9
	s0.8,0.2,1.1,0.1l3-1.4l3,4c0.3,0.4,0.7,0.7,1.1,0.9c0.4,0.2,0.8,0.2,1.1,0.1c0.6-0.3,0.6-1.2,0-2L255,123z"/>
<linearGradient id="SVGID_5_" gradientUnits="userSpaceOnUse" x1="178.8004" y1="171.64" x2="245.3006" y2="171.64" gradientTransform="matrix(0.9991 4.141759e-02 -4.141759e-02 0.9991 8.6515 -17.4911)">
	<stop  offset="0" style="stop-color:#FFFFFF"/>
	<stop  offset="0.3077" style="stop-color:#F1F4FB"/>
	<stop  offset="0.835" style="stop-color:#D4E1F3"/>
	<stop  offset="1" style="stop-color:#CADAF0"/>
</linearGradient>
<polygon class="st4" points="181,143.7 180.7,148.7 245.9,181.9 246.1,176.9 "/>
<linearGradient id="SVGID_6_" gradientUnits="userSpaceOnUse" x1="177.4866" y1="181.5698" x2="243.9868" y2="181.5698" gradientTransform="matrix(0.9991 4.141759e-02 -4.141759e-02 0.9991 8.6515 -17.4911)">
	<stop  offset="0" style="stop-color:#FFFFFF"/>
	<stop  offset="0.3077" style="stop-color:#F1F4FB"/>
	<stop  offset="0.835" style="stop-color:#D4E1F3"/>
	<stop  offset="1" style="stop-color:#CADAF0"/>
</linearGradient>
<polygon class="st5" points="179.3,153.6 179,158.6 244.2,191.7 244.4,186.8 "/>
<linearGradient id="SVGID_7_" gradientUnits="userSpaceOnUse" x1="176.4392" y1="191.9823" x2="242.9394" y2="191.9823" gradientTransform="matrix(0.9991 4.141759e-02 -4.141759e-02 0.9991 8.6515 -17.4911)">
	<stop  offset="0" style="stop-color:#FFFFFF"/>
	<stop  offset="0.3077" style="stop-color:#F1F4FB"/>
	<stop  offset="0.835" style="stop-color:#D4E1F3"/>
	<stop  offset="1" style="stop-color:#CADAF0"/>
</linearGradient>
<polygon class="st6" points="177.8,163.9 177.5,169 242.7,202.1 242.9,197.2 "/>
</svg>
