<?xml version="1.0" encoding="utf-8"?>
<!-- Generator: Adobe Illustrator 22.1.0, SVG Export Plug-In . SVG Version: 6.00 Build 0)  -->
<svg version="1.1" id="Слой_1" xmlns="http://www.w3.org/2000/svg" xmlns:xlink="http://www.w3.org/1999/xlink" x="0px" y="0px"
	 viewBox="0 0 312 287.4" style="enable-background:new 0 0 312 287.4;" xml:space="preserve">
<style type="text/css">
	.st0{opacity:0.72;fill:#3D1787;enable-background:new    ;}
	.st1{fill:#6FCCDD;}
	.st2{fill:#ED3293;}
	.st3{fill:#00ED8C;}
</style>
<path class="st0" d="M44.5,3.3c-4.1-2.2-7.4-0.5-7.5,3.9v0.1v154.2c0,4.4,3.4,9.9,7.4,12l207.7,111.3c4.2,2.3,7.5,0.4,7.5-4V126.6
	c0-4.4-3.4-9.9-7.4-12L44.5,3.3"/>
<polygon class="st1" points="54.9,71.4 54.9,78 130,118.4 130,111.8 "/>
<polygon class="st1" points="62.2,87.1 62.2,93.7 137.3,134.2 137.3,127.6 "/>
<polygon class="st1" points="99.7,155.3 99.7,161.9 174.8,202.4 174.8,195.7 "/>
<polygon class="st1" points="54.9,106.4 54.9,113 130,153.5 130,146.9 "/>
<polygon class="st1" points="110.6,124.5 110.6,131.2 185.7,171.6 185.7,165 "/>
<polygon class="st2" points="54,131.1 54,137.7 96.7,160.9 96.7,154.3 "/>
<polygon class="st2" points="165,178.8 165,185.4 207.7,208.7 207.7,202 "/>
<polygon class="st2" points="134,149 133.9,155.6 176.7,178.8 176.7,172.2 "/>
<polygon class="st2" points="189,166.6 189,173.2 231.7,196.4 231.7,189.8 "/>
<polygon class="st2" points="65.2,99.6 65.1,106.3 107.8,129.5 107.9,122.8 "/>
<polygon class="st3" points="180.6,173.2 180.6,179.8 223.3,203.1 223.3,196.4 "/>
<polygon class="st2" points="176,136.2 176,142.9 218.7,166.1 218.7,159.4 "/>
<polygon class="st3" points="118.9,153.5 118.9,160.1 161.6,183.3 161.6,176.7 "/>
<polygon class="st2" points="177.8,196.4 177.7,203 220.5,226.3 220.5,219.6 "/>
<polygon class="st2" points="71.1,127.5 71.1,134.2 113.8,157.4 113.8,150.8 "/>
<polygon class="st2" points="141.4,129.5 141.3,136.1 184,159.3 184.1,152.7 "/>
<polygon class="st3" points="185.7,153.5 185.7,160.1 228.4,183.3 228.4,176.7 "/>
<polygon class="st3" points="132.1,112.6 132.1,119.3 174.8,142.5 174.8,135.8 "/>
<polygon class="st2" points="113.8,91.5 113.8,98.1 156.5,121.3 156.5,114.7 "/>
<polygon class="st3" points="67,66.8 67,73.4 109.7,96.6 109.7,90 "/>
<polygon class="st1" points="159.8,115.8 159.8,122.5 234.9,162.9 234.9,156.3 "/>
</svg>
