<?xml version="1.0" encoding="utf-8"?>
<!-- Generator: Adobe Illustrator 22.1.0, SVG Export Plug-In . SVG Version: 6.00 Build 0)  -->
<svg version="1.1" id="Слой_1" xmlns="http://www.w3.org/2000/svg" xmlns:xlink="http://www.w3.org/1999/xlink" x="0px" y="0px"
	 viewBox="0 0 312 287.4" style="enable-background:new 0 0 312 287.4;" xml:space="preserve">
<style type="text/css">
	.st0{opacity:0.72;fill:#155193;enable-background:new    ;}
	.st1{fill:#6FCCDD;}
	.st2{fill:#ED3293;}
	.st3{fill:#00AEEF;}
</style>
<path class="st0" d="M49.8,3.3c-4.1-2.2-7.5-0.5-7.6,4v0.1v154.4c0,4.4,3.4,9.9,7.5,12.1l209.6,111.4c4.2,2.3,7.6,0.4,7.6-4V126.8
	c0-4.4-3.4-9.9-7.5-12.1L49.8,3.3"/>
<polygon class="st1" points="60.1,70.6 60.1,77.1 135.3,117 135.3,110.5 "/>
<polygon class="st1" points="67.4,86.1 67.4,92.6 142.6,132.6 142.6,126.1 "/>
<polygon class="st1" points="105,153.5 105,160 180.1,200 180.1,193.4 "/>
<polygon class="st1" points="60.1,105.2 60.1,111.7 135.3,151.7 135.3,145.2 "/>
<polygon class="st1" points="115.9,123.1 115.9,129.7 191,169.6 191,163.1 "/>
<polygon class="st2" points="59.2,129.6 59.2,136.1 102,159 102,152.5 "/>
<polygon class="st2" points="170.3,176.7 170.3,183.2 213,206.2 213,199.6 "/>
<polygon class="st2" points="139.3,147.3 139.2,153.8 182,176.7 182,170.2 "/>
<polygon class="st2" points="194.3,164.6 194.3,171.2 237.1,194.1 237.1,187.6 "/>
<polygon class="st2" points="70.4,98.5 70.3,105.1 113.1,128 113.2,121.4 "/>
<polygon class="st3" points="185.9,171.2 185.9,177.7 228.7,200.7 228.7,194.1 "/>
<polygon class="st2" points="181.3,134.6 181.3,141.2 224.1,164.1 224.1,157.5 "/>
<polygon class="st3" points="124.2,151.7 124.2,158.2 166.9,181.1 166.9,174.6 "/>
<polygon class="st2" points="183.1,194.1 183,200.6 225.9,223.6 225.9,217 "/>
<polygon class="st2" points="76.3,126 76.3,132.6 119.1,155.6 119.1,149 "/>
<polygon class="st2" points="146.7,128 146.6,134.5 189.3,157.4 189.4,150.9 "/>
<polygon class="st3" points="191,151.7 191,158.2 233.8,181.1 233.8,174.6 "/>
<polygon class="st3" points="137.4,111.3 137.4,117.9 180.1,140.8 180.1,134.2 "/>
<polygon class="st2" points="119.1,90.5 119.1,97 161.8,119.9 161.8,113.4 "/>
<polygon class="st3" points="72.2,66.1 72.2,72.6 115,95.5 115,89 "/>
<polygon class="st1" points="165.1,114.5 165.1,121.1 240.3,161 240.3,154.5 "/>
</svg>
