<svg width="577" height="348" viewBox="0 0 577 348" fill="none" xmlns="http://www.w3.org/2000/svg">
<g clip-path="url(#clip0)">
<path d="M392.544 198.664L397.492 197.808C397.966 197.724 398.438 197.623 398.912 197.537C391.081 192.668 385.136 185.277 382.054 176.576C378.972 167.876 378.937 158.385 381.954 149.662C384.97 140.939 390.86 133.503 398.654 128.576C406.449 123.649 415.685 121.524 424.844 122.55L418.36 138.005L433.724 124.568C433.76 124.577 433.795 124.589 433.829 124.604C438.86 126.378 443.493 129.128 447.463 132.696C451.433 136.264 454.662 140.58 456.966 145.399C459.271 150.217 460.605 155.442 460.893 160.777C461.181 166.111 460.417 171.45 458.645 176.489C458.388 177.222 458.082 177.922 457.789 178.63C462.126 176.447 466.287 173.906 469.68 170.653C476.55 164.06 480.313 154.962 484.519 143.753C492.852 121.541 500.875 99.0079 508.578 76.4254C500.082 71.821 493.504 64.3337 490.025 55.3082C486.546 46.2828 486.394 36.3107 489.597 27.1831C490.009 26.0088 490.488 24.878 490.994 23.7675C491.121 23.4896 491.249 23.2134 491.381 22.9394C491.896 21.8747 492.44 20.8315 493.037 19.8304C493.134 19.6662 493.243 19.5126 493.343 19.3503C493.862 18.5062 494.41 17.687 494.986 16.8929C495.201 16.5947 495.415 16.2973 495.637 16.0063C496.289 15.1511 496.966 14.3191 497.679 13.5247C497.917 13.2589 498.17 13.0106 498.414 12.7517C498.962 12.1728 499.525 11.6114 500.103 11.0675C500.407 10.7811 500.709 10.4927 501.021 10.2165C501.102 10.1456 501.176 10.0683 501.257 9.99797C501.261 10.0032 501.264 10.0087 501.268 10.0138C508.423 3.76947 517.535 0.233245 527.023 0.0197828C536.51 -0.19368 545.772 2.92911 553.2 8.8454L544.761 28.9574L559.951 15.6809C565.266 22.464 568.279 30.7708 568.549 39.3895C568.819 48.0083 566.333 56.4879 561.452 63.5915C561.466 63.5965 561.48 63.6003 561.494 63.6052C561.329 63.8493 561.14 64.0728 560.97 64.3125C560.649 64.7625 560.321 65.2045 559.986 65.6386C559.554 66.1951 559.106 66.733 558.649 67.2635C558.303 67.664 557.963 68.0678 557.603 68.453C557.077 69.0165 556.526 69.5501 555.972 70.0807C555.648 70.3902 555.338 70.7153 555.005 71.0135C554.132 71.7946 553.229 72.5358 552.295 73.237C551.968 73.4826 551.622 73.6993 551.288 73.9345C550.633 74.3962 549.974 74.8512 549.294 75.2726C548.871 75.5339 548.438 75.7728 548.007 76.0185C547.383 76.3744 546.755 76.7193 546.113 77.0414C545.658 77.2698 545.2 77.4865 544.737 77.6978C544.078 77.9984 543.412 78.2773 542.738 78.5426C542.285 78.7205 541.835 78.9007 541.377 79.0625C540.62 79.3294 539.853 79.5612 539.081 79.7832C538.691 79.8954 538.307 80.0237 537.914 80.1242C536.756 80.42 535.584 80.6719 534.4 80.8649C534.177 80.9013 533.95 80.9151 533.726 80.9476C532.744 81.0908 531.757 81.2063 530.761 81.2769C530.334 81.307 529.903 81.3114 529.474 81.3282C528.669 81.3595 527.864 81.3755 527.054 81.3581C526.582 81.3481 526.11 81.3237 525.637 81.2969C524.848 81.2522 524.059 81.1835 523.269 81.0906C522.802 81.0364 522.337 80.9827 521.869 80.9118C521.023 80.7832 520.178 80.6151 519.333 80.4309C519.277 80.4188 519.222 80.4115 519.166 80.3992C515.915 89.9264 512.604 99.4332 509.232 108.92C513.344 105.216 518.168 102.394 523.409 100.625C528.649 98.8558 534.195 98.178 539.707 98.6331C545.218 99.0881 550.578 100.666 555.459 103.271C560.339 105.875 564.637 109.451 568.088 113.779L554.045 129.333L573.058 121.731C577.676 131.43 578.261 142.569 574.683 152.7C573.443 156.259 571.706 159.625 569.524 162.697C564.826 169.352 558.24 174.439 550.621 177.3C543.001 180.16 534.699 180.661 526.791 178.738C518.884 176.815 511.736 172.557 506.274 166.515C500.812 160.473 497.289 152.928 496.162 144.856C495.805 145.812 495.46 146.78 495.102 147.735C491.39 157.623 486.772 169.929 477.499 178.827C471.213 184.857 463.479 188.683 456.059 191.918C451.227 194.024 446.331 195.971 441.37 197.759C435.856 201.108 429.626 203.097 423.193 203.561C415.367 205.739 407.441 207.557 399.441 208.96L394.453 209.821C389.97 210.591 385.374 211.382 380.812 212.295C381.469 212.49 382.126 212.676 382.78 212.906C390.908 215.772 397.917 221.152 402.792 228.268C407.668 235.385 410.158 243.869 409.903 252.496L378.632 262.11L406.929 266.61C404.34 272.982 400.181 278.592 394.841 282.918C389.5 287.243 383.153 290.142 376.39 291.344C369.628 292.546 362.672 292.012 356.171 289.791C349.671 287.57 343.839 283.736 339.219 278.646C339.506 279.609 339.795 280.572 340.084 281.533C340.659 283.442 341.228 285.341 341.776 287.221C349.222 312.846 346.017 333.004 332.751 343.977L325.553 335.25C338.464 324.568 334.458 302.556 330.924 290.383C330.386 288.537 329.825 286.671 329.261 284.796C324.411 268.66 318.914 250.369 326.034 233.562C336.765 208.23 367.693 202.926 392.544 198.664Z" fill="#F2F2F2"/>
<path d="M383.379 347.265H164.277C157.092 347.265 150.201 344.406 145.12 339.317C140.04 334.229 137.186 327.327 137.186 320.131V219.593C137.186 218.133 137.482 216.689 138.058 215.347C138.634 214.006 139.477 212.796 140.535 211.792L256.637 101.565C261.279 97.158 267.432 94.7015 273.828 94.7015C280.224 94.7015 286.376 97.158 291.018 101.565L401.716 206.661C404.481 209.286 406.684 212.448 408.189 215.954C409.694 219.46 410.47 223.236 410.47 227.052V320.131C410.47 323.694 409.769 327.223 408.408 330.515C407.046 333.807 405.051 336.798 402.535 339.317C400.02 341.837 397.033 343.836 393.746 345.199C390.459 346.563 386.937 347.265 383.379 347.265V347.265Z" fill="#3F3D56"/>
<path opacity="0.1" d="M137.186 221.244H408.193V330.88C408.193 335.226 406.469 339.393 403.401 342.466C400.334 345.538 396.173 347.264 391.834 347.264H153.544C149.205 347.264 145.045 345.538 141.977 342.466C138.909 339.393 137.186 335.226 137.186 330.88V221.244V221.244Z" fill="black"/>
<path d="M359.411 134.854H187.675C179.443 134.854 172.769 141.538 172.769 149.783V321.786C172.769 330.031 179.443 336.715 187.675 336.715H359.411C367.643 336.715 374.317 330.031 374.317 321.786V149.783C374.317 141.538 367.643 134.854 359.411 134.854Z" fill="#6C63FF"/>
<path opacity="0.1" d="M374.317 225.778V336.716H172.769V225.778L273.543 274.561L374.317 225.778Z" fill="black"/>
<path d="M273.543 280.833L144.42 218.326C143.621 217.94 142.737 217.762 141.852 217.811C140.966 217.86 140.107 218.133 139.356 218.605C138.604 219.078 137.985 219.733 137.555 220.511C137.126 221.288 136.901 222.162 136.901 223.05V330.595C136.901 332.747 137.324 334.877 138.146 336.865C138.968 338.853 140.173 340.659 141.692 342.181C143.211 343.702 145.015 344.909 146.999 345.732C148.984 346.556 151.111 346.979 153.259 346.979H393.827C395.975 346.979 398.102 346.556 400.087 345.732C402.072 344.909 403.875 343.702 405.394 342.181C406.913 340.659 408.118 338.853 408.94 336.865C409.762 334.877 410.185 332.747 410.185 330.595V224.893C410.185 223.809 409.911 222.742 409.387 221.793C408.863 220.845 408.107 220.045 407.19 219.469C406.273 218.893 405.225 218.559 404.144 218.499C403.063 218.44 401.985 218.656 401.01 219.128L273.543 280.833Z" fill="#3F3D56"/>
<path d="M246.499 153.387H190.134V161.37H246.499V153.387Z" fill="#F2F2F2"/>
<path d="M352.966 182.469H185.58V187.03H352.966V182.469Z" fill="#F2F2F2"/>
<path d="M352.966 197.865H185.58V202.427H352.966V197.865Z" fill="#F2F2F2"/>
<path d="M352.966 213.261H185.58V217.823H352.966V213.261Z" fill="#F2F2F2"/>
<path d="M34.7038 346.979H503.842" stroke="#3F3D56" stroke-miterlimit="10"/>
<path d="M0 276.762C0 310.383 21.0592 337.589 47.0843 337.589Z" fill="#46455B"/>
<path d="M47.0843 337.589C47.0843 303.59 70.5851 276.079 99.6276 276.079Z" fill="#6C63FF"/>
<path d="M17.0595 279.81C17.0595 311.746 30.4886 337.589 47.0843 337.589Z" fill="#6C63FF"/>
<path d="M47.0843 337.589C47.0843 294.146 74.2476 258.993 107.816 258.993Z" fill="#46455B"/>
<path d="M37.179 338.018C37.179 338.018 43.8563 337.812 45.8687 336.376C47.881 334.941 56.1401 333.227 56.6393 335.529C57.1385 337.831 66.6741 346.977 59.1354 347.038C51.5967 347.099 41.6189 345.862 39.6104 344.637C37.6019 343.411 37.179 338.018 37.179 338.018Z" fill="#A8A8A8"/>
<path opacity="0.2" d="M59.2699 346.237C51.7313 346.298 41.7534 345.061 39.7449 343.835C38.2153 342.902 37.6058 339.554 37.4019 338.009C37.2606 338.015 37.179 338.017 37.179 338.017C37.179 338.017 37.6019 343.411 39.6104 344.637C41.6189 345.862 51.5968 347.099 59.1354 347.038C61.3115 347.02 62.0632 346.245 62.0219 345.097C61.7196 345.79 60.8897 346.224 59.2699 346.237Z" fill="black"/>
<path d="M409.763 92.8165C409.421 95.8698 407.096 98.3294 406.234 101.278C404.938 105.717 407.18 110.479 410.247 113.936C412.722 116.696 415.719 118.936 419.065 120.527C422.411 122.118 426.038 123.028 429.738 123.205C430.825 123.3 431.92 123.181 432.96 122.853C433.89 122.479 434.726 121.906 435.412 121.175C437.722 118.852 438.962 115.633 439.456 112.392C439.951 109.151 439.758 105.849 439.565 102.576C439.566 101.9 439.443 101.229 439.203 100.597C438.888 99.9942 438.455 99.4615 437.931 99.03C436.268 97.502 434.436 96.1692 432.471 95.0575C431.583 94.6589 430.799 94.0586 430.183 93.3041C429.812 92.6578 429.571 91.9444 429.476 91.2049L428.873 88.1263C428.765 87.2391 428.463 86.3868 427.987 85.6307C426.921 84.191 424.883 83.9951 423.095 83.9249L416.545 83.6675C414.507 83.5875 411.822 83.0023 409.833 83.403C407.976 83.7773 408.593 85.4916 408.93 87.0525C409.419 88.9372 409.699 90.8703 409.763 92.8165V92.8165Z" fill="#FEC2BE"/>
<path opacity="0.1" d="M410.401 92.6082L410.405 92.5722L410.404 92.5359C410.338 90.5563 410.054 88.59 409.557 86.6728C409.52 86.5008 409.483 86.3395 409.446 86.1823C409.394 85.9578 409.344 85.7418 409.299 85.5155C409.225 85.1415 409.184 84.8178 409.199 84.5454C409.213 84.2778 409.279 84.0964 409.386 83.9677C409.492 83.841 409.686 83.7071 410.073 83.6292C410.991 83.4442 412.097 83.4832 413.266 83.589C413.661 83.6246 414.066 83.6685 414.471 83.7123C415.233 83.7946 415.991 83.8767 416.666 83.9031L423.216 84.1605C424.107 84.1955 425.014 84.2611 425.82 84.4824C426.615 84.7007 427.271 85.059 427.715 85.6494C428.145 86.3389 428.419 87.1149 428.517 87.9225L428.519 87.9406L428.523 87.9584L429.123 91.0214C429.228 91.8202 429.489 92.5907 429.89 93.2892L429.911 93.3247L429.937 93.3565C430.597 94.1649 431.435 94.8094 432.385 95.2399C434.31 96.3305 436.104 97.637 437.733 99.1342L437.743 99.1434L437.754 99.1521C438.219 99.5348 438.604 100.006 438.887 100.538C439.099 101.105 439.207 101.706 439.206 102.312L439.206 102.327L439.207 102.342C439.401 105.624 439.588 108.873 439.103 112.053C438.619 115.228 437.41 118.334 435.198 120.558L435.193 120.563L435.188 120.569C434.557 121.242 433.787 121.771 432.932 122.118C431.96 122.422 430.937 122.532 429.923 122.443L429.913 122.442L429.902 122.441C426.269 122.268 422.706 121.374 419.42 119.812C416.135 118.249 413.192 116.049 410.761 113.339C407.739 109.933 405.63 105.347 406.855 101.154C407.208 99.9463 407.817 98.8251 408.454 97.653C408.56 97.4566 408.668 97.2587 408.775 97.0587C409.508 95.6913 410.218 94.2388 410.401 92.6082Z" fill="#FEC2BE" stroke="black"/>
<path d="M451.433 230.248C450.505 240.439 449.577 250.629 448.648 260.817C447.922 268.835 447.181 276.885 445.757 284.8C445.264 287.527 444.688 290.241 444.004 292.93C442.101 300.399 439.34 307.698 438.45 315.355C438.422 315.575 438.398 315.801 438.375 316.026C438.275 317.719 437.955 319.392 437.423 321.002C436.978 322.171 436.294 323.237 435.811 324.391C434.85 326.701 434.723 329.255 434.606 331.757C431.226 329.853 427.527 328.586 423.69 328.02C421.839 327.743 419.777 327.546 418.516 326.161C417.119 324.631 417.274 322.288 417.508 320.232C418.244 313.848 418.978 307.467 419.711 301.089C419.95 298.345 420.416 295.626 421.103 292.959C421.356 292.071 421.661 291.198 421.97 290.325C422.397 289.123 422.828 287.922 423.151 286.687C423.617 284.692 423.943 282.667 424.126 280.627C424.881 274.205 425.79 267.797 426.587 261.38L426.629 261.042C427.824 251.316 428.734 241.542 428.471 231.745C428.434 230.295 428.373 228.844 428.279 227.389C428.148 225.281 427.955 224.164 429.699 222.845C431.625 221.39 434.161 220.371 436.364 219.418C437.55 218.902 450.608 214.259 450.912 215.278C451.525 217.451 451.846 219.695 451.868 221.953C451.878 224.724 451.732 227.493 451.433 230.248Z" fill="#605D82"/>
<path opacity="0.1" d="M445.757 284.8C445.264 287.527 444.688 290.24 444.004 292.93C442.101 300.399 439.34 307.698 438.45 315.355C438.422 315.575 438.398 315.801 438.375 316.026C432.553 307.698 427.651 298.742 421.97 290.325C422.397 289.123 422.828 287.921 423.151 286.687C423.617 284.692 423.943 282.667 424.126 280.626C424.881 274.205 425.79 267.797 426.587 261.38L426.629 261.042C426.963 262.404 427.439 263.728 428.049 264.99C431.864 272.754 440.929 276.679 445.363 284.11C445.499 284.34 445.63 284.57 445.757 284.8Z" fill="black"/>
<path d="M398.521 216.526C398.713 222.754 399.709 228.925 400.702 235.075L402.751 247.765C403.873 254.71 405.041 261.797 408.322 268.017C410.777 272.671 414.314 276.641 417.513 280.816C425.379 291.079 431.288 302.705 438.746 313.269C440.914 316.34 444.013 319.66 447.713 319.019C450.141 318.599 451.905 316.574 453.813 315.013C456.064 313.172 458.776 311.825 460.547 309.518C462.317 307.211 462.664 303.376 460.265 301.734C459.397 301.253 458.476 300.875 457.52 300.609C453.801 299.193 451.394 295.556 449.863 291.878C448.331 288.2 447.403 284.246 445.362 280.825C440.929 273.394 431.863 269.47 428.047 261.703C425.91 257.353 425.706 252.339 425.543 247.493L425.126 235.141C425.081 233.79 425.045 232.385 425.593 231.15C427.053 227.862 431.46 227.556 435.029 227.139C439.079 226.664 443.003 225.424 446.592 223.485C448.648 222.373 450.656 220.956 451.755 218.892C452.759 217.009 452.897 214.8 453.015 212.669L454.25 190.283C454.357 188.357 454.454 186.365 453.776 184.56C452.074 180.026 446.358 178.545 441.527 178.761C432.537 179.164 424.238 183.037 415.762 185.652C413.662 186.316 411.531 186.872 409.375 187.321C407.473 187.703 405.171 187.544 403.356 188.157C400.13 189.247 400.212 196.314 399.754 199.245C398.809 204.955 398.396 210.74 398.521 216.526V216.526Z" fill="#605D82"/>
<path d="M446.492 319.958C447.285 320.759 447.544 321.932 447.751 323.04C448.896 329.189 449.491 335.428 449.53 341.682C449.477 342.266 449.594 342.852 449.865 343.371C450.089 343.681 450.391 343.924 450.741 344.076C453.032 345.17 455.691 343.646 457.601 341.971C461.14 338.865 464.135 334.698 464.336 329.99C464.299 328.777 464.341 327.563 464.463 326.356C464.773 324.583 465.807 323.039 466.717 321.488C468.267 318.847 469.517 316.041 470.444 313.121C470.792 312.025 471.023 310.644 470.165 309.878C469.861 309.64 469.515 309.459 469.145 309.347L458.796 305.498C457.899 305.165 455.667 310.907 455.313 311.534C454.446 313.07 453.585 313.941 451.846 314.296C450.072 314.658 447.96 314.138 446.304 315.025C443.503 316.525 444.906 318.356 446.492 319.958Z" fill="#535070"/>
<path d="M430.522 323.501C430.33 323.118 430.062 322.778 429.734 322.501C429.255 322.196 428.71 322.011 428.145 321.96C426.175 321.625 423.84 321.404 422.48 322.871C421.205 324.246 421.424 326.487 420.358 328.03C420.02 328.519 419.563 328.921 419.271 329.438C418.907 330.228 418.744 331.095 418.794 331.964C418.739 334.356 418.684 336.752 418.849 339.139C418.987 341.14 419.324 343.236 420.573 344.803C422.577 347.318 426.193 347.68 429.402 347.843L432.001 347.976C432.717 348.063 433.443 347.996 434.131 347.78C434.557 347.583 434.939 347.302 435.255 346.954C435.571 346.606 435.813 346.199 435.969 345.755C437.322 342.387 435.179 338.759 433.859 335.377C432.342 331.491 432.615 327.176 430.522 323.501Z" fill="#535070"/>
<path d="M409.01 75.6123C408.979 75.2709 409.029 74.9267 409.156 74.6086C409.537 73.9344 410.531 74.1179 411.281 74.3073C414.297 75.0688 417.474 74.3795 420.579 74.5574C423.684 74.7353 427.182 76.2899 427.806 79.3414C430.06 77.7412 432.003 75.7419 433.539 73.4422C434.4 72.1506 435.151 70.6712 435.034 69.1222C434.865 66.8881 432.993 65.2173 431.26 63.8004L426.095 59.5767C425.417 58.9526 424.634 58.4539 423.782 58.1039C422.589 57.6956 421.288 57.8901 420.027 57.8909C416.267 57.8933 412.258 56.1794 408.913 57.9012C407.516 58.6204 406.465 59.8529 405.451 61.0547L400.841 66.5209C400.494 66.8692 400.24 67.2998 400.104 67.7726C399.972 68.4398 400.315 69.0983 400.434 69.7677C400.652 70.9888 400.127 72.2921 400.53 73.4648C401.201 75.4117 403.561 75.6872 405.004 76.8033C405.541 77.2193 406.384 78.6291 407.025 78.6118C408.181 78.5808 408.98 76.5119 409.01 75.6123Z" fill="#3F3D56"/>
<path d="M416.833 91.725C424.987 91.725 431.597 85.1046 431.597 76.938C431.597 68.7715 424.987 62.1511 416.833 62.1511C408.679 62.1511 402.069 68.7715 402.069 76.938C402.069 85.1046 408.679 91.725 416.833 91.725Z" fill="#FEC2BE"/>
<path d="M420.291 109.299C419.79 107.862 418.845 106.622 417.594 105.76C416.342 104.897 414.848 104.456 413.329 104.5C412.894 104.581 412.445 104.525 412.044 104.338C411.818 104.163 411.637 103.937 411.517 103.677C410.619 102.06 409.897 100.351 409.364 98.5798C409.128 97.7972 408.806 96.8744 408.016 96.671C407.688 96.6281 407.356 96.6751 407.053 96.8069C406.75 96.9388 406.489 97.1506 406.297 97.4197C405.922 97.9613 405.511 98.4777 405.069 98.9658C403.212 100.629 399.921 99.1131 397.95 100.639C397.628 100.888 397.362 101.207 397.024 101.434C396.686 101.638 396.321 101.794 395.94 101.899C392.134 103.144 388.403 104.607 384.766 106.282C386.077 114.19 387.42 122.235 390.493 129.636C391.955 133.158 393.613 136.608 394.784 140.237C397.378 148.28 397.493 156.884 397.522 165.336C397.542 171.121 397.514 177.028 395.645 182.502C395.142 183.711 394.788 184.978 394.59 186.273C394.477 187.577 394.856 189.015 395.911 189.788C396.523 190.188 397.223 190.435 397.95 190.505C401.188 190.981 404.452 190.118 407.64 189.378C416.185 187.396 424.9 186.262 433.597 185.131L448.173 183.236C449.217 183.165 450.24 182.9 451.188 182.455C453.855 180.993 454.108 176.974 452.452 174.421C451.658 173.196 450.538 172.192 449.871 170.894C449.203 169.595 449.147 167.78 450.295 166.881C452.631 165.052 451.935 161.659 452.046 158.691C452.358 150.393 452.315 142.091 451.92 133.787C451.803 132.068 451.775 130.344 451.837 128.622C452.096 125.704 452.635 122.817 453.445 120.003L457.873 102.538C456.716 100.707 454.501 99.5449 452.403 99.0175C450.304 98.49 448.119 98.3348 446.052 97.6934C441.818 96.3794 438.049 93.0449 433.628 93.3557C433.293 93.3617 432.964 93.4421 432.665 93.5912C431.667 94.157 431.825 95.5963 431.762 96.7424C431.62 99.2781 429.758 101.397 427.702 102.883C425.646 104.369 423.297 105.453 421.408 107.147C421.074 107.4 420.8 107.724 420.606 108.097C420.413 108.469 420.305 108.88 420.291 109.299V109.299Z" fill="#3F3D56"/>
<path d="M361.792 125.866C360.813 126.502 359.772 127.038 358.686 127.466C357.623 127.783 356.618 128.271 355.711 128.912C355.294 129.274 354.943 129.707 354.677 130.192C354.177 131.08 353.924 132.085 353.945 133.104C353.966 134.123 354.259 135.118 354.795 135.984C355.33 136.851 356.088 137.557 356.989 138.03C357.89 138.503 358.902 138.726 359.918 138.673C361.269 138.522 362.581 138.13 363.794 137.516L374.207 132.997C375.97 132.232 377.873 131.335 378.707 129.602C378.804 129.44 378.84 129.249 378.808 129.063C378.724 128.866 378.572 128.706 378.38 128.613C376.031 127.085 373.977 125.145 372.317 122.886C371.889 122.305 371.367 120.933 370.763 120.585C368.559 119.314 363.556 124.719 361.792 125.866Z" fill="#FEC2BE"/>
<path d="M473.114 122.157L476.953 126.549C477.777 127.492 478.602 128.436 479.354 129.439C481.198 131.985 482.678 134.778 483.751 137.735C484.585 139.928 485.278 142.264 484.986 144.593C484.793 145.787 484.471 146.957 484.026 148.081C483.322 150.244 482.45 152.348 481.417 154.374C480.548 155.913 479.567 157.386 478.482 158.78C475.509 162.726 472.257 166.452 468.749 169.929C467.437 171.231 466.887 173.335 466.315 175.094C465.261 178.338 462.754 180.865 460.329 183.261C459.55 184.086 458.688 184.828 457.758 185.477C456.365 186.375 454.737 186.84 453.081 186.811C452.355 186.816 451.637 186.667 450.974 186.374C449.314 185.585 448.471 183.663 448.298 181.831C448.144 180.169 448.422 178.495 449.105 176.973C451.308 172.085 456.966 169.967 460.964 166.4C463.309 164.309 465.102 161.682 466.871 159.084C468.072 157.462 469.075 155.701 469.858 153.84C470.751 151.453 470.404 148.628 471.184 146.202C471.514 145.177 472.1 144.251 472.454 143.234C472.809 142.217 472.898 141.009 472.278 140.129C471.81 139.57 471.214 139.132 470.54 138.855C467.985 137.556 465.124 135.885 464.635 133.058C464.44 131.49 464.849 129.907 465.779 128.63C466.705 127.371 467.788 126.235 469 125.249C470.118 124.259 471.997 123.146 473.114 122.157Z" fill="#FEC2BE"/>
<path d="M359.327 131.997C358.649 130.625 357.802 129.226 356.434 128.544C355.77 128.256 355.056 128.105 354.333 128.102C353.61 128.099 352.894 128.244 352.228 128.526C350.902 129.099 349.66 129.851 348.537 130.762L345.228 133.205C344.478 133.698 343.814 134.311 343.263 135.021C342.741 135.882 342.394 136.837 342.24 137.833C341.663 140.103 341.487 142.457 341.72 144.788C342.245 148.525 344.495 151.788 346.971 154.633C348.519 156.411 350.429 158.205 352.783 158.281C353.799 158.314 354.929 157.912 355.351 156.987C355.497 156.619 355.575 156.229 355.58 155.833C355.835 151.664 354.346 147.593 352.609 143.795C352.056 142.801 351.729 141.696 351.651 140.56C351.639 140.369 351.689 140.179 351.793 140.019C351.943 139.863 352.143 139.765 352.358 139.742C354.734 139.272 358.828 141.121 360.495 138.477C361.576 136.764 360.095 133.551 359.327 131.997Z" fill="#FEC2BE"/>
<path d="M408.236 70.9595C408.204 70.618 408.254 70.2739 408.382 69.9558C408.763 69.2816 409.757 69.4651 410.507 69.6544C413.523 70.4159 416.7 69.7266 419.805 69.9045C422.91 70.0824 426.407 71.6371 427.032 74.6885C429.285 73.0883 431.228 71.0891 432.764 68.7893C433.626 67.4978 434.377 66.0184 434.26 64.4694C434.091 62.2353 432.219 60.5644 430.486 59.1475L425.32 54.9238C424.642 54.2998 423.859 53.8011 423.007 53.4511C421.815 53.0428 420.514 53.2373 419.253 53.2381C415.493 53.2405 411.483 51.5265 408.139 53.2483C406.742 53.9676 405.691 55.2001 404.677 56.4019L400.066 61.868C399.719 62.2164 399.466 62.647 399.329 63.1197C399.198 63.787 399.54 64.4454 399.66 65.1149C399.877 66.336 399.352 67.6393 399.756 68.812C400.426 70.7588 402.786 71.0344 404.229 72.1505C404.767 72.5665 405.61 73.9762 406.251 73.959C407.407 73.928 408.206 71.859 408.236 70.9595Z" fill="#3F3D56"/>
<path d="M376.879 111.483C376.283 111.868 375.759 112.355 375.333 112.923C374.792 113.743 374.682 114.778 374.217 115.643C373.222 117.495 370.895 118.154 369.443 119.673C369.212 119.882 369.052 120.157 368.984 120.461C368.977 120.874 369.115 121.275 369.374 121.596L376.375 132.619C378.706 132.825 380.943 131.362 383.275 131.556C384.145 131.629 385.036 131.93 385.871 131.672C386.469 131.407 387.029 131.064 387.538 130.652C388.929 129.771 390.782 129.668 391.949 128.506C393.069 127.39 393.212 125.645 393.199 124.062C393.218 122.689 393.078 121.317 392.783 119.975C391.752 115.744 388.521 112.497 386.495 108.749C385.509 106.924 384.973 105.856 382.885 107.109C380.787 108.368 378.853 110.036 376.879 111.483Z" fill="#3F3D56"/>
<path d="M461.905 105.908C463.221 106.764 464.407 107.804 465.427 108.998C466.494 110.375 467.098 112.061 468.122 113.47C469.115 114.836 470.467 115.893 471.594 117.151C473.302 119.058 474.459 121.385 475.595 123.681C472.82 127.306 469.794 130.731 466.539 133.932C466.177 134.359 465.7 134.673 465.164 134.837C464.8 134.876 464.432 134.824 464.092 134.685C463.753 134.547 463.454 134.326 463.22 134.043C462.716 133.513 462.359 132.86 461.877 132.31C460.739 131.135 459.223 130.4 457.596 130.237C455.984 130.081 454.362 130.058 452.747 130.17C452.392 130.209 452.033 130.149 451.711 129.996C451.471 129.83 451.277 129.607 451.146 129.346C449.25 126.116 449.86 122.06 450.529 118.373L452.063 109.914C452.286 108.298 452.715 106.718 453.34 105.212C453.922 103.968 455.221 101.858 456.819 102.231C458.43 102.606 460.55 104.932 461.905 105.908Z" fill="#3F3D56"/>
<path d="M181.025 161.455C193.917 161.455 204.368 150.969 204.368 138.033C204.368 125.097 193.917 114.611 181.025 114.611C168.133 114.611 157.682 125.097 157.682 138.033C157.682 150.969 168.133 161.455 181.025 161.455Z" fill="white"/>
<path d="M181.025 110.62C175.507 110.62 170.114 112.258 165.526 115.329C160.938 118.399 157.362 122.763 155.251 127.868C153.139 132.974 152.587 138.592 153.663 144.012C154.74 149.432 157.397 154.411 161.298 158.318C165.2 162.226 170.171 164.887 175.582 165.965C180.994 167.043 186.603 166.49 191.701 164.375C196.799 162.26 201.156 158.679 204.221 154.084C207.287 149.489 208.923 144.087 208.923 138.561C208.901 131.157 205.955 124.063 200.728 118.827C195.501 113.592 188.417 110.641 181.025 110.62V110.62ZM175.298 153.458L161 139.138L165.011 135.122L175.311 145.439L197.053 123.663L201.063 127.68L175.298 153.458L175.298 153.458Z" fill="#57B894"/>
</g>
<defs>
<clipPath id="clip0">
<rect width="577" height="348" fill="white"/>
</clipPath>
</defs>
</svg>
