<?xml version="1.0" encoding="utf-8"?>
<!-- Generator: Adobe Illustrator 22.1.0, SVG Export Plug-In . SVG Version: 6.00 Build 0)  -->
<svg version="1.1" id="Слой_1" xmlns="http://www.w3.org/2000/svg" xmlns:xlink="http://www.w3.org/1999/xlink" x="0px" y="0px"
	 viewBox="0 0 540.5 551.9" style="enable-background:new 0 0 540.5 551.9;" xml:space="preserve">
<style type="text/css">
	.st0{fill:#3A3A3A;}
	.st1{fill:#242D62;}
	.st2{fill:#C6C6C6;}
	.st3{fill:#AFAFAF;}
	.st4{fill:#2B2B2B;stroke:#4AA9D5;stroke-width:0.25;stroke-miterlimit:10;}
	.st5{fill:#A5DDEF;}
	.st6{fill:#2B2B2B;}
	.st7{fill:#A5DDEF;stroke:#4AA9D5;stroke-width:0.25;stroke-miterlimit:10;}
	.st8{fill:#E83895;}
	.st9{fill:#4C4C4D;}
	.st10{fill:#AFAFAF;stroke:#4AA9D5;stroke-width:0.25;stroke-miterlimit:10;}
</style>
<title>pc</title>
<path class="st0" d="M230.9,0l301.5,158.3c0,0,8,3.5,7,17s0.1,240,0.1,240s-4.6,9.5-12.5,5.5S223.4,259,223.4,259s-4.2-2.5-3.8-12.3
	s0-236.4,0-236.4c-0.1-1.5,0.2-3,0.8-4.4C223.1,0.5,230.4,0,230.9,0z"/>
<path class="st1" d="M385.8,102c46.4,24.1,92.8,48.4,139,72.9v4.9l-0.5,217.5v3.2L227.7,246.9v-4.2l-0.1-221.8
	C280.5,47.7,333.2,74.7,385.8,102z"/>
<path class="st2" d="M0.8,387.7l59,31.3l83.8,43.7l156.8,83l4.8,2.7l2.3,1.3l1.9,0.9l2.3,0.7h1.2l2.4,0.1h4l1.7-0.2l2.3-0.6l2.1-0.9
	l1.5-0.7l1.6-1l22.5-12.4l46.6-25.1L530.3,439l1.8-1.4v-12.8l-0.8-2.4l-309-165c0,0-2.8-1.5-7.3,0s-56.4,29.4-56.4,29.4l-85.5,44.9
	L2.8,368.3l-1.3,1.3l-0.7,1.6l-0.5,2.3V387L0.8,387.7z"/>
<path class="st3" d="M192,412.1l53.8,27.8c0,0,4.3,2.5,1,4.8s-41.3,21.5-41.3,21.5s-4.7,2.2-8.2,0S141.6,437,141.6,437
	s-3.3-1.8,1.3-4.5s38.3-20.4,38.3-20.4l1.3-0.7l1.4-0.5l0.8-0.3h1.4l1.6,0.3l1.8,0.5l1,0.4L192,412.1z"/>
<polygon class="st4" points="158.9,380.8 172.6,373.3 173.9,372.7 175.5,372.6 176,372.8 179.6,374.5 256.6,414.5 269.4,421 
	271.5,422.4 272.3,423.6 271.8,424.4 270.7,425.1 267.7,426.9 265,428.6 262.4,430.1 260.3,431.1 257.6,432.5 255,433 252.9,432.7 
	250.4,431.5 161.9,384 159.7,382.8 159.1,382.4 158.7,381.7 "/>
<path class="st4" d="M362.3,422.6c0-0.9,0.8-1.7,9.1-6c5.6-2.9,6.4-3.2,7.5-3.2c1.6,0,2.4,0.4,8.8,3.6c6.9,3.5,7.9,4.1,7.9,5.1
	s-0.9,1.6-7,4.8c-8,4.2-8.7,4.4-9.6,4.4c-1.1,0-1.8-0.2-10.1-4.4C363.2,424.1,362.4,423.5,362.3,422.6z"/>
<path class="st5" d="M402.7,444c0-0.9,0.8-1.7,9.1-6c5.6-2.9,6.4-3.2,7.5-3.2c1.6,0,2.4,0.4,8.8,3.6c6.9,3.5,7.9,4.1,7.9,5.1
	s-0.9,1.6-7,4.8c-8,4.2-8.7,4.4-9.7,4.4s-1.8-0.2-10.1-4.4C403.6,445.4,402.7,444.9,402.7,444z"/>
<path class="st4" d="M381.8,432.9c0-0.9,0.8-1.7,9.1-6c5.6-2.9,6.4-3.2,7.5-3.2c1.6,0,2.4,0.4,8.8,3.6c6.9,3.5,7.9,4.1,7.9,5.1
	s-0.9,1.6-7,4.8c-8,4.2-8.7,4.4-9.7,4.4s-1.8-0.2-10.1-4.4C382.7,434.3,381.8,433.8,381.8,432.9z"/>
<path class="st4" d="M402.7,444c0-0.9,0.8-1.7,9.1-6c5.6-2.9,6.4-3.2,7.5-3.2c1.6,0,2.4,0.4,8.8,3.6c6.9,3.5,7.9,4.1,7.9,5.1
	s-0.9,1.6-7,4.8c-8,4.2-8.7,4.4-9.7,4.4s-1.8-0.2-10.1-4.4C403.6,445.4,402.7,444.9,402.7,444z"/>
<path class="st4" d="M402.7,422c0-0.9,0.8-1.7,9.1-6c5.6-2.9,6.4-3.2,7.5-3.2c1.6,0,2.4,0.4,8.8,3.6c6.9,3.5,7.9,4.1,7.9,5.1
	s-0.9,1.6-7,4.8c-8,4.2-8.7,4.4-9.7,4.4s-1.8-0.2-10.1-4.4C403.6,423.4,402.7,422.9,402.7,422z"/>
<path class="st4" d="M422.8,432.3c0-0.9,0.8-1.7,9.1-6c5.6-2.9,6.4-3.2,7.5-3.2c1.6,0,2.4,0.4,8.8,3.6c6.9,3.5,7.9,4.1,7.9,5.1
	s-0.9,1.6-7,4.8c-8,4.2-8.7,4.4-9.7,4.4s-1.8-0.2-10.1-4.4C423.7,433.7,422.9,433.2,422.8,432.3z"/>
<path class="st4" d="M383.2,411.2c0-0.9,0.8-1.7,9.1-6c5.6-2.9,6.4-3.2,7.5-3.2c1.6,0,2.4,0.4,8.8,3.6c6.9,3.5,7.9,4.1,7.9,5.1
	s-0.9,1.6-7,4.8c-8,4.2-8.7,4.4-9.7,4.4s-1.8-0.2-10.1-4.4C384.1,412.6,383.2,412.1,383.2,411.2z"/>
<path class="st4" d="M362.3,400.6c0-0.9,0.8-1.7,9.1-6c5.6-2.9,6.4-3.2,7.5-3.2c1.6,0,2.4,0.4,8.8,3.6c6.9,3.5,7.9,4.1,7.9,5.1
	s-0.9,1.6-7,4.8c-8,4.2-8.7,4.4-9.6,4.4c-1.1,0-1.8-0.2-10.1-4.4C363.2,402,362.4,401.5,362.3,400.6z"/>
<path class="st4" d="M342.1,411.5c0-0.9,0.8-1.7,9.1-6c5.6-2.9,6.4-3.2,7.5-3.2c1.6,0,2.4,0.4,8.8,3.6c6.9,3.5,7.9,4.1,7.9,5.1
	s-0.9,1.6-7,4.8c-8,4.2-8.7,4.4-9.6,4.4c-1.1,0-1.8-0.2-10.1-4.4C343,412.9,342.2,412.4,342.1,411.5z"/>
<path class="st4" d="M321,422.6c0-0.9,0.8-1.7,9.1-6c5.6-2.9,6.4-3.2,7.5-3.2c1.6,0,2.4,0.4,8.8,3.6c6.9,3.5,7.9,4.1,7.9,5.1
	s-0.9,1.6-7,4.8c-8,4.2-8.7,4.4-9.7,4.4s-1.8-0.2-10.1-4.4C321.9,424.1,321.1,423.5,321,422.6z"/>
<path class="st4" d="M342.1,432.9c0-0.9,0.8-1.7,9.1-6c5.6-2.9,6.4-3.2,7.5-3.2c1.6,0,2.4,0.4,8.8,3.6c6.9,3.5,7.9,4.1,7.9,5.1
	s-0.9,1.6-7,4.8c-8,4.2-8.7,4.4-9.6,4.4c-1.1,0-1.8-0.2-10.1-4.4C343,434.3,342.2,433.8,342.1,432.9z"/>
<path class="st6" d="M300,434.1c0-0.9,0.8-1.7,9.1-6c5.6-2.9,6.4-3.2,7.5-3.2c1.6,0,2.4,0.4,8.8,3.6c6.9,3.5,7.9,4.1,7.9,5.1
	s-0.9,1.6-7,4.8c-8,4.2-8.7,4.4-9.7,4.4s-1.8-0.2-10.1-4.4C300.9,435.5,300,435,300,434.1z"/>
<path class="st4" d="M342.8,390.1c0-0.9,0.8-1.7,9.1-6c5.6-2.9,6.4-3.2,7.5-3.2c1.6,0,2.4,0.4,8.8,3.6c6.9,3.5,7.9,4.1,7.9,5.1
	s-0.9,1.6-7,4.8c-8,4.2-8.7,4.4-9.7,4.4s-1.8-0.2-10.1-4.4C343.7,391.5,342.8,391,342.8,390.1z"/>
<path class="st4" d="M321,400.6c0-0.9,0.8-1.7,9.1-6c5.6-2.9,6.4-3.2,7.5-3.2c1.6,0,2.4,0.4,8.8,3.6c6.9,3.5,7.9,4.1,7.9,5.1
	s-0.9,1.6-7,4.8c-8,4.2-8.7,4.4-9.7,4.4s-1.8-0.2-10.1-4.4C321.9,402,321.1,401.5,321,400.6z"/>
<path class="st4" d="M300.7,412.2c0-0.9,0.8-1.7,9.1-6c5.6-2.9,6.3-3.2,7.5-3.2c1.6,0,2.4,0.4,8.8,3.6c6.9,3.5,7.9,4.1,7.9,5.1
	s-0.9,1.6-7,4.8c-8,4.2-8.7,4.4-9.6,4.4s-1.8-0.2-10.1-4.4C301.6,413.7,300.7,413.1,300.7,412.2z"/>
<path class="st6" d="M280,423.4c0-0.9,0.8-1.7,9.1-6c5.6-2.9,6.4-3.2,7.5-3.2c1.6,0,2.4,0.4,8.8,3.6c6.9,3.5,7.9,4.1,7.9,5.1
	s-0.9,1.6-7,4.8c-8,4.2-8.7,4.4-9.7,4.4s-1.8-0.2-10.1-4.4C280.9,424.8,280,424.3,280,423.4z"/>
<path class="st6" d="M259.7,434.1c0-0.9,0.8-1.7,9.1-6c5.6-2.9,6.4-3.2,7.5-3.2c1.6,0,2.4,0.4,8.8,3.6c6.9,3.5,7.9,4.1,7.9,5.1
	s-0.9,1.6-7,4.8c-8,4.2-8.7,4.4-9.7,4.4s-1.8-0.2-10.1-4.4C260.6,435.5,259.7,435,259.7,434.1z"/>
<path class="st6" d="M279.7,444.5c0-0.9,0.8-1.7,9.1-6c5.6-2.9,6.4-3.2,7.5-3.2c1.6,0,2.4,0.4,8.8,3.6c6.9,3.5,7.9,4.1,7.9,5.1
	s-0.9,1.6-7,4.8c-8,4.2-8.7,4.4-9.7,4.4s-1.8-0.2-10.1-4.4C280.6,445.9,279.7,445.4,279.7,444.5z"/>
<path class="st6" d="M300,455.8c0-0.9,0.8-1.7,9.1-6c5.6-2.9,6.4-3.2,7.5-3.2c1.6,0,2.4,0.4,8.8,3.6c6.9,3.5,7.9,4.1,7.9,5.1
	s-0.9,1.6-7,4.8c-8,4.2-8.7,4.4-9.7,4.4s-1.8-0.2-10.1-4.4C300.9,457.2,300,456.7,300,455.8z"/>
<path class="st6" d="M319.3,465.8c0-0.9,0.8-1.7,9.1-6c5.6-2.9,6.4-3.2,7.5-3.2c1.6,0,2.4,0.4,8.8,3.6c6.9,3.5,7.9,4.1,7.9,5.1
	s-0.9,1.6-7,4.8c-8,4.2-8.7,4.4-9.7,4.4s-1.8-0.2-10.1-4.4C320.2,467.2,319.3,466.7,319.3,465.8z"/>
<path class="st6" d="M339.3,476.5c0-0.9,0.8-1.7,9.1-6c5.6-2.9,6.4-3.2,7.5-3.2c1.6,0,2.4,0.4,8.8,3.6c6.9,3.5,7.9,4.1,7.9,5.1
	s-0.9,1.6-7,4.8c-8,4.2-8.7,4.4-9.7,4.4s-1.8-0.2-10.1-4.4C340.2,477.9,339.3,477.4,339.3,476.5z"/>
<path class="st6" d="M259.7,412.2c0-0.9,0.8-1.7,9.1-6c5.6-2.9,6.4-3.2,7.5-3.2c1.6,0,2.4,0.4,8.8,3.6c6.9,3.5,7.9,4.1,7.9,5.1
	s-0.9,1.6-7,4.8c-8,4.2-8.7,4.4-9.7,4.4s-1.8-0.2-10.1-4.4C260.6,413.7,259.7,413.1,259.7,412.2z"/>
<path class="st4" d="M281.2,401c0-0.9,0.8-1.7,9.1-6c5.6-2.9,6.4-3.2,7.5-3.2c1.6,0,2.4,0.4,8.8,3.6c6.9,3.5,7.9,4.1,7.9,5.1
	s-0.9,1.6-7,4.8c-8,4.2-8.7,4.4-9.7,4.4s-1.8-0.2-10.1-4.4C282.1,402.5,281.2,401.9,281.2,401z"/>
<path class="st4" d="M301.3,389.7c0-0.9,0.8-1.7,9.1-6c5.6-2.9,6.4-3.2,7.5-3.2c1.6,0,2.4,0.4,8.8,3.6c6.9,3.5,7.9,4.1,7.9,5.1
	s-0.9,1.6-7,4.8c-8,4.2-8.7,4.4-9.7,4.4s-1.8-0.2-10.1-4.4C302.2,391.1,301.3,390.6,301.3,389.7z"/>
<path class="st4" d="M322.5,378.5c0-0.9,0.8-1.7,9.1-6c5.6-2.9,6.4-3.2,7.5-3.2c1.6,0,2.4,0.4,8.8,3.6c6.9,3.5,7.9,4.1,7.9,5.1
	s-0.9,1.6-7,4.8c-8,4.2-8.7,4.4-9.7,4.4s-1.8-0.2-10.1-4.4C323.4,379.9,322.6,379.4,322.5,378.5z"/>
<path class="st4" d="M302,368.2c0-0.9,0.8-1.7,9.1-6c5.6-2.9,6.4-3.2,7.5-3.2c1.6,0,2.4,0.4,8.8,3.6c6.9,3.5,7.9,4.1,7.9,5.1
	s-0.9,1.6-7,4.8c-8,4.2-8.7,4.4-9.7,4.4s-1.8-0.2-10.1-4.4C302.9,369.7,302.1,369.1,302,368.2z"/>
<path class="st4" d="M281.2,379.3c0-0.9,0.8-1.7,9.1-6c5.6-2.9,6.4-3.2,7.5-3.2c1.6,0,2.4,0.4,8.8,3.6c6.9,3.5,7.9,4.1,7.9,5.1
	s-0.9,1.6-7,4.8c-8,4.2-8.7,4.4-9.7,4.4s-1.8-0.2-10.1-4.4C282.1,380.8,281.2,380.3,281.2,379.3z"/>
<path class="st4" d="M260.9,390.4c0-0.9,0.8-1.7,9.1-6c5.6-2.9,6.4-3.2,7.5-3.2c1.6,0,2.4,0.4,8.8,3.6c6.9,3.5,7.9,4.1,7.9,5.1
	s-0.9,1.6-7,4.8c-8,4.2-8.7,4.4-9.7,4.4s-1.8-0.2-10.1-4.4C261.9,391.8,261,391.3,260.9,390.4z"/>
<path class="st6" d="M239.8,401.8c0-0.9,0.8-1.7,9.1-6c5.6-2.9,6.4-3.2,7.5-3.2c1.6,0,2.4,0.4,8.8,3.6c6.9,3.5,7.9,4.1,7.9,5.1
	s-0.9,1.6-7,4.8c-8,4.2-8.7,4.4-9.7,4.4c-1,0-1.8-0.2-10.1-4.4C240.7,403.2,239.8,402.7,239.8,401.8z"/>
<path class="st4" d="M333.3,352.2c0-0.9,0.8-1.7,9.1-6c5.6-2.9,6.4-3.2,7.5-3.2c1.6,0,2.4,0.4,8.8,3.6c6.9,3.5,7.9,4.1,7.9,5.1
	s-0.9,1.6-7,4.8c-8,4.2-8.7,4.4-9.7,4.4s-1.8-0.2-10.1-4.4C334.2,353.6,333.3,353.1,333.3,352.2z"/>
<path class="st4" d="M352.6,362.4c0-0.9,0.8-1.7,9.1-6c5.6-2.9,6.4-3.2,7.5-3.2c1.6,0,2.4,0.4,8.8,3.6c6.9,3.5,7.9,4.1,7.9,5.1
	s-0.9,1.6-7,4.8c-8,4.2-8.7,4.4-9.6,4.4s-1.8-0.2-10.1-4.4C353.5,363.8,352.6,363.3,352.6,362.4z"/>
<path class="st4" d="M372.9,372.8c0-0.9,0.8-1.7,9.1-6c5.6-2.9,6.4-3.2,7.5-3.2c1.6,0,2.4,0.4,8.8,3.6c6.9,3.5,7.9,4.1,7.9,5.1
	s-0.9,1.6-7,4.8c-8,4.2-8.7,4.4-9.7,4.4s-1.8-0.2-10.1-4.4C373.9,374.2,373,373.7,372.9,372.8z"/>
<path class="st4" d="M393.3,383.9c0-0.9,0.8-1.7,9.1-6c5.6-2.9,6.4-3.2,7.5-3.2c1.6,0,2.4,0.4,8.8,3.6c6.9,3.5,7.9,4.1,7.9,5.1
	s-0.9,1.6-7,4.8c-8,4.2-8.7,4.4-9.7,4.4s-1.8-0.2-10.1-4.4C394.2,385.4,393.3,384.8,393.3,383.9z"/>
<path class="st4" d="M413.6,394.4c0-0.9,0.8-1.7,9.1-6c5.6-2.9,6.4-3.2,7.5-3.2c1.6,0,2.4,0.4,8.8,3.6c6.9,3.5,7.9,4.1,7.9,5.1
	s-0.9,1.6-7,4.8c-8,4.2-8.7,4.4-9.6,4.4s-1.8-0.2-10.1-4.4C414.5,395.8,413.6,395.3,413.6,394.4z"/>
<path class="st4" d="M433.4,405.9c0-0.9,0.8-1.7,9.1-6c5.6-2.9,6.4-3.2,7.5-3.2c1.6,0,2.4,0.4,8.8,3.6c6.9,3.5,7.9,4.1,7.9,5.1
	s-0.9,1.6-7,4.8c-8,4.2-8.7,4.4-9.7,4.4s-1.8-0.2-10.1-4.4C434.4,407.3,433.5,406.8,433.4,405.9z"/>
<path class="st4" d="M454.1,416.2c0-0.9,0.8-1.7,9.1-6c5.6-2.9,6.4-3.2,7.5-3.2c1.6,0,2.4,0.4,8.8,3.6c6.9,3.5,7.9,4.1,7.9,5.1
	s-0.9,1.6-7,4.8c-8,4.2-8.7,4.4-9.6,4.4s-1.8-0.2-10.1-4.4C455,417.6,454.1,417.1,454.1,416.2z"/>
<path class="st4" d="M282.2,357.8c0-0.9,0.8-1.7,9.1-6c5.6-2.9,6.4-3.2,7.5-3.2c1.6,0,2.4,0.4,8.8,3.6c6.9,3.5,7.9,4.1,7.9,5.1
	s-0.9,1.6-7,4.8c-8,4.2-8.7,4.4-9.7,4.4s-1.8-0.2-10.1-4.4C283.1,359.2,282.2,358.7,282.2,357.8z"/>
<path class="st4" d="M263.2,347.5c0-0.9,0.8-1.7,9.1-6c5.6-2.9,6.4-3.2,7.5-3.2c1.6,0,2.4,0.4,8.8,3.6c6.9,3.5,7.9,4.1,7.9,5.1
	s-0.9,1.6-7,4.8c-8,4.2-8.7,4.4-9.7,4.4s-1.8-0.2-10.1-4.4C264.1,348.9,263.2,348.4,263.2,347.5z"/>
<path class="st4" d="M242.2,357.8c0-0.9,0.8-1.7,9.1-6c5.6-2.9,6.4-3.2,7.5-3.2c1.6,0,2.4,0.4,8.8,3.6c6.9,3.5,7.9,4.1,7.9,5.1
	s-0.9,1.6-7,4.8c-8,4.2-8.7,4.4-9.7,4.4s-1.8-0.2-10.1-4.4C243.1,359.2,242.2,358.7,242.2,357.8z"/>
<path class="st4" d="M261.9,368.9c0-0.9,0.8-1.7,9.1-6c5.6-2.9,6.4-3.2,7.5-3.2c1.6,0,2.4,0.4,8.8,3.6c6.9,3.5,7.9,4.1,7.9,5.1
	s-0.9,1.6-7,4.8c-8,4.2-8.7,4.4-9.6,4.4s-1.8-0.2-10.1-4.4C262.8,370.3,261.9,369.8,261.9,368.9z"/>
<path class="st4" d="M220.8,369.6c0-0.9,0.8-1.7,9.1-6c5.6-2.9,6.4-3.2,7.5-3.2c1.6,0,2.4,0.4,8.8,3.6c6.9,3.5,7.9,4.1,7.9,5.1
	s-0.9,1.6-7,4.8c-8,4.2-8.7,4.4-9.6,4.4s-1.8-0.2-10.1-4.4C221.8,371,220.9,370.5,220.8,369.6z"/>
<path class="st4" d="M239.8,379.8c0-0.9,0.8-1.7,9.1-6c5.6-2.9,6.4-3.2,7.5-3.2c1.6,0,2.4,0.4,8.8,3.6c6.9,3.5,7.9,4.1,7.9,5.1
	s-0.9,1.6-7,4.8c-8,4.2-8.7,4.4-9.7,4.4c-1,0-1.8-0.2-10.1-4.4C240.7,381.2,239.8,380.7,239.8,379.8z"/>
<path class="st4" d="M199.8,380.7c0-0.9,0.8-1.7,9.1-6c5.6-2.9,6.4-3.2,7.5-3.2c1.6,0,2.4,0.4,8.8,3.6c6.9,3.5,7.9,4.1,7.9,5.1
	s-0.9,1.6-7,4.8c-8,4.2-8.7,4.4-9.7,4.4s-1.8-0.2-10.1-4.4C200.7,382.2,199.8,381.6,199.8,380.7z"/>
<path class="st6" d="M219.4,391.6c0-0.9,0.8-1.7,9.1-6c5.6-2.9,6.4-3.2,7.5-3.2c1.6,0,2.4,0.4,8.8,3.6c6.9,3.5,7.9,4.1,7.9,5.1
	s-0.9,1.6-7,4.8c-8,4.2-8.7,4.4-9.7,4.4s-1.8-0.2-10.1-4.4C220.3,393.1,219.4,392.5,219.4,391.6z"/>
<path class="st4" d="M199.8,358.6c0-0.9,0.8-1.7,9.1-6c5.6-2.9,6.4-3.2,7.5-3.2c1.6,0,2.4,0.4,8.8,3.6c6.9,3.5,7.9,4.1,7.9,5.1
	s-0.9,1.6-7,4.8c-8,4.2-8.7,4.4-9.7,4.4s-1.8-0.2-10.1-4.4C200.7,360,199.8,359.5,199.8,358.6z"/>
<path class="st4" d="M220.8,347.5c0-0.9,0.8-1.7,9.1-6c5.6-2.9,6.4-3.2,7.5-3.2c1.6,0,2.4,0.4,8.8,3.6c6.9,3.5,7.9,4.1,7.9,5.1
	s-0.9,1.6-7,4.8c-8,4.2-8.7,4.4-9.6,4.4s-1.8-0.2-10.1-4.4C221.8,348.9,220.9,348.4,220.8,347.5z"/>
<path class="st4" d="M243,337c0-0.9,0.8-1.7,9.1-6c5.6-2.9,6.4-3.2,7.5-3.2c1.6,0,2.4,0.4,8.8,3.6c6.9,3.5,7.9,4.1,7.9,5.1
	s-0.9,1.6-7,4.8c-8,4.2-8.7,4.4-9.7,4.4s-1.8-0.2-10.1-4.4C243.9,338.4,243.1,337.9,243,337z"/>
<path class="st4" d="M179.5,370.4c0-0.9,0.8-1.7,9.1-6c5.6-2.9,6.4-3.2,7.5-3.2c1.6,0,2.4,0.4,8.8,3.6c6.9,3.5,7.9,4.1,7.9,5.1
	s-0.9,1.6-7,4.8c-8,4.2-8.7,4.4-9.7,4.4s-1.8-0.2-10.1-4.4C180.4,371.8,179.6,371.3,179.5,370.4z"/>
<path class="st4" d="M179.5,348.4c0-0.9,0.8-1.7,9.1-6c5.6-2.9,6.4-3.2,7.5-3.2c1.6,0,2.4,0.4,8.8,3.6c6.9,3.5,7.9,4.1,7.9,5.1
	s-0.9,1.6-7,4.8c-8,4.2-8.7,4.4-9.7,4.4s-1.8-0.2-10.1-4.4C180.4,349.8,179.6,349.3,179.5,348.4z"/>
<path class="st4" d="M201,337c0-0.9,0.8-1.7,9.1-6c5.6-2.9,6.4-3.2,7.5-3.2c1.6,0,2.4,0.4,8.8,3.6c6.9,3.5,7.9,4.1,7.9,5.1
	s-0.9,1.6-7,4.8c-8,4.2-8.7,4.4-9.7,4.4s-1.8-0.2-10.1-4.4C201.9,338.4,201.1,337.9,201,337z"/>
<path class="st4" d="M223.1,326.2c0-0.9,0.8-1.7,9.1-6c5.6-2.9,6.4-3.2,7.5-3.2c1.6,0,2.4,0.4,8.8,3.6c6.9,3.5,7.9,4.1,7.9,5.1
	s-0.9,1.6-7,4.8c-8,4.2-8.7,4.4-9.7,4.4s-1.8-0.2-10.1-4.4C224.1,327.6,223.2,327.1,223.1,326.2z"/>
<path class="st4" d="M202.7,315.8c0-0.9,0.8-1.7,9.1-6c5.6-2.9,6.4-3.2,7.5-3.2c1.6,0,2.4,0.4,8.8,3.6c6.9,3.5,7.9,4.1,7.9,5.1
	s-0.9,1.6-7,4.8c-8,4.2-8.7,4.4-9.6,4.4s-1.8-0.2-10.1-4.4C203.6,317.3,202.8,316.7,202.7,315.8z"/>
<path class="st4" d="M181,326.3c0-0.9,0.8-1.7,9.1-6c5.6-2.9,6.4-3.2,7.5-3.2c1.6,0,2.4,0.4,8.8,3.6c6.9,3.5,7.9,4.1,7.9,5.1
	s-0.9,1.6-7,4.8c-8,4.2-8.7,4.4-9.6,4.4s-1.8-0.2-10.1-4.4C181.9,327.7,181,327.2,181,326.3z"/>
<path class="st4" d="M181,305.2c0-0.9,0.8-1.7,9.1-6c5.6-2.9,6.4-3.2,7.5-3.2c1.6,0,2.4,0.4,8.8,3.6c6.9,3.5,7.9,4.1,7.9,5.1
	s-0.9,1.6-7,4.8c-8,4.2-8.7,4.4-9.6,4.4s-1.8-0.2-10.1-4.4C181.9,306.6,181,306.1,181,305.2z"/>
<path class="st4" d="M161.4,315.8c0-0.9,0.8-1.7,9.1-6c5.6-2.9,6.4-3.2,7.5-3.2c1.6,0,2.4,0.4,8.8,3.6c6.9,3.5,7.9,4.1,7.9,5.1
	s-0.9,1.6-7,4.8c-8,4.2-8.7,4.4-9.7,4.4s-1.8-0.2-10.1-4.4C162.3,317.3,161.4,316.7,161.4,315.8z"/>
<path class="st4" d="M211.9,288.7c0-0.9,0.8-1.7,9.1-6c5.6-2.9,6.4-3.2,7.5-3.2c1.6,0,2.4,0.4,8.8,3.6c6.9,3.5,7.9,4.1,7.9,5.1
	s-0.9,1.6-7,4.8c-8,4.2-8.7,4.4-9.6,4.4c-1.1,0-1.8-0.2-10.1-4.4C212.8,290.1,212,289.6,211.9,288.7z"/>
<path class="st4" d="M312.9,341.2c0-0.9,0.8-1.7,9.1-6c5.6-2.9,6.4-3.2,7.5-3.2c1.6,0,2.4,0.4,8.8,3.6c6.9,3.5,7.9,4.1,7.9,5.1
	s-0.9,1.6-7,4.8c-8,4.2-8.7,4.4-9.7,4.4s-1.8-0.2-10.1-4.4C313.9,342.6,313,342.1,312.9,341.2z"/>
<path class="st4" d="M293,331.1c0-0.9,0.8-1.7,9.1-6c5.6-2.9,6.4-3.2,7.5-3.2c1.6,0,2.4,0.4,8.8,3.6c6.9,3.5,7.9,4.1,7.9,5.1
	s-0.9,1.6-7,4.8c-8,4.2-8.7,4.4-9.7,4.4s-1.8-0.2-10.1-4.4C293.9,332.5,293,332,293,331.1z"/>
<path class="st4" d="M273.1,320.4c0-0.9,0.8-1.7,9.1-6c5.6-2.9,6.4-3.2,7.5-3.2c1.6,0,2.4,0.4,8.8,3.6c6.9,3.5,7.9,4.1,7.9,5.1
	s-0.9,1.6-7,4.8c-8,4.2-8.7,4.4-9.7,4.4s-1.8-0.2-10.1-4.4C274,321.8,273.1,321.3,273.1,320.4z"/>
<path class="st4" d="M252.8,309.6c0-0.9,0.8-1.7,9.1-6c5.6-2.9,6.4-3.2,7.5-3.2c1.6,0,2.4,0.4,8.8,3.6c6.9,3.5,7.9,4.1,7.9,5.1
	s-0.9,1.6-7,4.8c-8,4.2-8.7,4.4-9.7,4.4s-1.8-0.2-10.1-4.4C253.7,311,252.8,310.5,252.8,309.6z"/>
<path class="st4" d="M233.1,299.2c0-0.9,0.8-1.7,9.1-6c5.6-2.9,6.4-3.2,7.5-3.2c1.6,0,2.4,0.4,8.8,3.6c6.9,3.5,7.9,4.1,7.9,5.1
	s-0.9,1.6-7,4.8c-8,4.2-8.7,4.4-9.7,4.4s-1.8-0.2-10.1-4.4C234,300.6,233.1,300.1,233.1,299.2z"/>
<path class="st6" d="M98.3,349.7c0-0.9,0.8-1.7,9.1-6c5.6-2.9,6.4-3.2,7.5-3.2c1.6,0,2.4,0.4,8.8,3.6c6.9,3.5,7.9,4.1,7.9,5.1
	s-0.9,1.6-7,4.8c-8,4.2-8.7,4.4-9.7,4.4s-1.8-0.2-10.1-4.4C99.2,351.1,98.3,350.6,98.3,349.7z"/>
<path class="st6" d="M118.5,360.6c0-0.9,0.8-1.7,9.1-6c5.6-2.9,6.4-3.2,7.5-3.2c1.6,0,2.4,0.4,8.8,3.6c6.9,3.5,7.9,4.1,7.9,5.1
	s-0.9,1.6-7,4.8c-8,4.2-8.7,4.4-9.7,4.4s-1.8-0.2-10.1-4.4C119.4,362.1,118.6,361.5,118.5,360.6z"/>
<path class="st6" d="M138,370.9c0-0.9,0.8-1.7,9.1-6c5.6-2.9,6.4-3.2,7.5-3.2c1.6,0,2.4,0.4,8.8,3.6c6.9,3.5,7.9,4.1,7.9,5.1
	s-0.9,1.6-7,4.8c-8,4.2-8.7,4.4-9.7,4.4s-1.8-0.2-10.1-4.4C138.9,372.3,138.1,371.8,138,370.9z"/>
<path class="st4" d="M382.2,435.7l30.1,15.7l1.7,0.8c0.4,0.2,1.4,0.9,1.3,1.7s-0.9,1.3-1.3,1.6c-4.3,2.6-10.8,5.8-12.9,6.8l-0.9,0.5
	c-0.5,0.3-1,0.4-1.5,0.5c-0.8,0.1-1.7-0.1-2.4-0.5c-1.5-0.8-15.2-7.9-33.9-17.8c-0.7-0.5-0.8-1.4-0.4-2.1c0,0,0.1-0.1,0.1-0.1
	l13.2-7.6l1.4-0.8c0.4-0.1,0.8-0.2,1.2-0.2c0.4,0,0.8,0,1.2,0.1L382.2,435.7z"/>
<path class="st4" d="M160.5,318.5l30.1,15.7l1.7,0.8c0.4,0.2,1.4,0.9,1.3,1.7s-0.9,1.3-1.3,1.6c-4.3,2.6-10.8,5.8-12.9,6.8l-0.9,0.5
	c-0.5,0.3-1,0.4-1.5,0.5c-0.8,0.1-1.7-0.1-2.4-0.5c-1.5-0.8-15.2-7.9-33.9-17.8c-0.4-0.3-0.6-0.7-0.6-1.1c0-0.4,0.1-0.8,0.4-1.1
	l13.2-7.6l1.4-0.8c0.4-0.1,0.8-0.2,1.2-0.2c0.4,0,0.8,0,1.2,0.1L160.5,318.5z"/>
<path class="st6" d="M341.3,436.4l49.3,26l2,1c0.5,0.4,0.8,0.9,0.8,1.5c0,0.6-0.2,1.1-0.6,1.5c-4.3,2.6-8.7,5-13.3,7.1l-1,0.5
	c-0.6,0.2-1.3,0.3-1.9,0.2c-1.2-0.1-2.4-0.4-3.4-1.1c-2-1.2-22.9-12.4-51.8-27.8c-0.2-0.3-0.3-0.8-0.3-1.2c0.1-0.5,0.4-1,0.9-1.3
	l9.1-5.1l4.3-2.2c0.6-0.1,1.2-0.2,1.8-0.2C338.7,435.3,340.1,435.7,341.3,436.4z"/>
<path class="st4" d="M138.7,330.3l49.3,26l2,1c0.5,0.4,0.8,0.9,0.8,1.5c0,0.6-0.2,1.1-0.6,1.5c-4.3,2.6-8.7,4.9-13.3,7.1l-1,0.5
	c-0.6,0.2-1.3,0.2-1.9,0.2c-1.2-0.1-2.4-0.4-3.4-1.1c-2-1.2-22.9-12.4-51.8-27.9c-0.2-0.3-0.3-0.7-0.3-1.1c0.1-0.5,0.4-1,0.9-1.3
	l9.1-5.1l4.3-2.2c0.6-0.1,1.2-0.2,1.8-0.2C136.1,329.2,137.5,329.6,138.7,330.3z"/>
<polygon class="st7" points="279.8,61.8 279.8,68.7 325.6,93.1 325.6,86.2 "/>
<polygon class="st7" points="282.2,80.1 282.2,87 328.1,111.4 328.1,104.6 "/>
<polygon class="st7" points="371.5,179.2 371.5,186.1 417.4,210.5 417.4,203.7 "/>
<polygon class="st7" points="337.5,146.8 337.5,153.7 383.4,178.1 383.4,171.3 "/>
<polygon class="st7" points="282.2,146.8 282.2,153.7 328.1,178.1 328.1,171.3 "/>
<path class="st8" d="M267.9,91l-0.3,6.8l32.3,17.4l-0.1-7.3L267.9,91z"/>
<polygon class="st8" points="283.5,167.7 283.5,174.6 329.4,199 329.4,192.2 "/>
<polygon class="st7" points="325.3,201.8 325.3,208.8 371.2,233.1 371.2,226.3 "/>
<path class="st8" d="M281,112.3l-0.3,6.8l32.3,17.4l-0.1-7.3L281,112.3z"/>
<polygon class="st7" points="308,105.2 308,112.1 353.9,136.5 353.9,129.7 "/>
<polygon class="st9" points="312.9,145.4 312.9,152.4 358.8,176.8 358.8,169.9 "/>
<polygon class="st9" points="339.2,103.1 339.2,110.1 385,134.4 385,127.6 "/>
<polygon class="st7" points="424,167.7 424,174.6 469.9,199 469.9,192.2 "/>
<polygon class="st8" points="371.5,152 371.5,159 417.4,183.3 417.4,176.5 "/>
<polygon class="st9" points="340,179.2 340,186.1 385.9,210.5 385.9,203.7 "/>
<polygon class="st9" points="407.7,181.9 407.7,188.8 453.6,213.2 453.6,206.3 "/>
<polygon class="st9" points="365.7,131.1 365.7,138.1 411.6,162.4 411.6,155.6 "/>
<polygon class="st9" points="271.3,181.5 271.3,188.4 317.2,212.8 317.2,205.9 "/>
<polygon class="st7" points="399.6,222.8 399.6,229.8 445.5,254.1 445.5,247.3 "/>
<polygon class="st7" points="411.6,140.4 411.6,147.3 457.5,171.7 457.5,164.8 "/>
<polygon class="st8" points="392.2,204.4 392.2,211.4 438.1,235.7 438.1,228.9 "/>
<polygon class="st8" points="341.6,194 341.6,200.9 387.4,225.3 387.4,218.4 "/>
<path class="st8" d="M326.3,131.1l-0.3,6.8l32.3,17.4l-0.1-7.3L326.3,131.1z"/>
<path class="st8" d="M273.2,126.7l-0.3,6.8l32.3,17.4l-0.1-7.3L273.2,126.7z"/>
<path class="st8" d="M346.3,223.7l-0.3,6.8l32.3,17.4l-0.1-7.3L346.3,223.7z"/>
<polygon class="st9" points="286.7,204.4 286.7,211.4 332.6,235.7 332.6,228.9 "/>
<polygon class="st9" points="260.7,204.4 260.7,211.4 306.6,235.7 306.6,228.9 "/>
<polygon class="st7" points="312.9,234.3 312.9,241.3 358.8,265.6 358.8,258.8 "/>
<path class="st8" d="M383.9,229l-0.3,6.8l32.3,17.4l-0.1-7.3L383.9,229z"/>
<polygon class="st7" points="337.6,232.8 337.6,239.8 383.5,264.1 383.5,257.3 "/>
<polygon class="st8" points="446.9,191.5 446.9,198.5 492.8,222.8 492.8,216 "/>
<polygon class="st9" points="384.8,246.8 384.8,253.8 430.6,278.1 430.6,271.3 "/>
<polygon class="st9" points="369.3,262.4 369.3,269.4 415.1,293.8 415.1,286.9 "/>
<path class="st8" d="M401.6,266l-0.3,6.8c10.8,5.8,21.5,11.6,32.3,17.4l-0.1-7.3L401.6,266z"/>
<polygon class="st7" points="415.1,299 415.1,305.9 461,330.3 461,323.5 "/>
<polygon class="st8" points="438.1,275.3 438.1,282.2 484,306.6 484,299.7 "/>
<polygon class="st8" points="429,207.1 429,214.1 474.9,238.5 474.9,231.6 "/>
<polygon class="st9" points="424,250 424,256.9 469.9,281.3 469.9,274.5 "/>
<polygon class="st7" points="443.8,231.1 443.8,238.1 489.7,262.4 489.7,255.6 "/>
<path class="st8" d="M247.4,181.9l-0.3,6.8l32.3,17.4l-0.1-7.3L247.4,181.9z"/>
<polygon class="st7" points="240.2,154 240.2,161 286.1,185.3 286.1,178.5 "/>
<polygon class="st9" points="243.5,137.4 243.5,144.4 289.4,168.8 289.4,161.9 "/>
<polygon class="st7" points="270.1,227.2 270.1,234.2 315.9,258.5 315.9,251.7 "/>
<polygon class="st8" points="323,255.6 323,262.6 368.9,286.9 368.9,280.1 "/>
<path class="st8" d="M376.4,282.6l-0.3,6.8l32.3,17.4l-0.1-7.3L376.4,282.6z"/>
<polygon class="st9" points="343.6,279 343.6,286 389.5,310.3 389.5,303.5 "/>
<polygon class="st9" points="292.6,251.7 292.6,258.6 338.4,283 338.4,276.1 "/>
<path class="st3" d="M533.9,421c1-0.5,1.9-1.2,2.8-2c0.6-0.6,1.1-1.2,1.6-1.8l1.2-2c0-2.6,0-5.2,0-7.7l0.9-229.4l0.2-8.3
	c-0.7-2.4-1.3-4.8-2-7.2c-1.6-2.4-3.9-4.4-6.6-5.5L416.6,97L230.9,0c-0.7,0.1-1.4,0.2-2.1,0.3c-0.7,0.1-1.4,0.3-2.1,0.5
	c-0.5,0.2-0.9,0.4-1.3,0.6c-0.6,0.3-1.2,0.6-1.8,1c8.5,5,16.3,9.4,23.2,13.3c11.1,6.2,19.7,10.7,21.9,11.8c2,1,5.1,2.7,8.5,4.4
	c5.4,2.8,9.2,4.7,10.4,5.3c10.1,5.1,21.3,11.2,23.1,12.2c9.8,5.3,68.2,35.4,218.1,112.1l4,3.7l1.8,5.2v4l-2.5,236.3v10.7"/>
<polygon class="st10" points="0.1,371.7 305.1,534.8 308.8,536.6 312.9,537.6 317,537.6 322.3,536.8 327,535 530.7,426.9 532,426 
	532.8,438.5 323,550.8 321.8,551.2 320.4,551.5 319,551.8 317.4,551.8 315.8,551.8 314.8,551.8 313.3,551.8 311.3,551.7 
	215.2,500.2 2,387.9 1.1,387.4 0.1,372.2 "/>
<polygon class="st7" points="426.6,292.3 426.6,299.2 472.5,323.6 472.5,316.7 "/>
</svg>
